<svg width="483" height="396" viewBox="0 0 483 396" fill="none" xmlns="http://www.w3.org/2000/svg">
<path opacity="0.1" d="M93.2894 41.7354C97.3267 17.6465 118.177 0 142.602 0H432.284C459.898 0 482.284 22.3858 482.284 50V308C482.284 335.614 459.898 358 432.284 358H99.3614C68.4461 358 44.9391 330.225 50.0492 299.735L93.2894 41.7354Z" fill="#B0C6A1"/>
<path d="M255.373 259.341C227.327 227.53 260.443 196.813 318.728 195.985C434.606 203.621 460.755 306.245 451.997 329.254C443.24 352.263 417.163 352.891 378.526 306.019C339.889 259.146 290.43 299.104 255.373 259.341Z" stroke="white" stroke-width="1.5"/>
<path d="M146 190.444C146 228.796 113.317 259.888 73.0002 259.888C32.6834 259.888 0 228.796 0 190.444C0 152.091 32.6834 121 73.0002 121C113.317 121 146 152.091 146 190.444Z" fill="#EDF7F7"/>
<g filter="url(#filter0_d)">
<path d="M23.0006 205.608C23.0006 183.62 40.8916 156.828 62.9618 145.764C75.1276 139.666 86.0189 139.623 93.3507 144.493L111.363 153.524L102.881 167.311C101.966 188.948 84.445 214.62 62.9618 225.39C62.045 225.848 61.1376 226.271 60.2372 226.661L52.7043 236.789L36.544 228.687C28.2393 225.554 23.0006 217.505 23.0006 205.608Z" fill="#68AABC"/>
<path d="M40.9991 214.63C40.9991 236.618 58.8924 245.475 80.9627 234.413C103.031 223.349 120.924 196.556 120.924 174.568C120.924 152.582 103.031 143.723 80.9627 154.787C58.8924 165.851 40.9991 192.644 40.9991 214.63Z" fill="#A6D6E2"/>
<path d="M98.8881 151.814C102.335 151.814 105.5 152.503 108.269 153.892C115.088 157.311 118.844 164.653 118.844 174.568C118.844 195.947 101.383 222.092 79.9213 232.85C69.872 237.887 60.5406 238.76 53.6555 235.308C46.8336 231.889 43.0776 224.547 43.0776 214.63C43.0776 193.253 60.5383 167.108 82.0004 156.351C88.0109 153.337 93.7617 151.814 98.8881 151.814ZM63.0196 241C68.8827 241 75.3422 239.315 82.0004 235.976C92.9829 230.47 103.29 221.065 111.017 209.493C118.746 197.919 123 185.517 123 174.568C123 163.309 118.507 154.856 110.345 150.765C102.12 146.641 91.3154 147.514 79.9213 153.224C68.9389 158.73 58.6323 168.136 50.9052 179.707C43.1782 191.281 38.9218 203.685 38.9218 214.63C38.9218 225.889 43.4144 234.344 51.5764 238.435C54.9933 240.149 58.8568 241 63.0196 241Z" fill="#7AE0F9"/>
<path d="M47.2992 211.474C47.2992 229.995 62.3721 237.455 80.9623 228.137C99.5525 218.817 114.623 196.25 114.623 177.728C114.623 159.205 99.5525 151.745 80.9623 161.065C62.3721 170.381 47.2992 192.952 47.2992 211.474Z" fill="white"/>
<path d="M72.32 198.932C72.32 203.685 76.1882 205.6 80.9615 203.208C85.7324 200.816 89.6006 195.023 89.6006 190.268C89.6006 185.516 85.7324 183.6 80.9615 185.992C76.1882 188.386 72.32 194.177 72.32 198.932Z" fill="#68AABC"/>
<path d="M62.2239 222.301L59.3777 226.561C55.7551 224.707 53.1358 221.462 51.8004 217.16C49.001 208.161 52.0038 195.47 59.6326 184.044C65.3578 175.468 72.9702 168.511 81.0644 164.452C89.1235 160.413 96.6868 159.737 102.365 162.548C106.081 164.385 108.764 167.666 110.123 172.038C112.908 181.001 109.945 193.616 102.391 205.001L99.6991 203.667C104.578 196.305 107.265 188.445 107.265 181.518C107.265 174.507 104.514 169.281 99.5167 166.81C89.2405 161.723 72.5609 170.05 62.3268 185.374C57.3805 192.786 54.6559 200.707 54.6559 207.681C54.6559 214.61 57.3407 219.789 62.2239 222.301ZM59.5298 227.056L62.7922 222.167L62.6098 222.078C57.75 219.672 55.0722 214.559 55.0722 207.681C55.0722 200.768 57.7757 192.912 62.687 185.555C72.8065 170.404 89.2358 162.135 99.3108 167.122C104.173 169.528 106.851 174.641 106.851 181.518C106.851 188.432 104.145 196.288 99.2337 203.643L99.1284 203.801L102.545 205.493L102.648 205.336C110.331 193.831 113.348 181.035 110.523 171.945C109.136 167.48 106.385 164.121 102.571 162.235C96.7594 159.358 89.0487 160.034 80.8563 164.139C72.7013 168.229 65.035 175.232 59.2725 183.862C51.5899 195.369 48.573 208.165 51.3981 217.255C52.785 221.72 55.5353 225.079 59.3497 226.967L59.5298 227.056Z" fill="#7AE0F9"/>
<path d="M60.8768 224.679L61.0826 224.364C57.626 222.654 55.1306 219.604 53.8701 215.547C51.2741 207.2 54.0688 195.419 61.1597 184.8C72.1188 168.387 89.9209 159.429 100.838 164.836C104.297 166.547 106.79 169.597 108.05 173.654C110.646 182 107.852 193.781 100.761 204.4L101.121 204.581C108.266 193.882 111.074 181.995 108.453 173.561C107.162 169.406 104.601 166.281 101.044 164.521C89.9256 159.02 71.8756 168.034 60.7996 184.619C53.6549 195.32 50.8462 207.204 53.4678 215.639C54.7588 219.793 57.3196 222.918 60.8768 224.679Z" fill="#FE855E"/>
<path d="M73.0246 217.233C79.9121 217.233 88.4389 211.909 94.0635 203.483L92.6275 202.76C86.0254 212.644 75.4218 218.094 68.988 214.91L68.1648 216.163C69.6289 216.89 71.2753 217.233 73.0246 217.233Z" fill="#68AABC"/>
<path d="M81.383 192.045C80.3049 195.966 80.6533 195.941 82.384 191.974C85.9715 181.228 89.3673 171.037 93.3828 159.721C89.3252 171.041 85.4546 181.267 81.383 192.045Z" fill="#7B2E50"/>
<path d="M81.8839 200.432C86.8466 199.395 88.7362 196.566 87.2792 192.353C77.2158 189.973 67.6272 187.78 58.359 183.309L58.2537 183.464C67.405 188.109 74.4328 194.142 81.8839 200.432Z" fill="#FE855E"/>
<path d="M76.506 196.833C76.506 199.283 78.5009 200.27 80.9612 199.038C83.4215 197.805 85.4141 194.818 85.4141 192.368C85.4141 189.915 83.4215 188.928 80.9612 190.162C78.5009 191.395 76.506 194.382 76.506 196.833Z" fill="#7AE0F9"/>
</g>
<defs>
<filter id="filter0_d" x="19" y="141" width="108" height="108" filterUnits="userSpaceOnUse" color-interpolation-filters="sRGB">
<feFlood flood-opacity="0" result="BackgroundImageFix"/>
<feColorMatrix in="SourceAlpha" type="matrix" values="0 0 0 0 0 0 0 0 0 0 0 0 0 0 0 0 0 0 127 0"/>
<feOffset dy="4"/>
<feGaussianBlur stdDeviation="2"/>
<feColorMatrix type="matrix" values="0 0 0 0 0 0 0 0 0 0 0 0 0 0 0 0 0 0 0.25 0"/>
<feBlend mode="normal" in2="BackgroundImageFix" result="effect1_dropShadow"/>
<feBlend mode="normal" in="SourceGraphic" in2="effect1_dropShadow" result="shape"/>
</filter>
</defs>
</svg>
