<svg width="480" height="358" viewBox="0 0 480 358" fill="none" xmlns="http://www.w3.org/2000/svg">
<path opacity="0.1" d="M90.2894 41.7355C94.3267 17.6466 115.177 0.00012207 139.602 0.00012207H429.284C456.898 0.00012207 479.284 22.3859 479.284 50.0001V308C479.284 335.614 456.898 358 429.284 358H96.3614C65.4461 358 41.9391 330.226 47.0492 299.736L90.2894 41.7355Z" fill="#2D9CDB"/>
<path d="M413.209 323.123C429.184 329.165 445.029 326.411 448.599 316.971C452.169 307.532 442.114 294.981 426.139 288.939C410.164 282.897 394.32 285.651 390.749 295.091C387.179 304.53 397.234 317.081 413.209 323.123Z" stroke="white" stroke-width="1.5"/>
<path d="M145.726 247.711C85.1914 259.917 70.5671 195.793 111.958 121.69C205.954 -18.8782 354.406 22.8639 377.045 50.6597C399.685 78.4555 381.491 111.797 294.252 126.393C207.014 140.99 221.393 232.452 145.726 247.711Z" stroke="white" stroke-width="1.5"/>
<path d="M146 163.444C146 201.796 113.317 232.888 73.0002 232.888C32.6834 232.888 0 201.796 0 163.444C0 125.091 32.6834 94 73.0002 94C113.317 94 146 125.091 146 163.444Z" fill="#EDF7F7"/>
<path d="M110.165 188.226C110.165 188.421 110.161 188.614 110.158 188.808H99.3674H95.6402H50.3602H46.633H35.8424C35.8395 188.614 35.835 188.421 35.835 188.226C35.835 167.68 52.4744 151.024 73 151.024C93.5256 151.024 110.165 167.68 110.165 188.226Z" fill="#B1EAD4"/>
<path d="M26.2387 188.808C26.235 188.564 26.2295 188.321 26.2295 188.076C26.2295 162.219 47.1695 141.258 73.0004 141.258C98.8312 141.258 119.771 162.219 119.771 188.076C119.771 188.321 119.766 188.564 119.762 188.808H101.492C101.498 188.564 101.501 188.321 101.501 188.076C101.501 172.32 88.7408 159.546 73.0002 159.546C57.2596 159.546 44.4992 172.32 44.4992 188.076C44.4992 188.321 44.5023 188.565 44.5084 188.808H26.2387Z" fill="#7CC3AC"/>
<path d="M119.771 188.076C119.771 188.321 119.766 188.564 119.762 188.808H115.92C115.924 188.584 115.929 188.361 115.929 188.136C115.929 164.403 96.709 145.164 73.0002 145.164C49.2914 145.164 30.0717 164.403 30.0717 188.136C30.0717 188.361 30.0768 188.584 30.0801 188.808H26.2387C26.235 188.564 26.2295 188.321 26.2295 188.076C26.2295 162.219 47.1695 141.258 73.0004 141.258C98.8312 141.258 119.771 162.219 119.771 188.076Z" fill="#61AE9F"/>
<path d="M98.2879 136.103C98.7465 136.327 98.9371 136.88 98.709 137.337L84.9959 164.79C84.7738 165.235 84.2389 165.419 83.7897 165.207C80.516 163.662 76.8586 162.797 72.9994 162.797C69.1403 162.797 65.4828 163.662 62.2092 165.207C61.7602 165.419 61.225 165.235 61.003 164.79L47.2899 137.337C47.0617 136.88 47.2524 136.327 47.711 136.103C55.35 132.377 63.9303 130.285 72.9994 130.285C82.0686 130.285 90.6488 132.377 98.2879 136.103Z" fill="#FFB05F"/>
<path d="M98.7102 137.337L84.9971 164.79C84.775 165.235 84.24 165.419 83.7908 165.207C82.9098 164.791 81.9998 164.427 81.0664 164.114L95.6566 134.904C96.5453 135.283 97.424 135.681 98.2891 136.103C98.7477 136.327 98.9383 136.88 98.7102 137.337Z" fill="#FF904E"/>
<path d="M73.0008 141.258C80.6375 141.258 87.8461 143.091 94.2131 146.34L86.0404 162.702C82.1328 160.686 77.6996 159.546 73.0006 159.546C68.3016 159.546 63.8684 160.686 59.9607 162.702L51.7881 146.34C58.1555 143.091 65.3641 141.258 73.0008 141.258Z" fill="#FF904E"/>
<path d="M90.7363 144.753C91.9191 145.237 93.0807 145.763 94.2119 146.34L89.1715 156.431L86.0395 162.702C84.9113 162.12 83.7387 161.613 82.5293 161.183L90.7363 144.753Z" fill="#FF733D"/>
<path d="M123 188.889C123 189.698 122.344 190.354 121.535 190.354H24.4648C23.6557 190.354 23 189.698 23 188.889C23 188.079 23.6557 187.424 24.4648 187.424H121.535C122.344 187.424 123 188.079 123 188.889Z" fill="#4A7273"/>
<path d="M93.0915 154.496L79.6651 190.375C79.2626 191.451 78.023 191.949 76.988 191.45L68.5208 187.37C67.487 186.871 67.1034 185.594 67.6919 184.609L87.3362 151.723C88.187 150.299 89.9841 149.759 91.4786 150.479C92.9739 151.2 93.6731 152.941 93.0915 154.496Z" fill="#43545C"/>
<path d="M68.5208 187.37C67.487 186.871 67.1034 185.594 67.6919 184.609L87.3362 151.723C88.187 150.299 89.9841 149.759 91.4786 150.479C91.6685 150.571 91.8452 150.679 92.0085 150.801L74.0765 190.047L68.5208 187.37Z" fill="#4A7273"/>
<path d="M79.8277 188.88C79.8277 192.655 76.7707 195.715 72.9998 195.715C69.2289 195.715 66.1719 192.655 66.1719 188.88C66.1719 185.105 69.2289 182.045 72.9998 182.045C76.7707 182.045 79.8277 185.105 79.8277 188.88Z" fill="#43545C"/>
<path d="M76.0522 188.88C76.0522 190.567 74.6857 191.935 73.0002 191.935C71.3146 191.935 69.9482 190.567 69.9482 188.88C69.9482 187.193 71.3146 185.825 73.0002 185.825C74.6857 185.825 76.0522 187.193 76.0522 188.88Z" fill="#61AE9F"/>
</svg>
