<svg width="487" height="358" viewBox="0 0 487 358" fill="none" xmlns="http://www.w3.org/2000/svg">
<path opacity="0.1" d="M97.2904 41.7354C101.328 17.6465 122.178 0 146.603 0H436.285C463.899 0 486.285 22.3858 486.285 50V308C486.285 335.614 463.899 358 436.285 358H103.362C72.4471 358 48.9401 330.225 54.0502 299.735L97.2904 41.7354Z" fill="#CDDDC3"/>
<ellipse cx="423.807" cy="56.427" rx="34.0274" ry="20.1071" transform="rotate(150 423.807 56.427)" stroke="white" stroke-width="1.5"/>
<path d="M146 177.444C146 215.796 113.317 246.888 73.0002 246.888C32.6834 246.888 0 215.796 0 177.444C0 139.091 32.6834 108 73.0002 108C113.317 108 146 139.091 146 177.444Z" fill="#EDF7F7"/>
<g clip-path="url(#clip0)">
<path d="M73 205.75C88.8782 205.75 101.75 192.878 101.75 177C101.75 161.122 88.8782 148.25 73 148.25C57.1218 148.25 44.25 161.122 44.25 177C44.25 192.878 57.1218 205.75 73 205.75Z" fill="#FCD462"/>
<path d="M86.6251 151.625C87.8752 155.625 88.7501 159.875 88.875 164.25C89.625 181.625 77.875 197 62.625 203.75C65.875 205 69.375 205.75 72.9999 205.75C88.875 205.75 101.75 192.875 101.75 177C101.75 166 95.625 156.5 86.6251 151.625Z" fill="#F6C358"/>
<path d="M73 127C70.6249 127 68.75 128.875 68.75 131.25V138.25C68.75 140.625 70.6249 142.5 73 142.5C75.3751 142.5 77.25 140.625 77.25 138.25V131.25C77.25 128.875 75.3751 127 73 127Z" fill="#F6C358"/>
<path d="M73 211.5C70.6249 211.5 68.75 213.375 68.75 215.75V222.75C68.75 225.125 70.6249 227 73 227C75.3751 227 77.25 225.125 77.25 222.75V215.75C77.25 213.375 75.3751 211.5 73 211.5Z" fill="#F6C358"/>
<path d="M123 177C123 174.625 121.125 172.75 118.75 172.75H111.75C109.375 172.75 107.5 174.625 107.5 177C107.5 179.375 109.375 181.25 111.75 181.25H118.75C121.125 181.25 123 179.375 123 177Z" fill="#F6C358"/>
<path d="M38.5001 177C38.5001 174.625 36.6251 172.75 34.2501 172.75H27.25C24.8749 172.75 23 174.625 23 177C23 179.375 24.8749 181.25 27.25 181.25H34.2501C36.6249 181.25 38.5001 179.375 38.5001 177Z" fill="#F6C358"/>
<path d="M108.375 141.625C106.75 140 104 140 102.375 141.625L97.3751 146.625C95.75 148.25 95.75 151 97.3751 152.625C99.0002 154.25 101.75 154.25 103.375 152.625L108.375 147.625C110 146 110 143.25 108.375 141.625Z" fill="#F6C358"/>
<path d="M48.6251 201.375C47 199.75 44.2501 199.75 42.625 201.375L37.6251 206.375C36 208 36 210.75 37.6251 212.375C39.2502 214 42 214 43.6251 212.375L48.6251 207.375C50.2501 205.75 50.2501 203.125 48.6251 201.375Z" fill="#F6C358"/>
<path d="M108.375 212.375C110 210.75 110 208 108.375 206.375L103.375 201.375C101.75 199.75 99.0002 199.75 97.3751 201.375C95.75 203 95.75 205.75 97.3751 207.375L102.375 212.375C104 214 106.75 214 108.375 212.375Z" fill="#F6C358"/>
<path d="M48.6251 152.625C50.2501 151 50.2501 148.25 48.6251 146.625L43.6251 141.625C42 140 39.2502 140 37.6251 141.625C36 143.25 36 146 37.6251 147.625L42.625 152.625C44.2501 154.25 46.875 154.25 48.6251 152.625Z" fill="#F6C358"/>
</g>
<defs>
<clipPath id="clip0">
<rect width="100" height="100" fill="white" transform="translate(23 127)"/>
</clipPath>
</defs>
</svg>
