<svg width="559" height="403" viewBox="0 0 559 403" fill="none" xmlns="http://www.w3.org/2000/svg">
<path d="M559 354.424H0V354.153H559V354.424Z" fill="#E5E5E4"/>
<path d="M465.959 371.562H502.989V371.833H465.959V371.562Z" fill="#E5E5E4"/>
<path d="M360.585 374.496H370.304V374.767H360.585V374.496Z" fill="#E5E5E4"/>
<path d="M443.383 361.518H464.839V361.788H443.383V361.518Z" fill="#E5E5E4"/>
<path d="M58.6494 363.336H106.939V363.606H58.6494V363.336Z" fill="#E5E5E4"/>
<path d="M116.894 363.336H123.974V363.606H116.894V363.336Z" fill="#E5E5E4"/>
<path d="M146.984 367.902H251.714V368.173H146.984V367.902Z" fill="#E5E5E4"/>
<path d="M49.0974 0.270391C45.7322 0.270391 42.9953 2.91806 42.9953 6.17356V299.743C42.9953 302.999 45.7322 305.646 49.0974 305.646H264.982C268.345 305.646 271.083 302.999 271.083 299.743V6.17356C271.083 2.91806 268.345 0.270391 264.982 0.270391H49.0974ZM264.982 305.917H49.0974C45.579 305.917 42.7158 303.148 42.7158 299.743V6.17356C42.7158 2.76988 45.579 0 49.0974 0H264.982C268.499 0 271.362 2.76988 271.362 6.17356V299.743C271.362 303.148 268.499 305.917 264.982 305.917Z" fill="#E5E5E4"/>
<path d="M290.917 0.270391C287.552 0.270391 284.816 2.91806 284.816 6.17356V299.743C284.816 302.999 287.552 305.646 290.917 305.646H506.801C510.165 305.646 512.903 302.999 512.903 299.743V6.17356C512.903 2.91806 510.165 0.270391 506.801 0.270391H290.917ZM506.801 305.917H290.917C287.398 305.917 284.536 303.148 284.536 299.743V6.17356C284.536 2.76988 287.398 0 290.917 0H506.801C510.32 0 513.183 2.76988 513.183 6.17356V299.743C513.183 303.148 510.32 305.917 506.801 305.917Z" fill="#E5E5E4"/>
<path d="M83.3408 211.901H257.327V26.8498H83.3408V211.901Z" fill="#E0E0DF"/>
<path d="M77.6631 211.901H254.675V26.8498H77.6631V211.901Z" fill="#E9EAE9"/>
<path d="M83.3416 211.901H257.328V219.968H77.7852L83.3416 211.901Z" fill="#E0E0DF"/>
<path d="M68.2041 211.901H245.215L239.658 219.968H62.6465L68.2041 211.901Z" fill="#E9EAE9"/>
<path d="M246.726 204.211V34.5408H85.6133V204.211H246.726Z" fill="#F6F6F5"/>
<path d="M219.589 204.211L157.356 34.5408H135.329L197.563 204.211H219.589Z" fill="#FEFEFE"/>
<path d="M243.044 198.818C243.38 198.818 243.652 198.555 243.652 198.23V39.5441C243.652 39.2196 243.38 38.9557 243.044 38.9557C242.707 38.9557 242.436 39.2196 242.436 39.5441V198.23C242.436 198.555 242.707 198.818 243.044 198.818Z" fill="#E9EAE9"/>
<path d="M172.71 204.211L110.477 34.5408H101.89L164.123 204.211H172.71Z" fill="#FEFEFE"/>
<path d="M86.624 204.211V34.5408H85.6133V204.211H86.624Z" fill="#E0E0DF"/>
<path d="M76.0605 44.887L76.5145 37.5302H77.6627V44.1375C77.1036 44.3484 76.5681 44.5993 76.0605 44.887Z" fill="#E9E9E8"/>
<path d="M77.6631 44.1375V37.5302H85.6132V43.3598H82.0199C80.4614 43.3598 78.9946 43.6346 77.6631 44.1375ZM250.141 43.3598H246.726V37.5302H250.501L250.141 43.3598Z" fill="#E1E2E1"/>
<path d="M246.726 43.3598H243.653V39.5441C243.653 39.2196 243.381 38.9557 243.045 38.9557C242.708 38.9557 242.436 39.2196 242.436 39.5441V43.3598H160.591L158.452 37.5302H246.726V43.3598ZM138.565 43.3598H113.713L111.574 37.5302H136.426L138.565 43.3598ZM105.126 43.3598H86.624V37.5302H102.987L105.126 43.3598Z" fill="#E7E7E6"/>
<path d="M160.59 43.3598H138.565L136.426 37.5302H158.451L160.59 43.3598Z" fill="#E8E9E8"/>
<path d="M243.652 43.3599H242.436V39.5441C242.436 39.2196 242.707 38.9557 243.044 38.9557C243.38 38.9557 243.652 39.2196 243.652 39.5441V43.3599Z" fill="#E1E2E1"/>
<path d="M113.713 43.3598H105.126L102.987 37.5302H111.575L113.713 43.3598Z" fill="#E8E9E8"/>
<path d="M86.624 43.3598H85.6133V37.5302H86.624V43.3598Z" fill="#DBDCDB"/>
<path d="M76.0034 107.823H75.7832L75.8648 106.494L76.0034 107.823Z" fill="#E9E9E8"/>
<path d="M77.6626 127.303H75.7832L76.5144 115.453H76.7961L77.6626 123.784V127.303Z" fill="#E9E9E8"/>
<path d="M78.0298 127.303H77.6631V123.784L78.0298 127.303Z" fill="#E1E2E1"/>
<path d="M77.6626 146.783H75.7832L76.5144 134.932H77.6626V146.783Z" fill="#E9E9E8"/>
<path d="M80.0556 146.783H77.6631V134.932H78.8224L80.0556 146.783Z" fill="#E1E2E1"/>
<path d="M474.796 111.717H336.937V51.9658H474.796V111.717Z" fill="#EFEEED"/>
<path d="M474.796 54.0608H336.937V51.9658H474.796V54.0608Z" fill="#D8D9D9"/>
<path d="M474.796 111.717H336.937V109.622H474.796V111.717Z" fill="#D8D9D9"/>
<path d="M403.703 354.153L401.767 111.717H409.965L408.029 354.153H403.703Z" fill="#E5E5E4"/>
<path d="M345.061 354.153L418.66 111.717H426.858L349.386 354.153H345.061Z" fill="#E5E5E4"/>
<path d="M466.67 354.153L393.072 111.717H384.874L462.346 354.153H466.67Z" fill="#E5E5E4"/>
<path d="M90.8115 358.293H98.7415V256.86H90.8115V358.293Z" fill="#E0E0DF"/>
<path d="M88.3096 358.293H93.8168V256.86H88.3096V358.293Z" fill="#E9EAE9"/>
<path d="M261.846 266.287H86.5068V252.147H261.846V266.287Z" fill="#E9EAE9"/>
<path d="M257.328 353.579H265.259V266.287H257.328V353.579Z" fill="#E0E0DF"/>
<path d="M254.826 353.579H260.333V266.287H254.826V353.579Z" fill="#E9EAE9"/>
<path d="M313.776 353.579H321.706V266.287H313.776V353.579Z" fill="#E0E0DF"/>
<path d="M311.273 353.579H316.782V266.287H311.273V353.579Z" fill="#E9EAE9"/>
<path d="M140.996 353.579H148.926V266.287H140.996V353.579Z" fill="#E0E0DF"/>
<path d="M138.493 353.579H144V266.287H138.493V353.579Z" fill="#E9EAE9"/>
<path d="M261.846 266.287H323.51V252.147H261.846V266.287Z" fill="#E0E0DF"/>
<path d="M224.923 241.591H148.927V252.147H224.923V241.591Z" fill="#E5E5E4"/>
<path d="M224.923 241.591H262.128V252.147H224.923V241.591Z" fill="#D8D9D9"/>
<path d="M234.536 243.88H252.512C253.365 243.88 254.056 244.55 254.056 245.375C254.056 246.199 253.365 246.869 252.512 246.869H234.536C233.684 246.869 232.992 246.199 232.992 245.375C232.992 244.55 233.684 243.88 234.536 243.88Z" fill="#EFEEED"/>
<path d="M189.677 234.006H174.365V241.591H189.677V234.006Z" fill="#EFEEED"/>
<path d="M182.576 234.006H181.467V230.839H182.576V234.006Z" fill="#E0E0DF"/>
<path d="M203.324 236.904H202.215V235.321H203.324V236.904Z" fill="#E0E0DF"/>
<path d="M212.089 236.904H193.45V241.591H212.089V236.904Z" fill="#E9EAE9"/>
<path d="M496.268 390.753C496.268 397.518 399.219 403 279.5 403C159.783 403 62.7324 397.518 62.7324 390.753C62.7324 383.989 159.783 378.506 279.5 378.506C399.219 378.506 496.268 383.989 496.268 390.753Z" fill="#EFEEED"/>
<path d="M255.669 40.657H247.843V39.5754H255.669V40.657Z" fill="#4278BB"/>
<path d="M240.614 40.657H202.57V39.5754H240.614V40.657Z" fill="#4278BB"/>
<path d="M448.832 191.01H97.3751C90.3787 191.01 84.0788 185.473 83.3744 178.704L70.5789 55.6659C69.8757 48.8975 75.0241 43.3599 82.0194 43.3599H433.476C440.471 43.3599 446.771 48.8975 447.476 55.6659L460.271 178.704C460.976 185.473 455.827 191.01 448.832 191.01Z" fill="#4278BB"/>
<path d="M147.695 181.781H105.427C98.7868 181.781 92.8066 176.525 92.1392 170.101L81.1325 64.2697C80.4639 57.8452 85.3507 52.5899 91.9905 52.5899H134.259C140.899 52.5899 146.879 57.8452 147.547 64.2697L158.553 170.101C159.221 176.525 154.335 181.781 147.695 181.781Z" fill="#6D9BD1"/>
<path d="M221.603 186.12H177.002C169.995 186.12 163.685 180.573 162.98 173.794L151.206 60.5762C150.501 53.798 155.657 48.2518 162.665 48.2518H207.266C214.273 48.2518 220.583 53.798 221.287 60.5762L233.062 173.794C233.767 180.573 228.611 186.12 221.603 186.12Z" fill="#FEFEFE"/>
<path d="M290.577 181.781H250.01C243.37 181.781 237.39 176.525 236.721 170.101L234.046 144.377L245.282 151.81C244.704 152.168 244.358 152.819 244.435 153.56L244.872 157.769C244.99 158.889 246.033 159.807 247.193 159.807H257.367L290.577 181.781ZM303.058 173.009L278.62 159.807H290.524C291.682 159.807 292.536 158.889 292.42 157.769L291.982 153.56C291.865 152.438 290.821 151.52 289.662 151.52H263.283L233.093 135.21L225.715 64.2697C225.047 57.8452 229.934 52.5899 236.574 52.5899H278.842C285.482 52.5899 291.462 57.8452 292.129 64.2697L303.136 170.101C303.24 171.104 303.21 172.079 303.058 173.009Z" fill="#6D9BD1"/>
<path d="M362.245 181.781H322.3C322.032 181.781 321.765 181.773 321.499 181.756C324.819 179.577 328.077 177.319 331.293 174.972C333.846 173.102 336.375 171.201 338.873 169.15L340.757 167.576C341.4 166.997 342.005 166.477 342.666 165.833L343.656 164.846L344.505 163.911C345.052 163.291 345.641 162.672 346.152 162.047C346.782 161.304 347.4 160.557 348.005 159.807H359.84C360.344 166.185 361.121 173.471 362.245 181.781ZM313.946 178.792C311.253 176.649 309.371 173.543 309.013 170.101L298.006 64.2697C297.339 57.8452 302.225 52.5899 308.865 52.5899H351.133C357.773 52.5899 363.753 57.8452 364.42 64.2697L369.69 114.938C366.676 115.452 364.285 116.027 363.394 116.251C359.3 116.929 355.228 119.599 353.083 124.663C349.297 133.612 340.093 146.655 340.093 146.655L342.215 148.207C341.475 149.324 340.728 150.43 339.973 151.52H318.621C317.462 151.52 316.609 152.438 316.725 153.56L317.163 157.769C317.28 158.889 318.324 159.807 319.483 159.807H333.544C332.955 160.429 332.328 161.068 331.704 161.702C329.575 163.808 327.354 165.93 325.129 168.051C321.406 171.591 317.647 175.163 313.946 178.792ZM334.536 95.6296C334.516 95.6296 334.496 95.6307 334.475 95.6329C334.209 95.6588 334.014 95.8892 334.042 96.1477L334.301 98.6418C334.326 98.884 334.537 99.0647 334.783 99.0647L334.832 99.0614C335.098 99.0355 335.293 98.8062 335.266 98.5477L335.007 96.0536C334.982 95.8156 334.774 95.6296 334.536 95.6296ZM340.215 93.2513C340.083 93.2513 339.951 93.3032 339.855 93.4048C339.675 93.5974 339.69 93.8937 339.889 94.0678L341.896 95.8319C341.988 95.9141 342.106 95.9541 342.222 95.9541C342.354 95.9541 342.486 95.9022 342.581 95.8005C342.761 95.608 342.746 95.3106 342.549 95.1364L340.542 93.3735C340.448 93.2913 340.332 93.2513 340.215 93.2513ZM328.338 93.2502C328.206 93.2502 328.073 93.3032 327.977 93.407L326.338 95.171C326.158 95.3636 326.174 95.6599 326.373 95.833C326.466 95.9141 326.582 95.9541 326.698 95.9541C326.831 95.9541 326.963 95.9022 327.059 95.7983L328.699 94.0343C328.878 93.8418 328.861 93.5444 328.662 93.3713C328.57 93.2902 328.454 93.2502 328.338 93.2502ZM333.108 82.4984C329.981 82.4984 327.702 84.9503 328.017 87.9743C328.331 90.9994 331.12 93.4513 334.247 93.4513C337.374 93.4513 339.654 90.9994 339.339 87.9743C339.025 84.9503 336.235 82.4984 333.108 82.4984ZM342.078 87.506C341.81 87.506 341.593 87.7158 341.593 87.9754C341.593 88.235 341.81 88.4448 342.078 88.4448H344.656C344.924 88.4448 345.141 88.235 345.141 87.9754C345.141 87.7158 344.924 87.506 344.656 87.506H342.078ZM322.702 87.506C322.433 87.506 322.217 87.7158 322.217 87.9754C322.217 88.235 322.433 88.4448 322.702 88.4448H325.28C325.548 88.4448 325.765 88.235 325.765 87.9754C325.765 87.7158 325.548 87.506 325.28 87.506H322.702ZM340.66 79.9967C340.527 79.9967 340.395 80.0486 340.299 80.1525L338.659 81.9165C338.48 82.109 338.497 82.4064 338.696 82.5795C338.788 82.6595 338.904 82.6995 339.02 82.6995C339.152 82.6995 339.285 82.6476 339.381 82.5438L341.02 80.7798C341.2 80.5872 341.183 80.2898 340.984 80.1168C340.892 80.0356 340.775 79.9967 340.66 79.9967ZM325.136 79.9967C325.004 79.9967 324.873 80.0486 324.777 80.1503C324.597 80.3428 324.611 80.6392 324.809 80.8133L326.816 82.5773C326.91 82.6595 327.026 82.6995 327.143 82.6995C327.274 82.6995 327.406 82.6476 327.503 82.5459C327.683 82.3534 327.667 82.0571 327.469 81.8829L325.462 80.1189C325.369 80.0367 325.252 79.9967 325.136 79.9967ZM332.588 76.884C332.568 76.884 332.547 76.8861 332.526 76.8883C332.26 76.9142 332.065 77.1446 332.092 77.402L332.351 79.8972C332.376 80.1395 332.587 80.3201 332.833 80.3201L332.882 80.3168C333.148 80.2909 333.344 80.0616 333.316 79.8031L333.057 77.309C333.032 77.0722 332.823 76.884 332.588 76.884ZM359.304 151.52H358.121C358.483 151.131 358.86 150.723 359.247 150.298C359.265 150.701 359.284 151.108 359.304 151.52Z" fill="#5F8DC8"/>
<path d="M436.86 181.781H415.242C418.059 179.299 420.698 176.618 423.173 173.598C425.126 171.136 427.017 168.566 428.372 164.974C428.863 163.554 429.349 161.885 429.235 159.807H435.107C436.265 159.807 437.118 158.889 437.002 157.769L436.565 153.56C436.447 152.438 435.404 151.52 434.245 151.52H426.733C425.802 149.153 424.801 146.843 423.753 144.57L424.77 143.927C424.77 143.927 415.864 117.624 408.289 115.944C408.043 115.889 407.8 115.844 407.558 115.808C405.522 115.443 399.557 114.444 393.821 114.176C393.598 114.167 393.371 114.156 393.139 114.146C393.473 112.565 393.453 111.134 392.028 110.715C391.523 110.566 390.502 110.464 389.189 110.42C387.752 105.589 388.63 98.5044 389.51 94.163L378.683 101.822C379.515 105.038 379.069 108.288 376.818 111.468C376.234 111.617 375.708 111.783 375.258 111.968L370.297 64.2697C369.63 57.8452 374.516 52.5899 381.156 52.5899H423.424C430.065 52.5899 436.044 57.8452 436.712 64.2697L447.719 170.101C448.386 176.525 443.501 181.781 436.86 181.781ZM410.492 92.2486C410.29 92.2486 410.09 92.3276 409.944 92.4844L405.519 97.2444C405.247 97.5375 405.272 97.9874 405.574 98.2502C405.714 98.3725 405.89 98.433 406.066 98.433C406.268 98.433 406.468 98.3541 406.613 98.1972L411.04 93.4373C411.311 93.1442 411.287 92.6943 410.984 92.4303C410.844 92.3092 410.667 92.2486 410.492 92.2486ZM405.274 92.2486C405.073 92.2486 404.873 92.3276 404.727 92.4844L400.301 97.2444C400.029 97.5375 400.054 97.9874 400.357 98.2502C400.498 98.3725 400.673 98.433 400.849 98.433C401.05 98.433 401.25 98.3541 401.397 98.1972L405.822 93.4373C406.093 93.1442 406.069 92.6943 405.767 92.4303C405.626 92.3092 405.449 92.2486 405.274 92.2486ZM400.057 92.2486C399.856 92.2486 399.656 92.3276 399.51 92.4844L395.085 97.2444C394.813 97.5375 394.837 97.9874 395.139 98.2502C395.28 98.3725 395.456 98.433 395.631 98.433C395.834 98.433 396.034 98.3541 396.179 98.1972L400.605 93.4373C400.877 93.1442 400.852 92.6943 400.549 92.4303C400.408 92.3092 400.233 92.2486 400.057 92.2486ZM402.467 74.4559C399.375 74.4559 397.01 76.5541 396.659 79.3575C393.77 79.5392 391.712 81.8765 392.009 84.735C392.319 87.7115 395.064 90.1245 398.141 90.1245H415.869C418.049 90.1245 419.64 88.4145 419.42 86.3044C419.251 84.6734 418.049 83.2825 416.507 82.7341C416.186 79.8918 413.559 77.5956 410.616 77.5956C409.907 77.5956 409.245 77.7298 408.65 77.972C407.383 75.8911 405.024 74.4559 402.467 74.4559ZM405.735 181.338C405.566 177.038 404.943 169.35 404.754 159.807H417.953L418.057 160.053L418.251 160.513C418.28 160.58 418.288 160.599 418.289 160.599C418.29 160.599 418.287 160.59 418.286 160.583L418.291 160.547C418.296 160.532 418.303 160.526 418.31 160.526C418.371 160.526 418.44 161.176 418.244 161.983C418.047 162.886 417.633 163.968 417.116 165.057C416.607 166.159 415.999 167.294 415.323 168.422C412.945 172.389 409.999 176.4 406.988 180.266L405.735 181.338ZM414.073 151.52H412.772L413.755 150.899C413.861 151.106 413.968 151.313 414.073 151.52ZM411.416 151.52H404.716C404.752 148.293 404.853 144.932 405.045 141.475C407.808 146.048 410.437 150.046 411.416 151.52Z" fill="#4F82C2"/>
<path d="M274.16 87.2421C273.788 83.9466 270.743 81.2848 267.331 81.2848C266.508 81.2848 265.74 81.4406 265.051 81.7218C263.58 79.3077 260.845 77.6443 257.882 77.6443C254.297 77.6443 251.554 80.0767 251.147 83.3279C247.797 83.5377 245.411 86.2481 245.756 89.562C246.116 93.0133 249.298 95.8113 252.866 95.8113H273.421C275.949 95.8113 277.793 93.8277 277.538 91.3812C277.341 89.4906 275.95 87.877 274.16 87.2421Z" fill="#FEFEFE"/>
<path d="M202.933 76.7174C202.5 72.8692 198.942 69.7586 194.955 69.7586C193.995 69.7586 193.098 69.9403 192.293 70.2691C190.575 67.4495 187.381 65.507 183.917 65.507C179.73 65.507 176.527 68.3483 176.051 72.1457C172.139 72.3912 169.352 75.5558 169.754 79.4289C170.174 83.4599 173.892 86.7284 178.059 86.7284H202.069C205.023 86.7284 207.177 84.4106 206.88 81.5531C206.651 79.3445 205.024 77.4604 202.933 76.7174Z" fill="#4278BB"/>
<path d="M181.727 97.982C181.49 97.982 181.252 97.8998 181.062 97.7343C180.651 97.3785 180.618 96.7685 180.987 96.3715L187.215 89.6723C187.584 89.2765 188.213 89.243 188.623 89.5999C189.033 89.9557 189.066 90.5657 188.697 90.9616L182.469 97.6618C182.272 97.8738 182.001 97.982 181.727 97.982Z" fill="#4278BB"/>
<path d="M188.792 97.982C188.555 97.982 188.317 97.8998 188.127 97.7343C187.717 97.3774 187.683 96.7685 188.052 96.3715L194.28 89.6723C194.649 89.2765 195.279 89.243 195.689 89.5999C196.098 89.9557 196.132 90.5657 195.764 90.9616L189.535 97.6618C189.338 97.8738 189.065 97.982 188.792 97.982Z" fill="#4278BB"/>
<path d="M174.661 97.982C174.424 97.982 174.185 97.8998 173.994 97.7343C173.585 97.3774 173.552 96.7685 173.919 96.3715L180.149 89.6723C180.518 89.2765 181.147 89.243 181.558 89.5999C181.967 89.9557 182 90.5657 181.631 90.9616L175.403 97.6618C175.205 97.8738 174.933 97.982 174.661 97.982Z" fill="#4278BB"/>
<path d="M415.869 90.1245H398.141C395.065 90.1245 392.319 87.7115 392.009 84.735C391.712 81.8765 393.77 79.5392 396.659 79.3575C397.01 76.5541 399.376 74.4559 402.467 74.4559C405.024 74.4559 407.383 75.8911 408.65 77.972C409.245 77.7298 409.907 77.5956 410.616 77.5956C413.56 77.5956 416.186 79.8918 416.507 82.7341C418.049 83.2825 419.251 84.6734 419.42 86.3044C419.64 88.4145 418.049 90.1245 415.869 90.1245Z" fill="#86B0DD"/>
<path d="M400.849 98.433C400.673 98.433 400.498 98.3725 400.357 98.2503C400.054 97.9874 400.029 97.5375 400.301 97.2444L404.727 92.4844C404.872 92.3276 405.072 92.2487 405.274 92.2487C405.449 92.2487 405.626 92.3092 405.767 92.4304C406.069 92.6943 406.093 93.1442 405.822 93.4373L401.397 98.1973C401.25 98.3541 401.05 98.433 400.849 98.433Z" fill="#86B0DD"/>
<path d="M406.066 98.433C405.89 98.433 405.714 98.3725 405.574 98.2503C405.272 97.9874 405.247 97.5375 405.519 97.2444L409.944 92.4844C410.09 92.3276 410.29 92.2487 410.492 92.2487C410.667 92.2487 410.844 92.3092 410.984 92.4304C411.287 92.6943 411.311 93.1442 411.039 93.4373L406.613 98.1973C406.468 98.3541 406.268 98.433 406.066 98.433Z" fill="#86B0DD"/>
<path d="M395.631 98.433C395.455 98.433 395.28 98.3725 395.139 98.2503C394.837 97.9874 394.813 97.5375 395.084 97.2444L399.509 92.4844C399.656 92.3276 399.856 92.2487 400.057 92.2487C400.233 92.2487 400.408 92.3092 400.549 92.4304C400.852 92.6943 400.877 93.1442 400.605 93.4373L396.179 98.1973C396.033 98.3541 395.833 98.433 395.631 98.433Z" fill="#86B0DD"/>
<path d="M334.247 93.4513C331.12 93.4513 328.331 90.9994 328.016 87.9743C327.701 84.9503 329.981 82.4984 333.108 82.4984C336.235 82.4984 339.024 84.9503 339.338 87.9743C339.654 90.9994 337.374 93.4513 334.247 93.4513Z" fill="#C2D7EF"/>
<path d="M334.783 99.0646C334.537 99.0646 334.326 98.884 334.301 98.6417L334.042 96.1477C334.014 95.8892 334.209 95.6588 334.476 95.6328C334.496 95.6307 334.516 95.6296 334.536 95.6296C334.774 95.6296 334.982 95.8156 335.007 96.0535L335.266 98.5476C335.293 98.8061 335.098 99.0354 334.832 99.0614L334.783 99.0646Z" fill="#C2D7EF"/>
<path d="M332.834 80.3201C332.588 80.3201 332.376 80.1395 332.352 79.8972L332.092 77.402C332.065 77.1446 332.26 76.9143 332.526 76.8883C332.547 76.8861 332.569 76.884 332.589 76.884C332.823 76.884 333.033 77.0722 333.057 77.309L333.317 79.8031C333.344 80.0616 333.149 80.2909 332.883 80.3169L332.834 80.3201Z" fill="#C2D7EF"/>
<path d="M325.28 88.4448H322.702C322.434 88.4448 322.217 88.235 322.217 87.9754C322.217 87.7158 322.434 87.506 322.702 87.506H325.28C325.548 87.506 325.765 87.7158 325.765 87.9754C325.765 88.235 325.548 88.4448 325.28 88.4448Z" fill="#C2D7EF"/>
<path d="M344.656 88.4448H342.078C341.81 88.4448 341.593 88.235 341.593 87.9754C341.593 87.7158 341.81 87.506 342.078 87.506H344.656C344.924 87.506 345.141 87.7158 345.141 87.9754C345.141 88.235 344.924 88.4448 344.656 88.4448Z" fill="#C2D7EF"/>
<path d="M342.222 95.954C342.106 95.954 341.989 95.914 341.896 95.8318L339.889 94.0678C339.69 93.8937 339.675 93.5973 339.855 93.4048C339.952 93.3031 340.084 93.2512 340.215 93.2512C340.332 93.2512 340.448 93.2912 340.542 93.3734L342.549 95.1364C342.747 95.3105 342.761 95.6079 342.581 95.8005C342.486 95.9021 342.354 95.954 342.222 95.954Z" fill="#C2D7EF"/>
<path d="M327.142 82.6995C327.026 82.6995 326.91 82.6595 326.816 82.5773L324.809 80.8133C324.611 80.6392 324.596 80.3428 324.776 80.1503C324.873 80.0486 325.003 79.9967 325.135 79.9967C325.252 79.9967 325.369 80.0367 325.462 80.1189L327.469 81.883C327.666 82.0571 327.682 82.3534 327.502 82.546C327.406 82.6476 327.274 82.6995 327.142 82.6995Z" fill="#C2D7EF"/>
<path d="M326.698 95.9541C326.583 95.9541 326.466 95.9141 326.374 95.833C326.175 95.6599 326.158 95.3636 326.338 95.171L327.977 93.407C328.073 93.3032 328.206 93.2502 328.338 93.2502C328.454 93.2502 328.57 93.2902 328.662 93.3713C328.861 93.5444 328.878 93.8418 328.699 94.0343L327.059 95.7983C326.963 95.9022 326.831 95.9541 326.698 95.9541Z" fill="#C2D7EF"/>
<path d="M339.02 82.6995C338.904 82.6995 338.788 82.6595 338.696 82.5795C338.497 82.4064 338.48 82.109 338.659 81.9165L340.299 80.1525C340.395 80.0486 340.527 79.9967 340.66 79.9967C340.775 79.9967 340.892 80.0356 340.985 80.1168C341.184 80.2898 341.2 80.5872 341.02 80.7798L339.381 82.5438C339.285 82.6476 339.152 82.6995 339.02 82.6995Z" fill="#C2D7EF"/>
<path d="M127.78 86.5261C127.465 83.7216 124.871 81.4546 121.966 81.4546C121.265 81.4546 120.612 81.5876 120.025 81.8256C118.773 79.7706 116.444 78.3549 113.921 78.3549C110.869 78.3549 108.533 80.426 108.188 83.1938C105.336 83.3722 103.305 85.6792 103.599 88.5021C103.904 91.4407 106.614 93.8223 109.651 93.8223H127.15C129.304 93.8223 130.873 92.134 130.656 90.0509C130.49 88.4415 129.304 87.0679 127.78 86.5261Z" fill="#FEFEFE"/>
<path d="M110.341 77.4972C108.597 78.3506 107.276 79.854 106.724 81.7261C105.497 82.0138 104.448 82.6217 103.634 83.4512C102.612 82.6044 101.911 81.406 101.773 80.0757C101.504 77.4972 103.452 75.4109 106.109 75.4109C107.79 75.4109 109.354 76.2404 110.341 77.4972Z" fill="#FEFEFE"/>
<path d="M105.877 73.5549C105.667 73.5549 105.488 73.4013 105.467 73.1958L105.245 71.0717C105.222 70.8521 105.387 70.6563 105.614 70.6347C105.848 70.6044 106.045 70.7721 106.067 70.9916L106.288 73.1158C106.311 73.3354 106.145 73.5311 105.918 73.5528L105.877 73.5549Z" fill="#FEFEFE"/>
<path d="M99.4462 80.4726H97.2504C97.0224 80.4726 96.8379 80.2942 96.8379 80.0735C96.8379 79.8529 97.0224 79.6733 97.2504 79.6733H99.4462C99.6743 79.6733 99.8587 79.8529 99.8587 80.0735C99.8587 80.2942 99.6743 80.4726 99.4462 80.4726Z" fill="#FEFEFE"/>
<path d="M101.031 75.5818L100.754 75.4779L99.0444 73.9756C98.8756 73.8275 98.8633 73.5744 99.0164 73.4111C99.1707 73.2477 99.4323 73.2348 99.6 73.384L101.309 74.8863C101.478 75.0345 101.491 75.2876 101.337 75.4509C101.256 75.5374 101.144 75.5818 101.031 75.5818Z" fill="#FEFEFE"/>
<path d="M100.652 86.8657L100.376 86.7641C100.206 86.6159 100.193 86.3639 100.345 86.1995L101.741 84.6972C101.896 84.5339 102.156 84.5198 102.325 84.6669C102.495 84.8151 102.509 85.0671 102.356 85.2315L100.96 86.7338C100.878 86.8214 100.765 86.8657 100.652 86.8657Z" fill="#FEFEFE"/>
<path d="M111.144 75.5818L110.867 75.479C110.698 75.3308 110.684 75.0788 110.836 74.9144L112.233 73.4132C112.387 73.2488 112.646 73.2348 112.816 73.3829C112.986 73.53 112.999 73.7831 112.847 73.9475L111.451 75.4487C111.369 75.5363 111.257 75.5818 111.144 75.5818Z" fill="#FEFEFE"/>
<path d="M145.941 159.807H102.611C101.451 159.807 100.407 158.889 100.291 157.769L99.8524 153.56C99.7361 152.438 100.589 151.52 101.749 151.52H145.079C146.238 151.52 147.282 152.438 147.399 153.56L147.837 157.769C147.953 158.889 147.1 159.807 145.941 159.807Z" fill="#FEFEFE"/>
<path d="M220.542 161.659H172.976C171.703 161.659 170.557 160.652 170.429 159.42L169.949 154.801C169.821 153.57 170.758 152.563 172.03 152.563H219.595C220.869 152.563 222.015 153.57 222.142 154.801L222.623 159.42C222.751 160.652 221.814 161.659 220.542 161.659Z" fill="#4278BB"/>
<path d="M290.524 159.807H247.194C246.033 159.807 244.99 158.889 244.873 157.769L244.435 153.56C244.319 152.438 245.172 151.52 246.332 151.52H289.662C290.821 151.52 291.865 152.438 291.982 153.56L292.42 157.769C292.536 158.889 291.682 159.807 290.524 159.807Z" fill="#FEFEFE"/>
<path d="M359.839 159.807H348.005C349.263 158.25 350.47 156.678 351.641 155.096L353.403 156.384C353.403 156.384 355.367 154.483 358.121 151.52H359.304C359.429 154.097 359.604 156.856 359.839 159.807ZM333.544 159.807H319.483C318.323 159.807 317.279 158.889 317.163 157.769L316.724 153.56C316.608 152.438 317.461 151.52 318.621 151.52H339.972C339.072 152.82 338.161 154.099 337.235 155.348C336.808 155.951 336.357 156.484 335.919 157.057L335.264 157.891L334.661 158.597C334.312 158.989 333.936 159.394 333.544 159.807Z" fill="#C2D7EF"/>
<path d="M435.107 159.807H429.235C429.204 159.241 429.128 158.644 428.995 158.012C428.955 157.832 428.901 157.645 428.849 157.464L428.715 157.029L428.532 156.486L428.165 155.4C427.925 154.669 427.67 153.955 427.4 153.257C427.182 152.674 426.96 152.096 426.733 151.52H434.245C435.404 151.52 436.447 152.438 436.564 153.56L437.002 157.769C437.118 158.889 436.265 159.807 435.107 159.807ZM417.953 159.807H404.754C404.719 158.058 404.699 156.248 404.699 154.384C404.699 153.443 404.705 152.487 404.716 151.52H411.416C411.674 151.911 411.819 152.124 411.819 152.124L412.772 151.52H414.073C415.05 153.447 415.985 155.375 416.859 157.299C417.152 157.915 417.421 158.528 417.669 159.137L417.953 159.807Z" fill="#86B0DD"/>
<path d="M411.465 121.872C414.604 126.897 417.426 131.918 420.12 137.121C422.774 142.33 425.288 147.618 427.4 153.257C427.67 153.955 427.925 154.669 428.165 155.4L428.532 156.486L428.715 157.029L428.849 157.464C428.901 157.645 428.955 157.832 428.995 158.012C429.615 160.956 428.997 163.167 428.372 164.974C427.017 168.566 425.126 171.136 423.173 173.598C419.205 178.438 414.819 182.408 409.954 186.083L405.731 181.867C409.169 177.514 412.614 172.94 415.323 168.422C415.999 167.294 416.607 166.159 417.116 165.057C417.633 163.968 418.047 162.886 418.244 161.984C418.46 161.091 418.355 160.393 418.291 160.547L418.286 160.583C418.29 160.602 418.298 160.624 418.251 160.513L418.057 160.053L417.669 159.137C417.421 158.528 417.152 157.915 416.859 157.299C414.625 152.376 411.983 147.435 409.274 142.536C406.57 137.644 403.733 132.7 400.932 127.919L411.465 121.872Z" fill="#F38982"/>
<path d="M407.337 179.968L400.976 185.408L409.828 190.811C409.828 190.811 412.434 186.726 412.32 182.942L407.337 179.968Z" fill="#F38982"/>
<path d="M398.642 193.471L405.426 197.686L409.827 190.811L400.975 185.408L398.642 193.471Z" fill="#F38982"/>
<path d="M374.181 86.6743C374.058 87.2929 373.618 87.732 373.199 87.6542C372.781 87.5752 372.543 87.0096 372.666 86.3898C372.79 85.7712 373.23 85.3331 373.648 85.4121C374.066 85.49 374.305 86.0556 374.181 86.6743Z" fill="#2C3D43"/>
<path d="M373.677 87.7429C373.677 87.7429 371.507 91.0416 369.561 92.465C370.487 93.699 372.505 93.592 372.505 93.592L373.677 87.7429Z" fill="#F06868"/>
<path d="M377.212 83.6762L377.471 83.5745C377.626 83.435 377.632 83.2003 377.487 83.0521C376.036 81.5596 374.294 81.8429 374.219 81.8559C374.011 81.8916 373.873 82.0841 373.911 82.2853C373.947 82.4865 374.15 82.6195 374.353 82.5849C374.41 82.5752 375.772 82.3697 376.93 83.5594C377.006 83.6372 377.109 83.6762 377.212 83.6762Z" fill="#2C3D43"/>
<path d="M389.51 94.163C388.35 99.8812 387.194 110.361 391.33 114.176C391.33 114.176 389.714 119.978 378.729 119.978C366.651 119.978 373.424 115.07 373.424 115.07C378.542 110.772 379.831 106.265 378.683 101.822L389.51 94.163Z" fill="#F38982"/>
<path d="M392.682 115.895C393.3 113.745 393.973 111.286 392.028 110.715C389.887 110.086 378.528 110.287 374.789 112.18C371.052 114.074 372.568 118.18 372.568 118.18L392.682 115.895Z" fill="#2C3D43"/>
<path d="M430.592 378.094L430.367 378.165C430.215 378.235 430.12 378.338 430.077 378.481C429.974 378.815 430.101 378.919 430.144 378.954C430.578 379.312 432.192 378.982 433.328 378.543C432.558 378.279 431.31 377.943 430.592 378.094ZM431.907 379.343C431.096 379.513 430.286 379.557 429.895 379.236C429.731 379.101 429.567 378.842 429.71 378.375C429.785 378.131 429.95 377.948 430.202 377.831C431.293 377.328 433.801 378.317 433.908 378.359L434.026 378.524L433.918 378.696C433.535 378.875 432.721 379.172 431.907 379.343Z" fill="#4278BB"/>
<path d="M431.589 375.947L431.505 375.97C431.268 376.05 431.271 376.161 431.272 376.209C431.286 376.734 432.576 377.787 433.522 378.214C433.286 377.59 432.746 376.357 432.054 376.016C431.895 375.937 431.742 375.914 431.589 375.947ZM433.876 378.71L433.781 378.707C432.868 378.45 430.913 377.106 430.89 376.218C430.885 376.058 430.942 375.766 431.38 375.619C431.662 375.525 431.946 375.547 432.227 375.686C433.307 376.218 433.99 378.384 434.018 378.476L433.971 378.659L433.876 378.71Z" fill="#4278BB"/>
<path d="M371.045 381.656C370.911 381.656 370.785 381.668 370.675 381.699C370.499 381.745 370.376 381.83 370.3 381.957C370.165 382.188 370.214 382.301 370.263 382.367C370.639 382.872 372.682 382.883 374.184 382.679C373.435 382.305 371.99 381.656 371.045 381.656ZM372.327 383.172C371.29 383.172 370.288 383.033 369.953 382.583C369.835 382.424 369.742 382.156 369.968 381.773C370.095 381.559 370.299 381.413 370.574 381.341C371.92 380.986 374.743 382.544 374.864 382.61L374.957 382.801L374.806 382.952C374.29 383.053 373.293 383.172 372.327 383.172Z" fill="#4278BB"/>
<path d="M372.797 379.786L372.682 379.793C372.338 379.826 372.316 379.957 372.309 380.001C372.221 380.532 373.533 381.86 374.528 382.438C374.424 381.823 374.137 380.564 373.462 380.028C373.258 379.865 373.04 379.786 372.797 379.786ZM374.768 382.956L374.69 382.939C373.715 382.515 371.782 380.826 371.931 379.942C371.966 379.733 372.118 379.476 372.643 379.424C373.037 379.385 373.391 379.493 373.705 379.741C374.733 380.559 374.95 382.663 374.96 382.753L374.88 382.921L374.768 382.956Z" fill="#4278BB"/>
<path d="M383.654 382.77H375.574L374.769 364.667H382.849L383.654 382.77Z" fill="#F38982"/>
<path d="M442.883 376.634L434.985 378.288L427.055 361.426L434.953 359.771L442.883 376.634Z" fill="#F38982"/>
<path d="M434.225 377.521L443.099 375.664C443.422 375.595 443.75 375.754 443.888 376.043L446.967 382.509C447.287 383.179 446.864 383.966 446.115 384.109C443.006 384.706 441.462 384.846 437.56 385.664C435.159 386.165 429.74 387.443 426.425 388.138C423.183 388.817 421.968 385.752 423.26 385.18C429.057 382.618 431.48 380.362 433.048 378.259C433.332 377.88 433.754 377.62 434.225 377.521Z" fill="#2C3D43"/>
<path d="M375.627 381.865H384.452C384.782 381.865 385.068 382.088 385.14 382.399L386.735 389.349C386.9 390.069 386.336 390.751 385.572 390.738C382.389 390.686 377.79 390.506 373.789 390.506C369.11 390.506 369.19 390.753 363.703 390.753C360.386 390.753 359.466 387.509 360.854 387.215C367.176 385.877 368.218 385.733 373.68 382.474C374.274 382.12 374.929 381.865 375.627 381.865Z" fill="#2C3D43"/>
<path d="M367.334 130.633C364.25 136.156 361.004 141.431 357.529 146.683C354.027 151.909 350.386 157.055 346.152 162.047C345.641 162.672 345.052 163.291 344.505 163.911L343.657 164.846L342.666 165.833C342.006 166.477 341.401 166.997 340.758 167.576L338.873 169.15C336.375 171.201 333.846 173.102 331.293 174.972C326.184 178.701 320.967 182.205 315.563 185.524L311.756 180.954C316.159 176.579 320.67 172.292 325.129 168.051C327.354 165.93 329.576 163.808 331.704 161.702C332.744 160.647 333.789 159.576 334.661 158.597L335.265 157.891L335.92 157.057C336.357 156.484 336.809 155.951 337.236 155.348C340.71 150.66 343.986 145.568 347.182 140.443C350.373 135.322 353.543 130.072 356.602 124.922L367.334 130.633Z" fill="#F38982"/>
<path d="M408.289 115.943C415.864 117.624 424.77 143.927 424.77 143.927L411.819 152.124C411.819 152.124 403.575 139.887 399.291 131.161C394.802 122.019 400.546 114.226 408.289 115.943Z" fill="#4278BB"/>
<path d="M411.819 152.124C411.819 152.124 408.541 147.259 405.045 141.475C405.045 141.472 405.045 141.47 405.045 141.465C405.548 142.297 406.044 143.109 406.527 143.891C407.393 139.544 406.751 135.546 405.724 132.724C406.279 127.205 407.102 121.556 408.289 115.944C408.289 115.944 408.029 115.893 407.558 115.808C407.8 115.844 408.043 115.889 408.289 115.944C415.864 117.624 424.77 143.927 424.77 143.927L423.754 144.57L413.755 150.899L411.819 152.124Z" fill="#B4CFEC"/>
<path d="M406.527 143.891C406.044 143.109 405.548 142.297 405.045 141.465C405.204 138.605 405.425 135.683 405.724 132.724C406.751 135.546 407.393 139.544 406.527 143.891Z" fill="#73A1D5"/>
<path d="M363.018 116.347C363.018 116.347 354.416 125.746 362.539 183.916C375.562 183.916 399.424 183.916 405.761 183.916C406.058 177.498 401.891 146.187 408.289 115.944C408.289 115.944 400.881 114.506 393.821 114.176C388.298 113.919 380.302 113.748 375.447 114.177C369.046 114.742 363.018 116.347 363.018 116.347Z" fill="#4278BB"/>
<path d="M405.761 183.916C399.425 183.916 375.562 183.916 362.54 183.916C360.618 170.155 359.632 159.122 359.247 150.298C359.248 150.297 359.249 150.296 359.25 150.294C359.293 151.245 359.342 152.221 359.398 153.224C364 150.368 368.289 143.541 369.314 137.868C372.734 132.916 375.343 127.883 375.34 124.058C375.338 123.145 375.189 122.299 374.864 121.541C373.367 118.034 369.598 116.075 365.513 116.075C364.814 116.075 364.103 116.133 363.394 116.251C364.807 115.896 369.992 114.659 375.447 114.177C377.587 113.988 380.337 113.916 383.216 113.916C386.87 113.916 390.732 114.032 393.821 114.176C400.881 114.506 408.289 115.944 408.289 115.944C407.102 121.556 406.279 127.205 405.723 132.724C405.425 135.683 405.204 138.606 405.045 141.465C405.045 141.469 405.045 141.472 405.045 141.475C404.796 145.966 404.699 150.302 404.699 154.384C404.7 168.061 405.778 178.889 405.777 183.149C405.777 183.435 405.772 183.692 405.761 183.916Z" fill="#B4CFEC"/>
<path d="M359.398 153.224C359.342 152.221 359.292 151.245 359.25 150.294C362.36 146.882 366.177 142.409 369.313 137.868C368.289 143.541 363.999 150.368 359.398 153.224Z" fill="#73A1D5"/>
<path d="M198.983 117.504L197.675 119.547L187.37 112.62L188.036 111.579L198.983 117.504Z" fill="#4278BB"/>
<path d="M199.326 116.968L197.33 120.084L298.458 186.996L306.294 174.758L199.326 116.968Z" fill="#2C3D43"/>
<path d="M197.703 119.503L197.878 119.23L198.955 117.549L197.703 119.503Z" fill="#FEFEFE"/>
<path d="M197.703 119.503L197.877 119.23L197.703 119.503Z" fill="#5F8DC8"/>
<path d="M299.919 184.716L197.703 119.503L198.955 117.549L304.834 177.039L301.701 181.933L299.919 184.716Z" fill="#515F64"/>
<path d="M198.538 118.2L198.12 118.852L301.555 182.159L303.196 179.595L198.538 118.2Z" fill="#2C3D43"/>
<path d="M307.837 198.201C306.733 198.201 305.666 197.914 304.725 197.349L305.453 196.212C306.568 196.88 307.921 197.037 309.26 196.663C310.626 196.278 311.816 195.384 312.607 194.146C313.4 192.91 313.696 191.483 313.443 190.128C313.196 188.799 312.446 187.699 311.333 187.031L302.012 181.445L302.74 180.307L312.06 185.894C313.513 186.763 314.486 188.183 314.805 189.89C315.119 191.572 314.756 193.333 313.783 194.852C312.811 196.371 311.341 197.471 309.645 197.947C309.042 198.117 308.434 198.201 307.837 198.201Z" fill="#2C3D43"/>
<path d="M374.865 121.541C379.119 131.5 353.404 156.384 353.404 156.384L340.094 146.654C340.094 146.654 349.297 133.612 353.084 124.663C357.763 113.61 371.628 113.96 374.865 121.541Z" fill="#4278BB"/>
<path d="M353.404 156.384L351.642 155.096L342.216 148.207L340.094 146.654C340.094 146.654 349.297 133.612 353.084 124.663C355.599 118.722 360.768 116.075 365.514 116.075C369.598 116.075 373.368 118.034 374.865 121.541C375.189 122.299 375.339 123.145 375.34 124.058C375.343 127.883 372.734 132.916 369.314 137.868C366.178 142.409 362.361 146.882 359.251 150.294C359.25 150.296 359.248 150.297 359.247 150.298C355.919 153.95 353.404 156.384 353.404 156.384Z" fill="#B4CFEC"/>
<path d="M344.322 143.037C347.132 145.684 353.366 151.435 356.23 153.08C356.659 153.326 356.803 153.852 356.569 154.277C355.621 155.999 353.469 158.522 352.037 158.73C350.345 158.977 337.308 150.643 337.081 148.944C336.927 147.786 339.684 144.833 341.456 143.07C342.238 142.293 343.518 142.278 344.322 143.037Z" fill="#2C3D43"/>
<path d="M409.288 146.705C412.794 144.999 420.445 141.174 422.988 139.091C423.367 138.78 423.929 138.82 424.268 139.171C425.642 140.601 427.405 143.393 427.141 144.769C426.829 146.397 414.434 155.601 412.7 155.253C411.517 155.017 409.531 151.532 408.387 149.337C407.881 148.368 408.286 147.192 409.288 146.705Z" fill="#2C3D43"/>
<path d="M314.391 179.149L306.254 181.613L309.948 189.377C309.948 189.377 317.021 188.473 318.42 182.943L314.391 179.149Z" fill="#F38982"/>
<path d="M302.55 185.74L305.513 190.88L309.948 189.377L306.254 181.613L302.55 185.74Z" fill="#F38982"/>
<path d="M383.269 374.003H383.265L383.195 372.42H383.198L383.269 374.003ZM375.183 374.003L375.123 372.637L375.185 374.003" fill="#C3C5C5"/>
<path d="M383.265 374.003H375.183L375.122 372.637L375.113 372.42H383.194L383.265 374.003Z" fill="#E7796C"/>
<path d="M439.043 368.468L438.349 366.993L438.354 366.992L439.048 368.467L439.043 368.468Z" fill="#C3C5C5"/>
<path d="M431.148 370.123L430.452 368.646L438.349 366.993L439.043 368.468L431.148 370.123Z" fill="#E7796C"/>
<path d="M395.788 89.3598C393.783 96.8723 393.005 101.368 388.255 104.527C381.108 109.279 372.105 103.979 371.748 96.0384C371.429 88.8925 374.76 77.8076 383.058 76.2231C391.234 74.6613 397.792 81.8472 395.788 89.3598Z" fill="#F38982"/>
<path d="M377.592 91.166C376.455 88.952 376.579 85.822 378.939 83.6762C376.455 82.4302 374.156 78.1645 376.548 75.7007C370.12 74.259 373.677 67.7988 383.669 68.4305C393.59 69.0567 385.834 73.132 385.834 73.132C385.834 73.132 407.324 74.7392 399.561 82.3102C402.976 84.2927 403.288 90.9443 398.458 94.163C390.678 99.3448 393.05 105.15 387.092 104.107C381.647 103.154 376.952 97.2736 377.592 91.166Z" fill="#2C3D43"/>
<path d="M380.655 90.038C380.428 91.7933 379.021 93.5909 377.722 94.2723C375.716 95.3246 374.534 94.5362 374.502 92.5277C374.472 90.7204 375.33 87.7861 377.3 87.0994C379.241 86.4234 380.916 88.0306 380.655 90.038Z" fill="#F38982"/>
<path d="M377.872 183.917C377.872 183.917 387.043 243.661 392.077 266.043C397.59 290.552 427.072 369.127 427.072 369.127L441.537 366.097C441.537 366.097 419.466 292.531 416.32 268.264C412.906 241.926 405.762 183.917 405.762 183.917H377.872Z" fill="#2C3D43"/>
<path d="M423.205 362.853L426.303 369.516L442.578 366.107L440.805 359.771L423.205 362.853Z" fill="#4278BB"/>
<path d="M426.303 369.516L423.205 362.853L440.805 359.771L442.578 366.107L438.348 366.993L430.452 368.646H430.451L426.303 369.516Z" fill="#B4CFEC"/>
<path d="M391.874 265.147C390.689 259.759 389.291 252.443 387.847 244.396V244.395C389.291 252.435 390.688 259.743 391.875 265.132C391.874 265.136 391.874 265.142 391.874 265.147Z" fill="#A9ACAD"/>
<path d="M391.875 265.132C390.688 259.743 389.291 252.435 387.847 244.395C388.316 233.694 388.89 222.179 389.415 212.098C393.726 224.421 392.845 250.151 391.875 265.132Z" fill="#273136"/>
<path d="M362.539 183.917C362.539 183.917 361.426 242.366 362.305 266.207C363.219 291.004 372.172 372.196 372.172 372.196H385.862C385.862 372.196 386.364 292.452 386.973 268.099C387.637 241.551 390.951 183.917 390.951 183.917H362.539Z" fill="#2C3D43"/>
<path d="M369.537 365.309L370.311 372.42H386.963L387.412 365.899L369.537 365.309Z" fill="#4278BB"/>
<path d="M386.963 372.42H383.195H375.114H370.311L369.537 365.309L387.412 365.899L386.963 372.42Z" fill="#B4CFEC"/>
</svg>
