<svg width="472" height="358" viewBox="0 0 472 358" fill="none" xmlns="http://www.w3.org/2000/svg">
<path opacity="0.1" d="M82.2894 41.7354C86.3267 17.6465 107.177 0 131.602 0H421.284C448.898 0 471.284 22.3858 471.284 50V308C471.284 335.614 448.898 358 421.284 358H88.3614C57.4461 358 33.9391 330.225 39.0492 299.735L82.2894 41.7354Z" fill="#B0C6A1"/>
<path d="M244.373 259.341C216.327 227.53 249.443 196.813 307.728 195.985C423.606 203.621 449.755 306.245 440.997 329.254C432.24 352.263 406.163 352.891 367.526 306.019C328.889 259.146 279.43 299.104 244.373 259.341Z" stroke="white" stroke-width="1.5"/>
<path d="M146 173.444C146 211.796 113.317 242.888 73.0002 242.888C32.6834 242.888 0 211.796 0 173.444C0 135.091 32.6834 104 73.0002 104C113.317 104 146 135.091 146 173.444Z" fill="#EDF7F7"/>
<path d="M99.5625 140.438C99.5625 146.478 94.6656 151.375 88.625 151.375C82.5844 151.375 77.6875 146.478 77.6875 140.438C77.6875 134.397 88.625 120.125 88.625 120.125C88.625 120.125 99.5625 134.397 99.5625 140.438Z" fill="#80D6FB"/>
<path d="M77.6875 140.438C77.6875 146.478 82.5844 151.375 88.625 151.375C89.0578 151.375 89.4813 151.344 89.9016 151.294C90.0797 150.305 90.1875 149.291 90.1875 148.25C90.1875 143.538 86.0563 136.094 81.9938 129.909C79.6984 133.75 77.6875 137.848 77.6875 140.438Z" fill="#46BEE8"/>
<path d="M46.4375 140.438C46.4375 146.478 51.3344 151.375 57.375 151.375C63.4156 151.375 68.3125 146.478 68.3125 140.438C68.3125 134.397 57.375 120.125 57.375 120.125C57.375 120.125 46.4375 134.397 46.4375 140.438Z" fill="#80D6FB"/>
<path d="M68.3125 140.438C68.3125 146.478 63.4156 151.375 57.375 151.375C56.9422 151.375 56.5188 151.344 56.0984 151.294C55.9203 150.305 55.8125 149.291 55.8125 148.25C55.8125 143.538 59.9437 136.094 64.0062 129.909C66.3016 133.75 68.3125 137.848 68.3125 140.438Z" fill="#46BEE8"/>
<path d="M88.625 148.25C88.625 156.88 81.6297 163.875 73 163.875C64.3703 163.875 57.375 156.88 57.375 148.25C57.375 139.62 73 120.125 73 120.125C73 120.125 88.625 139.62 88.625 148.25Z" fill="#80D6FB"/>
<path d="M26.125 213.875H38.625C38.625 203.559 43.175 194.312 50.3703 188.012L40.8609 179.77C31.7937 188.319 26.125 200.431 26.125 213.875Z" fill="#FFB0AA"/>
<path d="M105.141 179.77L95.6318 188.012C102.826 194.312 107.376 203.559 107.376 213.875H119.876C119.876 200.431 114.207 188.319 105.141 179.77Z" fill="#80D6FB"/>
<path d="M72.999 167C60.5553 167 49.2521 171.858 40.8584 179.77L50.3678 188.012C56.4162 182.717 64.3287 179.5 72.999 179.5C81.6693 179.5 89.5818 182.717 95.6287 188.012L105.138 179.77C96.7459 171.858 85.4428 167 72.999 167Z" fill="#EDEFF1"/>
<path d="M77.9094 207.844L73 185.75L68.0906 207.844C66.3328 209.277 65.1875 211.431 65.1875 213.875H80.8125C80.8125 211.431 79.6672 209.277 77.9094 207.844Z" fill="#6E83B7"/>
</svg>
