<svg width="482" height="366" viewBox="0 0 482 366" fill="none" xmlns="http://www.w3.org/2000/svg">
<path opacity="0.1" d="M92.2894 48.7371C96.3267 24.6482 117.177 7.00171 141.602 7.00171H431.284C458.898 7.00171 481.284 29.3875 481.284 57.0017V315.002C481.284 342.616 458.898 365.002 431.284 365.002H98.3614C67.4461 365.002 43.9391 337.227 49.0492 306.737L92.2894 48.7371Z" fill="#2D9CDB"/>
<ellipse cx="421.674" cy="313.032" rx="30.9248" ry="18.2737" transform="rotate(20.7184 421.674 313.032)" stroke="white" stroke-width="1.5"/>
<path d="M147.726 254.712C87.1914 266.919 72.5671 202.795 113.958 128.691C207.954 -11.8767 356.406 29.8654 379.045 57.6612C401.685 85.457 383.491 118.798 296.252 133.395C209.014 147.991 223.393 239.454 147.726 254.712Z" stroke="white" stroke-width="1.5"/>
<path d="M146 187.444C146 225.796 113.317 256.888 73.0002 256.888C32.6834 256.888 0 225.796 0 187.444C0 149.091 32.6834 118 73.0002 118C113.317 118 146 149.091 146 187.444Z" fill="#EDF7F7"/>
<path d="M56.9502 221.969V215.062H73.0502V221.969L65.0002 227.547L56.9502 221.969Z" fill="#BAE0BD"/>
<path d="M71.8998 216.125V221.438L64.9998 226.219L58.0998 221.438V216.125H71.8998ZM74.1998 214H55.7998V222.5L64.9998 228.875L74.1998 222.5V214Z" fill="#5E9C76"/>
<path d="M50.0502 187.438V153.438H47.7502C46.4806 153.438 45.4502 152.485 45.4502 151.312C45.4502 150.14 46.4806 149.188 47.7502 149.188H82.2502C83.5198 149.188 84.5502 150.14 84.5502 151.312C84.5502 152.485 83.5198 153.438 82.2502 153.438H79.9502V187.438H50.0502Z" fill="#E1EBF2"/>
<path d="M82.2498 150.25C82.8731 150.25 83.3998 150.737 83.3998 151.312C83.3998 151.888 82.8731 152.375 82.2498 152.375H81.0998H78.7998V154.5V186.375H51.1998V154.5V152.375H48.8998H47.7498C47.1265 152.375 46.5998 151.888 46.5998 151.312C46.5998 150.737 47.1265 150.25 47.7498 150.25H82.2498ZM82.2498 148.125H47.7498C45.8523 148.125 44.2998 149.559 44.2998 151.312C44.2998 153.066 45.8523 154.5 47.7498 154.5H48.8998V188.5H81.0998V154.5H82.2498C84.1473 154.5 85.6998 153.066 85.6998 151.312C85.6998 149.559 84.1473 148.125 82.2498 148.125Z" fill="#788B9C"/>
<path d="M53.5008 215.062C51.5987 215.062 50.0508 213.632 50.0508 211.875V181.062H79.9508V211.875C79.9508 213.632 78.4029 215.062 76.5008 215.062H53.5008Z" fill="#8BB7F0"/>
<path d="M78.8004 182.125V211.875C78.8004 213.046 77.7677 214 76.5004 214H53.5004C52.2331 214 51.2004 213.046 51.2004 211.875V182.125H78.8004ZM81.1004 180H48.9004V211.875C48.9004 214.213 50.9704 216.125 53.5004 216.125H76.5004C79.0304 216.125 81.1004 214.213 81.1004 211.875V180Z" fill="#4E7AB5"/>
<path d="M62.7004 154.5H60.4004V180H62.7004V154.5Z" fill="#788B9C"/>
<path d="M71.9004 154.5H60.4004V156.625H71.9004V154.5Z" fill="#788B9C"/>
<path d="M67.3002 163H62.7002V165.125H67.3002V163Z" fill="#788B9C"/>
<path d="M67.3004 171.5H60.4004V173.625H67.3004V171.5Z" fill="#788B9C"/>
<path d="M71.9004 188.5H60.4004V190.625H71.9004V188.5Z" fill="#4E7AB5"/>
<path d="M67.3004 197H60.4004V199.125H67.3004V197Z" fill="#4E7AB5"/>
<path d="M67.3004 205.5H60.4004V207.625H67.3004V205.5Z" fill="#4E7AB5"/>
<path d="M62.7004 180H60.4004V216.125H62.7004V180Z" fill="#4E7AB5"/>
</svg>
