<svg width="594" height="544" viewBox="0 0 594 544" fill="none" xmlns="http://www.w3.org/2000/svg">
<path d="M412.524 544C414.633 544 416.931 543.795 419.395 543.373C432.676 541.107 446.322 533.231 452.249 524.857C450.89 526.625 449.044 528.282 446.709 529.752C441.104 533.283 433.76 535.052 426.433 535.052C419.164 535.052 411.917 533.313 406.388 529.828C402.56 527.422 400.064 524.488 398.888 521.396C396.993 523.428 395.501 525.524 394.599 527.621C394.095 528.792 393.799 529.899 393.67 530.947L393.611 530.988C393.268 534.027 394.529 536.481 396.972 538.214L396.908 538.249L397.289 538.489L397.418 538.571L402.319 541.658H402.324C404.751 543.163 408.234 544 412.524 544ZM454.423 520.933C455.223 518.919 455.432 517.086 455.126 515.475V517.279H455.115C455.083 518.509 454.852 519.727 454.423 520.933ZM398.11 517.461C398.105 517.402 398.105 517.343 398.105 517.279V511.575C398.083 511.212 398.083 510.849 398.105 510.486V510.422C398.276 507.207 399.79 504.027 402.641 501.234L247.155 403.555L248.53 403.321L252.744 405.974L252.749 405.968C257.436 408.878 264.162 410.489 272.456 410.489C276.498 410.489 280.911 410.102 285.64 409.3L287.353 410.383C287.675 411.672 288.249 412.855 289.028 413.932L289.006 413.944L289.097 414.049L289.844 414.922L290.107 415.226L290.085 415.244L301.809 429.767L301.815 429.761C305.309 434.305 312.251 436.993 321.575 437.356L321.618 437.626L321.865 439.136L322.117 439.98L322.665 441.426L323.057 442.176L323.889 443.493L324.436 444.184L325.515 445.332L326.235 445.982L327.287 446.79L327.233 446.825L336.638 452.746L336.644 452.74C338.619 453.964 341.04 454.907 343.778 455.586C344.422 456.611 345.19 457.571 346.14 458.432L346.849 458.988L347.659 459.627L347.611 459.656L357.011 465.576L357.022 465.57C358.965 466.783 361.343 467.708 364.033 468.387L364.655 469.318L364.714 469.412C365.573 470.507 366.641 471.491 367.882 472.369L367.844 472.399L368.247 472.65L368.504 472.814L377.244 478.319L377.249 478.313C379.225 479.543 381.651 480.48 384.389 481.159L384.969 482.061L385.092 482.242C385.581 482.875 386.144 483.466 386.762 484.023L387.336 484.474L388.265 485.2L388.216 485.229L397.622 491.149H397.627C401.406 493.498 406.678 494.891 413.109 495.149C414.639 494.622 416.228 494.195 417.86 493.855V349.698L385.119 337.693L386.493 334.501L330.513 299.242L328.452 299.599L320.346 294.493L305.68 297.046L294.804 322.332L262.38 305.414L262.374 305.42C258.885 303.781 254.306 302.885 248.857 302.885C245.701 302.885 242.254 303.183 238.555 303.816C215.837 307.692 192.405 322.502 186.21 336.902C183.665 342.823 184.481 347.736 187.853 351.214L187.815 351.238L188.03 351.408C188.84 352.204 189.78 352.924 190.853 353.557L220.4 376.079L156.25 367.558L156.228 367.547L132.259 371.745L129.462 369.983L129.441 369.994L129.376 369.942L129.435 370H129.43C128.045 369.198 126.113 368.747 123.745 368.747C122.591 368.747 121.335 368.853 119.982 369.075L107.345 361.111L105.928 360.221C105.864 359.085 105.343 358.13 104.339 357.457H104.344L95.3472 351.794L95.3365 351.806L95.2774 351.759L95.3257 351.806V351.812C94.3595 351.244 93.0389 350.916 91.466 350.834C91.3211 349.826 90.8057 348.971 89.8931 348.362L89.8984 348.357L87.7673 347.015L107.195 334.776C110.18 335.713 113.433 336.182 116.691 336.182C122.097 336.182 127.503 334.888 131.642 332.282C139.952 327.047 139.995 318.59 131.733 313.39C127.626 310.802 122.231 309.514 116.831 309.514C111.382 309.514 105.917 310.825 101.752 313.455C94.687 317.899 93.6617 324.663 98.5628 329.787L77.4657 340.89L38.1649 349.311L38.1703 349.346C37.2255 348.245 36.0551 347.197 34.5842 346.272C30.5097 343.707 25.1577 342.424 19.7733 342.424C14.2762 342.424 8.75229 343.76 4.5275 346.418C3.80814 346.869 3.14786 347.349 2.56274 347.847C1.91855 348.38 1.35492 348.925 0.866394 349.493C0.474518 350.025 0.216858 350.611 0.0933838 351.214C-0.250183 352.749 0.399384 353.885 1.42471 355.226C2.56277 356.731 4.28592 358.031 6.22922 359.149C12.3812 362.686 19.7303 365.204 28.1316 365.204C28.7168 365.204 29.3127 365.193 29.9085 365.163C31.621 365.093 33.3818 364.911 34.8258 364.326C35.7814 363.945 36.7476 363.354 37.5153 362.663L37.6603 362.522L38.5782 361.427C40.0491 359.495 40.7308 357.398 40.6611 355.313L53.4213 355.495L54.9996 364.835C53.212 364.314 51.5961 363.951 49.6851 363.951C49.2288 363.951 48.7563 363.969 48.2625 364.015C47.1888 364.103 46.1474 364.291 45.1919 364.56C44.0914 364.859 43.0929 365.257 42.2501 365.766C41.3589 366.182 40.5107 366.651 39.7001 367.16C30.295 373.086 30.1769 382.62 39.4371 388.453C44.0216 391.34 50.0394 392.78 56.0894 392.78C59.6485 392.78 63.2184 392.282 66.5091 391.287C67.1748 391.1 67.8243 390.877 68.4685 390.637L68.7208 390.532C69.9555 389.987 71.0077 389.302 71.6948 388.628C72.7416 387.604 73.0637 386.356 73.1925 385.144C73.7025 380.278 71.1956 375.891 67.062 372.032L70.793 363.846L70.8842 363.852L70.9486 364.115L71.0936 364.537L71.4425 365.245L71.7324 365.62L72.3551 366.171L72.4249 366.235L72.3873 366.252L81.3844 371.921C82.4474 372.577 83.9934 372.922 85.8455 372.963L87.2466 373.848H87.2519L99.9102 381.824L99.8351 382.081L99.4324 383.528L99.4432 384.119L99.5129 385.185L99.7385 385.741L100.163 386.596L100.603 387.076L101.306 387.715L101.268 387.738L102.927 388.781L100.925 393.448L106.642 397.114L154.392 388.822L154.414 388.769L166.498 396.376L185.775 393.085L211.94 409.564L223.299 407.625L398.11 517.461ZM442.618 495.987C442.693 495.975 442.763 495.963 442.833 495.951C463.645 492.403 485.118 478.834 490.792 465.641C491.861 463.152 492.279 460.862 492.124 458.807C491.818 458.807 491.517 458.813 491.211 458.813C481.216 458.813 471.241 456.417 463.64 451.627C458.497 448.389 455.094 444.465 453.435 440.319C453.027 439.306 452.726 438.287 452.528 437.257C445.512 431.676 441.99 424.918 441.947 418.143H441.936V411.01L438.442 408.808L441.936 410.085V407.614C441.931 407.397 441.931 407.18 441.936 406.963V406.226H441.963C442.081 404.041 442.559 401.857 443.402 399.72C442.446 397.295 441.963 394.806 441.947 392.312H441.936V382.245C441.915 381.718 441.915 381.197 441.936 380.67V380.401H441.952C442.065 378.24 442.537 376.085 443.359 373.971C442.43 371.576 441.963 369.128 441.947 366.674H441.936V358.517L435.366 356.11V493.791C437.905 494.294 440.347 495.026 442.618 495.987Z" fill="#CCCCCC"/>
<path fill-rule="evenodd" clip-rule="evenodd" d="M426.43 535.052C433.758 535.052 441.101 533.283 446.706 529.752C449.041 528.282 450.888 526.625 452.246 524.857C453.218 523.598 453.942 522.274 454.42 520.933C454.849 519.727 455.08 518.509 455.112 517.279H455.123V515.475V510.422H455.118C455.274 515.159 452.471 519.943 446.706 523.574C441.101 527.099 433.768 528.868 426.446 528.874C426.441 528.874 426.435 528.874 426.43 528.874C426.425 528.874 426.419 528.874 426.414 528.874C419.199 528.868 412 527.152 406.487 523.715C406.455 523.691 406.417 523.674 406.385 523.65C406.342 523.627 406.299 523.598 406.256 523.568C406.235 523.557 406.213 523.545 406.197 523.533C406.192 523.533 406.192 523.527 406.192 523.527C406.176 523.516 406.154 523.504 406.138 523.492C406.133 523.492 406.133 523.486 406.127 523.486C406.106 523.475 406.09 523.463 406.074 523.451C406.068 523.451 406.063 523.445 406.063 523.445C406.042 523.434 406.025 523.422 406.004 523.41C406.004 523.404 405.999 523.404 405.999 523.404C405.982 523.393 405.961 523.381 405.945 523.369C405.94 523.363 405.94 523.363 405.934 523.363C405.918 523.352 405.902 523.34 405.886 523.328C405.88 523.328 405.875 523.322 405.87 523.316C405.854 523.311 405.838 523.299 405.821 523.287C405.816 523.281 405.811 523.281 405.805 523.276C405.789 523.264 405.778 523.258 405.762 523.246C405.757 523.24 405.746 523.235 405.741 523.235C405.725 523.223 405.714 523.211 405.698 523.205C405.693 523.199 405.687 523.194 405.676 523.188C405.666 523.182 405.65 523.17 405.639 523.164C405.628 523.158 405.623 523.153 405.612 523.147C405.601 523.141 405.585 523.129 405.574 523.117C405.569 523.112 405.558 523.112 405.553 523.106C405.542 523.094 405.526 523.088 405.515 523.082C405.505 523.071 405.499 523.065 405.489 523.059C405.478 523.053 405.467 523.047 405.456 523.035C405.446 523.03 405.429 523.024 405.419 523.012C405.413 523.006 405.403 523.006 405.397 523C405.381 522.989 405.37 522.983 405.36 522.971C405.349 522.965 405.344 522.959 405.333 522.953C405.322 522.942 405.306 522.936 405.295 522.924C405.29 522.924 405.279 522.918 405.274 522.912C405.258 522.901 405.247 522.889 405.231 522.883C405.226 522.877 405.22 522.871 405.215 522.871C405.199 522.854 405.177 522.848 405.161 522.83C405.161 522.83 405.156 522.83 405.156 522.825C405.134 522.813 405.118 522.801 405.102 522.789C405.097 522.784 405.097 522.784 405.091 522.784C401.704 520.348 399.546 517.46 398.623 514.456H398.601C398.311 513.502 398.145 512.536 398.102 511.575V517.279C398.102 517.343 398.102 517.402 398.107 517.46C398.134 518.784 398.397 520.102 398.886 521.396C400.061 524.488 402.558 527.422 406.385 529.828C411.914 533.313 419.161 535.052 426.43 535.052ZM398.102 510.486C398.102 510.468 398.102 510.445 398.102 510.422V510.486Z" fill="url(#paint0_linear)"/>
<path d="M406.385 523.65C417.487 530.642 435.54 530.607 446.706 523.574C457.877 516.541 457.937 505.169 446.835 498.177C435.734 491.19 417.686 491.226 406.514 498.259C395.343 505.292 395.289 516.664 406.385 523.65Z" fill="#F2F2F2"/>
<path d="M419.818 513.853C423.549 516.201 429.609 516.19 433.362 513.83C437.114 511.464 437.13 507.646 433.405 505.298C429.674 502.949 423.613 502.961 419.861 505.321C416.114 507.687 416.092 511.505 419.818 513.853Z" fill="#666666"/>
<path d="M406.387 522.585C417.489 529.577 435.542 529.541 446.708 522.503C452.109 519.106 454.9 514.697 455.104 510.258C455.335 515.054 452.538 519.902 446.708 523.574C435.542 530.607 417.489 530.642 406.387 523.65C400.654 520.043 397.9 515.259 398.12 510.509C398.335 514.901 401.083 519.241 406.387 522.585Z" fill="white"/>
<path d="M398.103 511.575V511.095C398.103 511.048 398.103 511.007 398.103 510.96V510.486C398.081 510.849 398.081 511.212 398.103 511.575Z" fill="#A3A3A3"/>
<path d="M402.671 501.252C402.751 501.175 402.832 501.099 402.913 501.023H402.854C402.784 501.093 402.708 501.164 402.638 501.234L402.671 501.252Z" fill="#CCCCCC"/>
<path d="M398.104 510.422H398.121C398.287 507.224 399.806 504.044 402.673 501.251L402.641 501.234C399.79 504.027 398.276 507.207 398.104 510.422Z" fill="#A3A3A3"/>
<path fill-rule="evenodd" clip-rule="evenodd" d="M398.604 514.456H398.625C398.281 513.35 398.109 512.219 398.104 511.095V511.575C398.147 512.536 398.313 513.502 398.604 514.456ZM398.104 510.96C398.104 510.785 398.109 510.603 398.12 510.422H398.104C398.104 510.445 398.104 510.468 398.104 510.486V510.96Z" fill="url(#paint1_linear)"/>
<path d="M398.623 514.456H398.628C398.225 513.156 398.059 511.827 398.118 510.51C398.182 511.839 398.478 513.162 399.009 514.456H420.938C420.547 514.275 420.171 514.076 419.817 513.853C416.955 512.05 416.3 509.373 417.857 507.16V501.023H402.912C402.831 501.099 402.751 501.175 402.67 501.251C399.804 504.044 398.284 507.224 398.118 510.422C398.107 510.603 398.102 510.785 398.102 510.96C398.102 511.007 398.102 511.048 398.102 511.095C398.107 512.219 398.279 513.35 398.623 514.456Z" fill="#C2C2C2"/>
<path d="M420.938 514.456H426.773V514.445C426.704 514.445 426.628 514.445 426.559 514.445C424.325 514.445 422.098 513.912 420.401 512.846C418.71 511.78 417.867 510.387 417.857 508.993V507.16C416.3 509.373 416.955 512.05 419.816 513.853C420.17 514.076 420.546 514.275 420.938 514.456Z" fill="#525252"/>
<path d="M398.628 514.456H399.009C398.477 513.162 398.182 511.839 398.118 510.509C398.059 511.827 398.225 513.156 398.628 514.456Z" fill="#CCCCCC"/>
<path d="M426.56 514.445C426.63 514.445 426.705 514.445 426.775 514.445C428.949 514.41 431.118 513.871 432.782 512.823C434.468 511.763 435.327 510.375 435.359 508.993H435.364V507.09V493.791V356.11V234.639L417.858 223.612V349.698V493.855V501.023V507.16V508.993C417.869 510.386 418.712 511.78 420.403 512.846C422.099 513.912 424.327 514.445 426.56 514.445Z" fill="url(#paint2_linear)"/>
<path d="M420.403 218.16C423.811 220.309 429.351 220.291 432.782 218.136C436.212 215.976 436.228 212.485 432.819 210.336C429.416 208.193 423.87 208.205 420.44 210.36C417.015 212.52 416.994 216.017 420.403 218.16Z" fill="#FFF9F2"/>
<path d="M420.403 217.832C423.812 219.975 429.352 219.969 432.783 217.808C434.441 216.76 435.295 215.413 435.359 214.049C435.429 215.519 434.576 217.006 432.783 218.136C429.352 220.291 423.812 220.309 420.403 218.16C418.643 217.047 417.8 215.583 417.864 214.125C417.929 215.472 418.771 216.807 420.403 217.832Z" fill="white"/>
<path d="M491.211 458.813C491.517 458.813 491.817 458.807 492.123 458.807C501.899 458.66 511.632 456.23 519.115 451.516C524.349 448.225 527.806 444.231 529.486 440.026C527.607 442.041 525.31 443.944 522.577 445.66C513.892 451.118 502.522 453.858 491.179 453.858C479.938 453.858 468.718 451.165 460.182 445.771C457.509 444.091 455.287 442.263 453.467 440.354L453.435 440.319C455.093 444.465 458.497 448.389 463.64 451.627C471.241 456.417 481.215 458.813 491.211 458.813Z" fill="url(#paint3_linear)"/>
<path d="M453.435 440.319C453.032 439.312 452.726 438.287 452.527 437.257C452.726 438.287 453.027 439.306 453.435 440.319Z" fill="#B3B3B3"/>
<path d="M529.486 440.026L529.491 440.021C529.91 439.008 530.221 437.971 530.42 436.929C530.415 436.935 530.404 436.94 530.393 436.952C530.194 437.983 529.894 439.013 529.486 440.026Z" fill="#E0E0E0"/>
<path d="M491.179 453.858C502.522 453.858 513.892 451.118 522.577 445.66C525.31 443.944 527.607 442.041 529.486 440.027C529.894 439.013 530.195 437.983 530.394 436.952C529.164 437.942 527.822 438.89 526.378 439.804C516.635 445.941 503.88 449.01 491.152 449.01C478.531 449.01 465.932 445.988 456.334 439.945C454.97 439.084 453.703 438.188 452.527 437.257C452.726 438.287 453.032 439.312 453.435 440.319L453.467 440.354C455.287 442.263 457.509 444.091 460.183 445.771C468.718 451.165 479.938 453.858 491.179 453.858Z" fill="url(#paint4_linear)"/>
<path d="M463.638 435.834C478.906 445.449 503.744 445.402 519.114 435.728C534.483 426.048 534.563 410.401 519.285 400.785C504.018 391.17 479.179 391.217 463.81 400.891C448.446 410.571 448.366 426.218 463.638 435.834Z" fill="#FFF9F2"/>
<path d="M463.637 434.364C478.905 443.985 503.743 443.933 519.113 434.258C526.537 429.579 530.386 423.513 530.66 417.405C530.976 423.999 527.133 430.675 519.113 435.728C503.743 445.402 478.905 445.449 463.637 435.834C455.746 430.862 451.961 424.286 452.262 417.75C452.552 423.788 456.337 429.767 463.637 434.364Z" fill="white"/>
<path fill-rule="evenodd" clip-rule="evenodd" d="M491.15 449.01C503.878 449.01 516.633 445.941 526.376 439.804C527.82 438.891 529.162 437.942 530.391 436.952C530.402 436.94 530.413 436.935 530.418 436.929C537.279 431.412 540.795 424.783 540.972 418.143H540.988V407.063C540.918 415.021 536.044 422.986 526.376 429.076C526.306 429.117 526.242 429.158 526.172 429.199C516.461 435.248 503.803 438.276 491.171 438.276C491.166 438.276 491.16 438.276 491.155 438.276C491.144 438.276 491.139 438.276 491.134 438.276C480.343 438.276 469.575 436.068 460.674 431.647C459.171 430.921 457.706 430.112 456.347 429.234C446.867 423.267 442.063 415.461 441.934 407.614V410.085V411.01V418.143H441.944C441.987 424.918 445.509 431.676 452.525 437.257C453.701 438.188 454.968 439.084 456.331 439.945C465.93 445.988 478.529 449.01 491.15 449.01ZM441.934 406.964C441.939 406.718 441.95 406.472 441.961 406.226H441.934V406.964ZM540.988 406.712V406.226H540.978C540.983 406.39 540.988 406.548 540.988 406.712Z" fill="url(#paint5_linear)"/>
<path d="M456.33 429.21C475.613 441.356 506.969 441.291 526.375 429.076C545.775 416.854 545.872 397.102 526.595 384.957C507.312 372.817 475.951 372.876 456.55 385.097C437.149 397.319 437.047 417.071 456.33 429.21Z" fill="#F2F2F2"/>
<path d="M456.331 427.36C475.613 439.499 506.969 439.441 526.375 427.219C535.748 421.317 540.606 413.657 540.955 405.939C541.358 414.272 536.5 422.699 526.375 429.076C506.969 441.291 475.613 441.356 456.331 429.21C446.367 422.939 441.589 414.629 441.971 406.378C442.336 414.008 447.108 421.551 456.331 427.36Z" fill="white"/>
<path d="M441.935 407.613V406.963C441.929 407.18 441.929 407.397 441.935 407.613ZM441.962 406.226C442.08 404.041 442.563 401.857 443.4 399.72C442.558 401.857 442.08 404.041 441.962 406.226Z" fill="#666666"/>
<path d="M460.675 431.647C459.172 430.897 457.722 430.089 456.332 429.211C456.294 429.187 456.251 429.164 456.214 429.14C456.208 429.134 456.208 429.134 456.203 429.129C456.171 429.111 456.133 429.088 456.101 429.064C456.096 429.064 456.085 429.058 456.08 429.052C456.047 429.035 456.015 429.011 455.983 428.994C455.978 428.988 455.972 428.988 455.967 428.982C455.935 428.959 455.903 428.941 455.87 428.918C455.865 428.918 455.86 428.912 455.86 428.912C455.822 428.888 455.79 428.865 455.752 428.842C455.752 428.842 455.752 428.842 455.747 428.836C455.709 428.812 455.677 428.789 455.639 428.771C455.639 428.765 455.639 428.765 455.634 428.765C446.084 422.505 441.532 414.33 441.961 406.226C441.95 406.472 441.94 406.718 441.934 406.964V407.614C442.063 415.461 446.868 423.267 456.348 429.234C457.706 430.112 459.172 430.92 460.675 431.647Z" fill="url(#paint6_linear)"/>
<path d="M465.086 431.746H489.42C478.796 431.483 468.317 428.8 460.227 423.706C454.457 420.075 450.645 415.671 448.777 411.016V411.01C448.197 409.587 447.816 408.14 447.612 406.676C445.749 404.457 444.343 402.121 443.398 399.72C442.561 401.857 442.077 404.041 441.959 406.226C441.53 414.33 446.082 422.505 455.632 428.765C446.141 422.546 441.6 414.436 441.97 406.378C442.335 414.008 447.108 421.551 456.33 427.36C459.03 429.064 461.972 430.522 465.086 431.746ZM456.33 429.21C456.293 429.187 456.25 429.164 456.212 429.14C456.25 429.164 456.293 429.187 456.33 429.21ZM456.201 429.128C456.169 429.111 456.132 429.087 456.099 429.064C456.132 429.087 456.169 429.111 456.201 429.128ZM456.078 429.052C456.046 429.035 456.013 429.011 455.981 428.994C456.013 429.011 456.046 429.035 456.078 429.052ZM455.965 428.982C455.933 428.959 455.901 428.941 455.868 428.918C455.901 428.941 455.933 428.959 455.965 428.982ZM455.858 428.912C455.82 428.888 455.788 428.865 455.75 428.841C455.788 428.865 455.82 428.888 455.858 428.912ZM455.745 428.836C455.707 428.812 455.675 428.789 455.638 428.771C455.675 428.789 455.707 428.812 455.745 428.836Z" fill="#797979"/>
<path d="M460.886 431.746H465.089C461.975 430.522 459.034 429.064 456.333 427.36C447.111 421.551 442.338 414.008 441.973 406.378C441.603 414.436 446.144 422.546 455.635 428.765C455.641 428.765 455.641 428.765 455.641 428.771C455.678 428.789 455.711 428.812 455.748 428.836C455.753 428.841 455.754 428.841 455.754 428.841C455.791 428.865 455.823 428.888 455.861 428.912C455.861 428.912 455.866 428.918 455.872 428.918C455.904 428.941 455.936 428.959 455.968 428.982C455.974 428.988 455.979 428.988 455.984 428.994C456.017 429.011 456.049 429.035 456.081 429.052C456.086 429.058 456.097 429.064 456.102 429.064C456.135 429.087 456.172 429.111 456.204 429.128C456.21 429.134 456.21 429.134 456.215 429.14C456.253 429.164 456.296 429.187 456.333 429.21C457.724 430.089 459.173 430.897 460.676 431.646C460.746 431.682 460.816 431.711 460.886 431.746Z" fill="#808080"/>
<path d="M491.181 431.77C502.497 431.77 513.84 429.035 522.499 423.583C528.372 419.882 532.253 415.408 534.138 410.682C532.028 412.948 529.451 415.08 526.381 417.007C516.632 423.138 503.872 426.206 491.144 426.206C478.523 426.206 465.934 423.191 456.347 417.135C453.351 415.25 450.85 413.188 448.815 411.057L448.777 411.016C450.646 415.671 454.457 420.075 460.228 423.706C468.318 428.801 478.797 431.483 489.42 431.746C490.005 431.758 490.596 431.77 491.181 431.77Z" fill="url(#paint7_linear)"/>
<path d="M534.139 410.682C534.145 410.682 534.145 410.682 534.145 410.676C534.735 409.247 535.138 407.777 535.342 406.296C535.331 406.313 535.32 406.325 535.31 406.337C535.1 407.801 534.714 409.253 534.139 410.682Z" fill="#D5D5D5"/>
<path d="M448.779 411.016C448.21 409.587 447.818 408.14 447.614 406.682C447.614 406.682 447.614 406.682 447.614 406.676C447.818 408.14 448.2 409.587 448.779 411.01V411.016Z" fill="#6A6A6A"/>
<path d="M491.146 426.206C503.874 426.206 516.635 423.138 526.383 417.007C529.454 415.08 532.031 412.948 534.14 410.682C534.715 409.253 535.101 407.801 535.311 406.337C533.024 409.083 530.044 411.666 526.378 413.979C516.634 420.11 503.88 423.185 491.152 423.185C478.531 423.185 465.937 420.163 456.333 414.114C452.763 411.865 449.854 409.359 447.615 406.682C447.819 408.141 448.211 409.587 448.78 411.016L448.818 411.057C450.852 413.188 453.354 415.25 456.349 417.135C465.937 423.19 478.525 426.206 491.146 426.206Z" fill="url(#paint8_linear)"/>
<path d="M460.23 405.98C477.371 416.772 505.253 416.72 522.501 405.857C539.75 394.994 539.835 377.437 522.695 366.639C505.554 355.841 477.677 355.899 460.429 366.762C443.18 377.625 443.095 395.181 460.23 405.98Z" fill="#FFF9F2"/>
<path d="M460.229 404.328C477.37 415.127 505.252 415.074 522.501 404.211C530.832 398.958 535.148 392.148 535.459 385.29C535.814 392.692 531.498 400.188 522.501 405.857C505.252 416.72 477.37 416.772 460.229 405.98C451.371 400.399 447.125 393.014 447.463 385.683C447.791 392.464 452.032 399.169 460.229 404.328Z" fill="white"/>
<path fill-rule="evenodd" clip-rule="evenodd" d="M491.15 423.185C503.878 423.185 516.633 420.11 526.376 413.979C530.042 411.666 533.022 409.083 535.309 406.337C535.319 406.325 535.33 406.313 535.341 406.296C537.188 404.071 538.583 401.728 539.523 399.333C540.425 397.032 540.908 394.672 540.972 392.312H540.988V381.238C540.918 389.196 536.044 397.155 526.376 403.245C526.306 403.286 526.242 403.333 526.172 403.374C516.461 409.423 503.803 412.451 491.166 412.451C491.16 412.451 491.155 412.451 491.15 412.451C491.144 412.451 491.139 412.451 491.134 412.451C480.456 412.451 469.8 410.284 460.959 405.956C459.348 405.189 457.802 404.346 456.347 403.403C447.044 397.553 442.24 389.934 441.934 382.245V392.312H441.944C441.961 394.806 442.444 397.295 443.399 399.72C444.344 402.121 445.75 404.457 447.613 406.676C447.613 406.682 447.613 406.682 447.613 406.682C449.852 409.359 452.761 411.865 456.331 414.114C465.935 420.163 478.529 423.185 491.15 423.185ZM540.988 380.881V380.401H540.978C540.983 380.559 540.988 380.723 540.988 380.881ZM441.934 380.67C441.939 380.576 441.944 380.488 441.95 380.401H441.934V380.67Z" fill="url(#paint9_linear)"/>
<path d="M456.33 403.385C475.613 415.525 506.969 415.466 526.375 403.245C545.775 391.023 545.872 371.277 526.595 359.132C507.312 346.986 475.951 347.051 456.55 359.266C437.149 371.488 437.047 391.24 456.33 403.385Z" fill="#F2F2F2"/>
<path d="M456.331 401.529C475.613 413.674 506.969 413.616 526.375 401.394C535.748 395.486 540.606 387.826 540.955 380.114C541.358 388.441 536.5 396.868 526.375 403.245C506.969 415.466 475.613 415.525 456.331 403.385C446.367 397.108 441.589 388.798 441.971 380.553C442.336 388.183 447.108 395.726 456.331 401.529Z" fill="white"/>
<path d="M441.936 382.245V380.67C441.914 381.197 441.914 381.718 441.936 382.245ZM441.952 380.401H441.963C442.081 378.246 442.548 376.096 443.369 373.988C443.364 373.982 443.364 373.976 443.358 373.971C442.537 376.085 442.065 378.24 441.952 380.401Z" fill="#666666"/>
<path d="M460.959 405.956C459.413 405.201 457.915 404.375 456.487 403.479C456.434 403.45 456.38 403.415 456.332 403.385C456.294 403.362 456.251 403.333 456.213 403.309C456.213 403.309 456.208 403.309 456.208 403.303C456.17 403.28 456.133 403.257 456.101 403.233C456.095 403.233 456.095 403.233 456.095 403.233C446.229 396.938 441.526 388.634 441.961 380.401H441.95C441.945 380.488 441.939 380.576 441.934 380.67V382.245C442.24 389.934 447.044 397.553 456.348 403.403C457.802 404.346 459.349 405.189 460.959 405.956Z" fill="url(#paint10_linear)"/>
<path d="M465.849 406.214H489.823V406.202C479.065 405.997 468.42 403.315 460.228 398.156C454.457 394.519 450.646 390.116 448.778 385.466V385.46C448.182 383.996 447.795 382.521 447.597 381.021C445.718 378.773 444.306 376.407 443.367 373.988C442.545 376.097 442.078 378.246 441.96 380.401C441.525 388.634 446.228 396.938 456.095 403.233C446.292 396.979 441.595 388.734 441.971 380.553C442.336 388.183 447.108 395.726 456.331 401.529C459.251 403.374 462.451 404.931 465.849 406.214ZM456.486 403.479C456.433 403.45 456.379 403.415 456.331 403.386C456.379 403.415 456.433 403.45 456.486 403.479ZM456.331 403.386C456.293 403.362 456.25 403.333 456.213 403.309C456.25 403.333 456.293 403.362 456.331 403.386ZM456.207 403.304C456.17 403.28 456.132 403.257 456.1 403.233C456.132 403.257 456.17 403.28 456.207 403.304Z" fill="#797979"/>
<path d="M461.5 406.214H465.849C462.451 404.931 459.251 403.374 456.331 401.529C447.108 395.726 442.336 388.183 441.971 380.553C441.595 388.734 446.292 396.979 456.095 403.233C456.095 403.233 456.095 403.233 456.1 403.233C456.132 403.257 456.17 403.28 456.207 403.303C456.207 403.309 456.213 403.309 456.213 403.309C456.25 403.333 456.293 403.362 456.331 403.385C456.379 403.415 456.433 403.45 456.486 403.479C457.914 404.375 459.412 405.201 460.958 405.956C461.141 406.044 461.318 406.126 461.5 406.214Z" fill="#808080"/>
<path d="M491.181 406.214C502.497 406.214 513.84 403.485 522.499 398.033C528.372 394.332 532.253 389.858 534.138 385.132C532.028 387.393 529.451 389.53 526.381 391.457C516.632 397.582 503.877 400.657 491.144 400.657C478.528 400.657 465.934 397.635 456.347 391.586C453.351 389.694 450.85 387.639 448.815 385.501L448.777 385.466C450.646 390.116 454.457 394.519 460.228 398.156C468.42 403.315 479.065 405.997 489.823 406.202C490.279 406.214 490.73 406.214 491.181 406.214Z" fill="url(#paint11_linear)"/>
<path d="M534.139 385.132C534.145 385.132 534.145 385.126 534.145 385.126C534.751 383.662 535.159 382.157 535.353 380.641C535.342 380.652 535.331 380.664 535.32 380.676C535.122 382.175 534.724 383.668 534.139 385.132Z" fill="#D5D5D5"/>
<path d="M448.779 385.466C448.194 384.002 447.802 382.515 447.598 381.021C447.797 382.52 448.183 383.996 448.779 385.46V385.466Z" fill="#6A6A6A"/>
<path d="M491.145 400.656C503.879 400.656 516.634 397.582 526.382 391.457C529.453 389.53 532.03 387.393 534.139 385.132C534.725 383.668 535.122 382.175 535.32 380.676C533.033 383.434 530.054 386.022 526.377 388.335C516.634 394.473 503.879 397.541 491.151 397.541C478.53 397.541 465.931 394.519 456.332 388.476C452.752 386.221 449.842 383.703 447.598 381.021C447.802 382.515 448.194 384.002 448.779 385.466L448.817 385.501C450.851 387.639 453.353 389.694 456.348 391.586C465.936 397.635 478.53 400.656 491.145 400.656Z" fill="url(#paint12_linear)"/>
<path d="M460.23 380.424C477.371 391.223 505.253 391.164 522.501 380.307C539.75 369.438 539.835 351.882 522.695 341.089C505.554 330.291 477.677 330.349 460.429 341.212C443.18 352.075 443.095 369.631 460.23 380.424Z" fill="#FFF9F2"/>
<path d="M460.229 378.778C477.37 389.577 505.252 389.524 522.501 378.656C530.832 373.409 535.148 366.592 535.459 359.741C535.814 367.143 531.498 374.638 522.501 380.307C505.252 391.164 477.37 391.222 460.229 380.424C451.371 374.849 447.125 367.459 447.463 360.127C447.791 366.914 452.032 373.619 460.229 378.778Z" fill="white"/>
<path fill-rule="evenodd" clip-rule="evenodd" d="M491.15 397.541C503.878 397.541 516.633 394.473 526.376 388.336C530.053 386.022 533.033 383.434 535.319 380.676C535.33 380.664 535.341 380.652 535.352 380.641C537.22 378.386 538.621 376.02 539.56 373.602C540.441 371.324 540.908 368.999 540.972 366.674H540.988V355.595C540.929 362.042 537.719 368.495 531.352 373.953C529.865 375.23 528.206 376.448 526.376 377.601C526.306 377.648 526.242 377.689 526.172 377.73C516.461 383.78 503.803 386.807 491.166 386.807C491.16 386.807 491.155 386.807 491.15 386.807C491.144 386.807 491.139 386.807 491.134 386.807C478.792 386.807 466.477 383.92 456.965 378.134C456.847 378.064 456.723 377.988 456.605 377.918C456.514 377.859 456.423 377.801 456.331 377.742C446.303 371.429 441.52 363.055 441.961 354.757H441.934V358.517V366.674H441.944C441.961 369.128 442.428 371.576 443.356 373.971C443.362 373.977 443.362 373.982 443.367 373.988C444.306 376.407 445.718 378.773 447.597 381.021C449.841 383.703 452.751 386.222 456.331 388.476C465.93 394.519 478.529 397.541 491.15 397.541ZM540.988 355.237V354.757H540.978C540.983 354.915 540.988 355.079 540.988 355.237Z" fill="url(#paint13_linear)"/>
<path d="M456.33 377.742C475.613 389.881 506.969 389.823 526.375 377.601C545.775 365.38 545.872 345.633 526.595 333.488C507.312 321.349 475.951 321.407 456.55 333.623C437.149 345.844 437.047 365.602 456.33 377.742Z" fill="#F2F2F2"/>
<path d="M456.331 375.886C475.613 388.031 506.969 387.972 526.375 375.751C535.748 369.848 540.606 362.183 540.955 354.47C541.358 362.797 536.5 371.23 526.375 377.601C506.969 389.823 475.613 389.881 456.331 377.742C446.367 371.464 441.589 363.161 441.971 354.909C442.336 362.54 447.108 370.082 456.331 375.886Z" fill="white"/>
<path d="M442.058 353.633C442.257 351.823 442.703 350.025 443.4 348.251C443.4 348.251 443.4 348.251 443.4 348.245C442.703 350.02 442.252 351.823 442.058 353.633Z" fill="#808080"/>
<path d="M465.145 380.301H489.823V380.283C479.06 380.079 468.42 377.396 460.228 372.237C454.457 368.607 450.646 364.203 448.778 359.547V359.541C448.198 358.118 447.817 356.672 447.613 355.208C445.75 352.989 444.344 350.646 443.399 348.251C442.701 350.025 442.255 351.823 442.057 353.633C441.804 355.905 441.955 358.195 442.497 360.455C442.057 358.616 441.885 356.76 441.971 354.909C442.336 362.54 447.108 370.082 456.331 375.886C459.053 377.601 462.01 379.071 465.145 380.301Z" fill="#797979"/>
<path d="M460.965 380.301H465.146C462.011 379.071 459.054 377.601 456.332 375.886C447.109 370.082 442.337 362.54 441.972 354.909C441.886 356.76 442.058 358.616 442.498 360.455C444.012 366.779 448.628 372.864 456.348 377.742C457.808 378.667 459.349 379.546 460.965 380.301Z" fill="#808080"/>
<path d="M491.181 380.295C502.497 380.295 513.84 377.566 522.499 372.114C528.372 368.413 532.253 363.939 534.138 359.214C532.028 361.474 529.451 363.611 526.381 365.538C516.632 371.669 503.877 374.738 491.144 374.738C478.523 374.738 465.934 371.716 456.347 365.667C453.351 363.781 450.85 361.72 448.815 359.588L448.777 359.547C450.646 364.203 454.457 368.607 460.228 372.237C468.42 377.396 479.06 380.079 489.823 380.284C490.274 380.295 490.73 380.295 491.181 380.295Z" fill="url(#paint14_linear)"/>
<path d="M534.139 359.214C534.145 359.214 534.145 359.214 534.145 359.208C534.735 357.779 535.138 356.309 535.342 354.827C535.331 354.845 535.32 354.857 535.31 354.868C535.1 356.332 534.714 357.785 534.139 359.214Z" fill="#D5D5D5"/>
<path d="M448.779 359.547C448.21 358.119 447.818 356.672 447.614 355.214C447.614 355.208 447.614 355.208 447.614 355.208C447.818 356.672 448.2 358.119 448.779 359.542V359.547Z" fill="#6A6A6A"/>
<path d="M491.146 374.738C503.88 374.738 516.635 371.669 526.383 365.538C529.454 363.611 532.031 361.474 534.14 359.214C534.715 357.785 535.101 356.332 535.311 354.868C533.024 357.615 530.044 360.197 526.378 362.51C516.634 368.642 503.88 371.71 491.152 371.71C478.531 371.71 465.937 368.694 456.333 362.645C452.763 360.396 449.854 357.884 447.615 355.214C447.819 356.672 448.211 358.118 448.78 359.547L448.818 359.588C450.852 361.72 453.354 363.781 456.349 365.667C465.937 371.716 478.525 374.738 491.146 374.738Z" fill="url(#paint15_linear)"/>
<path d="M460.23 354.511C477.371 365.304 505.253 365.245 522.501 354.388C539.75 343.525 539.835 325.969 522.695 315.171C505.554 304.372 477.677 304.431 460.429 315.294C443.18 326.156 443.095 343.713 460.23 354.511Z" fill="#FFF9F2"/>
<path d="M460.229 352.86C477.37 363.658 505.252 363.606 522.501 352.737C530.832 347.49 535.148 340.679 535.459 333.822C535.814 341.224 531.498 348.72 522.501 354.388C505.252 365.245 477.37 365.304 460.229 354.511C451.371 348.93 447.125 341.546 447.463 334.214C447.791 340.99 452.032 347.701 460.229 352.86Z" fill="white"/>
<path fill-rule="evenodd" clip-rule="evenodd" d="M491.149 371.71C503.877 371.71 516.632 368.642 526.375 362.51C530.041 360.197 533.021 357.615 535.308 354.868C535.318 354.857 535.329 354.845 535.34 354.827C537.187 352.602 538.582 350.26 539.522 347.865C539.683 347.46 539.828 347.051 539.962 346.641L538.303 339.76C535.914 344.146 531.936 348.269 526.375 351.776C526.305 351.817 526.241 351.864 526.171 351.905C516.46 357.954 503.802 360.982 491.165 360.982C491.159 360.982 491.154 360.982 491.149 360.982C491.143 360.982 491.138 360.982 491.133 360.982C478.673 360.982 466.251 358.036 456.701 352.145C456.668 352.128 456.636 352.104 456.604 352.087C456.577 352.069 456.556 352.057 456.529 352.04C456.459 351.999 456.395 351.958 456.33 351.917C456.293 351.888 456.25 351.864 456.212 351.841L456.207 351.835C456.169 351.811 456.132 351.788 456.099 351.765C456.094 351.765 456.094 351.765 456.094 351.765C447.881 346.523 443.242 339.889 442.174 333.061C442.035 332.176 441.954 331.28 441.933 330.39V340.843H441.943C441.959 343.332 442.443 345.821 443.398 348.245C443.398 348.251 443.398 348.251 443.398 348.251C444.343 350.646 445.749 352.989 447.612 355.208C447.612 355.208 447.612 355.208 447.612 355.214C449.851 357.884 452.76 360.396 456.33 362.645C465.934 368.694 478.528 371.71 491.149 371.71ZM441.933 329.523C441.938 329.324 441.943 329.125 441.954 328.932H441.933V329.523Z" fill="url(#paint16_linear)"/>
<path d="M456.33 351.917C475.613 364.056 506.969 363.998 526.375 351.776C545.775 339.555 545.872 319.808 526.595 307.663C507.312 295.518 475.951 295.582 456.55 307.798C437.149 320.019 437.047 339.772 456.33 351.917Z" fill="#F2F2F2"/>
<path d="M456.331 350.061C475.613 362.206 506.969 362.142 526.375 349.926C535.748 344.017 540.606 336.358 540.955 328.645C541.358 336.972 536.5 345.399 526.375 351.776C506.969 363.998 475.613 364.056 456.331 351.917C446.367 345.639 441.589 337.33 441.971 329.084C442.336 336.715 447.108 344.257 456.331 350.061Z" fill="white"/>
<path d="M441.933 330.39V329.524C441.928 329.811 441.928 330.103 441.933 330.39ZM441.955 328.932H441.96C442.202 324.441 443.973 319.972 447.27 315.856C443.963 319.961 442.191 324.435 441.955 328.932Z" fill="#808080"/>
<path d="M442.175 333.061C441.96 331.69 441.89 330.308 441.96 328.932H441.954C441.944 329.125 441.938 329.324 441.933 329.523V330.39C441.954 331.28 442.035 332.176 442.175 333.061Z" fill="url(#paint17_linear)"/>
<path d="M461.543 352.918H489.823V352.907C479.065 352.696 468.42 350.014 460.228 344.855C451.741 339.508 447.484 332.504 447.441 325.477H447.436V316.055C447.377 315.99 447.323 315.926 447.269 315.856C443.973 319.972 442.202 324.441 441.96 328.932C441.89 330.308 441.96 331.69 442.175 333.061C442.449 334.8 442.959 336.527 443.694 338.22C442.4 335.239 441.826 332.153 441.971 329.084C442.336 336.715 447.108 344.257 456.331 350.061C457.984 351.103 459.729 352.058 461.543 352.918Z" fill="#797979"/>
<path d="M458.115 352.918H461.545C459.73 352.057 457.986 351.103 456.332 350.061C447.11 344.257 442.337 336.715 441.972 329.084C441.827 332.153 442.402 335.239 443.696 338.22C445.88 343.238 450.1 347.97 456.348 351.911C456.928 352.292 457.503 352.625 458.115 352.918Z" fill="#808080"/>
<path d="M491.188 352.918C502.499 352.918 513.842 350.19 522.501 344.732C530.199 339.883 534.472 333.699 535.32 327.38L534.043 322.069C531.949 324.294 529.41 326.397 526.382 328.294C516.634 334.419 503.879 337.494 491.145 337.494C478.53 337.494 465.936 334.472 456.348 328.417C453.353 326.531 450.851 324.476 448.817 322.338L448.779 322.297C447.952 320.259 447.528 318.181 447.442 316.067C447.442 316.067 447.437 316.061 447.437 316.055V325.477H447.442C447.485 332.504 451.742 339.508 460.23 344.855C468.421 350.014 479.067 352.696 489.825 352.907C490.281 352.913 490.732 352.918 491.188 352.918Z" fill="url(#paint18_linear)"/>
<path d="M491.144 337.494C503.878 337.494 516.633 334.419 526.382 328.294C529.409 326.396 531.948 324.294 534.042 322.069L533.135 318.286C531.229 320.16 528.974 321.934 526.376 323.568C516.633 329.705 503.878 332.774 491.155 332.774C478.529 332.774 465.935 329.752 456.332 323.709C452.67 321.401 449.707 318.819 447.442 316.066C447.528 318.18 447.952 320.259 448.778 322.297L448.816 322.338C450.85 324.476 453.352 326.531 456.348 328.417C465.935 334.472 478.529 337.494 491.144 337.494Z" fill="url(#paint19_linear)"/>
<path d="M460.23 317.694C477.371 328.493 505.253 328.434 522.501 317.571C539.75 306.709 539.835 289.152 522.695 278.36C505.554 267.561 477.677 267.62 460.429 278.477C443.18 289.345 443.095 306.902 460.23 317.694Z" fill="#FFF9F2"/>
<path d="M460.229 316.049C477.37 326.841 505.252 326.789 522.501 315.926C530.832 310.679 535.148 303.868 535.459 297.011C535.814 304.413 531.498 311.903 522.501 317.571C505.252 328.434 477.37 328.493 460.229 317.694C451.371 312.114 447.125 304.735 447.463 297.397C447.791 304.179 452.032 310.89 460.229 316.049Z" fill="white"/>
<path d="M491.156 332.774C503.879 332.774 516.634 329.705 526.377 323.568C528.975 321.934 531.23 320.16 533.136 318.286L526.764 291.834C525.218 293.298 523.419 294.686 521.374 295.974C513.026 301.227 502.102 303.857 491.199 303.857C483.753 303.857 476.313 302.633 469.715 300.173C466.731 299.078 463.918 297.725 461.346 296.103C459.194 294.762 457.347 293.292 455.774 291.741C451.362 287.454 449.118 282.529 449.032 277.587C449.032 277.581 449.032 277.569 449.032 277.557C449.032 277.551 449.032 277.54 449.032 277.534C449.016 276.579 449.085 275.631 449.23 274.682C449.289 274.336 449.354 273.985 449.429 273.64L442.89 295.647H442.901C440.754 302.44 442.209 309.584 447.271 315.856C447.325 315.926 447.378 315.99 447.437 316.055C447.437 316.061 447.443 316.066 447.443 316.066C449.708 318.819 452.671 321.401 456.333 323.709C465.936 329.752 478.53 332.774 491.156 332.774Z" fill="url(#paint20_linear)"/>
<path d="M461.362 296.092C477.88 306.492 504.753 306.439 521.374 295.975C537.999 285.504 538.079 268.58 521.561 258.174C505.043 247.774 478.175 247.826 461.55 258.297C444.93 268.768 444.844 285.686 461.362 296.092Z" fill="#F2F2F2"/>
<path d="M469.714 300.173C466.734 299.066 463.922 297.702 461.361 296.092C459.219 294.739 457.356 293.281 455.773 291.741C457.345 293.292 459.192 294.762 461.345 296.103C463.916 297.725 466.729 299.078 469.714 300.173Z" fill="url(#paint21_linear)"/>
<path d="M473.569 301.426H491.161C489.91 301.385 488.675 301.063 487.72 300.466C486.705 299.828 486.195 298.99 486.19 298.147V291.741H455.773C457.357 293.281 459.22 294.739 461.362 296.092C463.922 297.702 466.735 299.066 469.715 300.173C470.971 300.636 472.259 301.052 473.569 301.426ZM491.697 301.426H492.02V301.409C491.912 301.421 491.805 301.421 491.697 301.426Z" fill="#797979"/>
<path fill-rule="evenodd" clip-rule="evenodd" d="M449.032 277.587C449.032 277.581 449.032 277.569 449.032 277.557C449.032 277.569 449.032 277.581 449.032 277.587ZM449.032 277.534C449.021 276.585 449.085 275.631 449.23 274.682C449.085 275.631 449.015 276.579 449.032 277.534Z" fill="url(#paint22_linear)"/>
<path d="M449.51 281.299H457.283C456.032 281.264 454.803 280.942 453.848 280.339C452.833 279.701 452.323 278.863 452.318 278.02V271.613H450.009C449.65 272.632 449.392 273.657 449.231 274.682C449.086 275.631 449.021 276.585 449.032 277.534C449.032 277.54 449.032 277.551 449.032 277.557C449.032 277.569 449.032 277.581 449.032 277.587C449.054 278.828 449.215 280.07 449.51 281.299Z" fill="#797979"/>
<path d="M491.429 301.432C491.52 301.432 491.606 301.432 491.697 301.426C491.804 301.421 491.912 301.421 492.019 301.409C493.168 301.327 494.29 301.011 495.176 300.454C496.19 299.816 496.706 298.984 496.732 298.147V274.77C494.864 274.887 492.991 274.946 491.117 274.946C489.469 274.946 487.827 274.899 486.189 274.811V291.741V298.147C486.195 298.99 486.705 299.828 487.719 300.466C488.675 301.063 489.909 301.385 491.16 301.426C491.251 301.432 491.337 301.432 491.429 301.432Z" fill="url(#paint23_linear)"/>
<path d="M487.718 262.062C489.775 263.357 493.108 263.351 495.175 262.051C497.242 260.751 497.252 258.648 495.202 257.354C493.146 256.06 489.812 256.072 487.745 257.372C485.679 258.672 485.668 260.774 487.718 262.062Z" fill="#FFF9F2"/>
<path d="M487.721 261.869C489.777 263.157 493.111 263.152 495.178 261.852C496.176 261.225 496.691 260.411 496.729 259.585C496.772 260.475 496.257 261.371 495.178 262.051C493.111 263.351 489.777 263.357 487.721 262.062C486.664 261.401 486.154 260.516 486.197 259.632C486.234 260.446 486.739 261.248 487.721 261.869Z" fill="white"/>
<path d="M457.557 281.305C458.91 281.305 460.268 280.983 461.304 280.327C462.319 279.689 462.834 278.857 462.861 278.02V270.026C459.13 268.609 455.603 266.888 452.388 264.861C452.366 264.844 452.34 264.832 452.318 264.82V266.958V271.613V278.02C452.323 278.863 452.833 279.701 453.848 280.339C454.804 280.942 456.033 281.264 457.284 281.299C457.375 281.305 457.466 281.305 457.557 281.305Z" fill="url(#paint24_linear)"/>
<path d="M453.848 241.941C455.904 243.235 459.238 243.229 461.305 241.924C463.371 240.624 463.382 238.521 461.326 237.233C459.275 235.939 455.942 235.945 453.875 237.245C451.808 238.545 451.797 240.647 453.848 241.941Z" fill="#FFF9F2"/>
<path d="M453.846 241.742C455.902 243.036 459.236 243.03 461.303 241.73C462.301 241.098 462.816 240.284 462.854 239.464C462.897 240.348 462.382 241.25 461.303 241.924C459.236 243.229 455.902 243.235 453.846 241.941C452.789 241.274 452.279 240.389 452.321 239.511C452.359 240.325 452.869 241.127 453.846 241.742Z" fill="white"/>
<path d="M524.212 281.235L523.874 279.835L528.915 276.661V265.547C526.145 267.175 523.176 268.592 520.063 269.798V278.02C520.068 278.863 520.578 279.701 521.598 280.339C522.339 280.813 523.252 281.106 524.212 281.235Z" fill="url(#paint25_linear)"/>
<path d="M521.598 241.941C523.643 243.235 526.982 243.229 529.049 241.924C531.116 240.624 531.121 238.521 529.076 237.233C527.02 235.939 523.681 235.945 521.619 237.245C519.553 238.545 519.542 240.647 521.598 241.941Z" fill="#FFF9F2"/>
<path d="M521.599 241.742C523.644 243.036 526.983 243.03 529.05 241.73C530.048 241.098 530.563 240.284 530.601 239.464C530.644 240.348 530.129 241.25 529.05 241.924C526.983 243.229 523.644 243.235 521.599 241.941C520.536 241.274 520.026 240.389 520.063 239.511C520.106 240.325 520.611 241.127 521.599 241.742Z" fill="white"/>
<path d="M415.883 140.773L343.573 95.4822L323.066 108.418L395.376 153.714L415.883 140.773Z" fill="#F2F2F2"/>
<path d="M415.818 148.087L415.883 140.773L395.376 153.709L395.317 161.017L415.818 148.087Z" fill="#B3B3B3"/>
<path d="M323.007 115.727L323.066 108.418L395.376 153.714L395.317 161.017L323.007 115.727Z" fill="#B3B3B3"/>
<path d="M448.22 242.738L409.525 218.365V185.202L395.375 176.295V153.72L448.22 242.738Z" fill="#B3B3B3"/>
<path d="M415.877 140.796L395.376 153.72L448.22 242.738L468.722 229.807L415.877 140.796Z" fill="#D9D9D9"/>
<path fill-rule="evenodd" clip-rule="evenodd" d="M491.117 274.946C492.991 274.946 494.864 274.887 496.733 274.77C504.86 274.249 512.859 272.591 520.063 269.798C523.176 268.592 526.145 267.175 528.915 265.547V253.612C518.275 259.872 504.688 263.005 491.133 263.011C491.128 263.011 491.123 263.011 491.117 263.011C491.107 263.011 491.107 263.011 491.096 263.011C481.03 263.005 470.981 261.278 462.161 257.823H462.15C461.952 257.741 461.758 257.665 461.56 257.583C458.473 256.335 455.542 254.871 452.82 253.196C452.675 253.109 452.531 253.015 452.386 252.927C441.773 246.239 436.437 237.491 436.372 228.701V235.277V240.612H436.383C436.437 249.39 441.74 258.139 452.316 264.821C452.337 264.832 452.364 264.844 452.386 264.862C455.601 266.888 459.128 268.609 462.859 270.027C470.063 272.755 478.051 274.354 486.189 274.811C487.827 274.899 489.469 274.946 491.117 274.946ZM436.372 228.367C436.377 228.033 436.383 227.693 436.404 227.36H436.372V228.367Z" fill="url(#paint26_linear)"/>
<path d="M452.385 252.927C473.831 266.431 508.714 266.361 530.294 252.769C551.874 239.177 551.987 217.211 530.535 203.701C509.089 190.197 474.212 190.268 452.626 203.854C431.046 217.451 430.939 239.417 452.385 252.927Z" fill="#666666"/>
<path d="M452.388 250.866C473.834 264.37 508.717 264.305 530.297 250.707C540.722 244.143 546.123 235.617 546.515 227.037C546.96 236.302 541.56 245.677 530.297 252.769C508.717 266.361 473.834 266.431 452.388 252.927C441.303 245.947 435.993 236.7 436.412 227.524C436.82 236.015 442.135 244.406 452.388 250.866Z" fill="#999999"/>
<path d="M437.726 220.871C438.853 217.709 440.683 214.629 443.223 211.73V211.724C440.683 214.623 438.853 217.709 437.726 220.871Z" fill="#828282"/>
<path d="M462.152 257.823H462.163C461.964 257.741 461.76 257.664 461.562 257.582C461.76 257.664 461.954 257.741 462.152 257.823Z" fill="url(#paint27_linear)"/>
<path d="M468.252 257.823H485.624C474.796 257.067 464.296 254.081 456.013 248.863C443.827 241.186 439.318 230.504 442.463 220.555H442.458L443.22 211.73C440.681 214.629 438.851 217.709 437.723 220.871C435.308 227.635 436.134 234.75 440.203 241.238C437.455 236.852 436.193 232.179 436.408 227.524C436.816 236.015 442.131 244.407 452.384 250.866C457.113 253.841 462.503 256.16 468.252 257.823ZM440.23 241.285C440.225 241.274 440.22 241.268 440.214 241.256C440.22 241.268 440.225 241.274 440.23 241.285Z" fill="#3D3D3D"/>
<path d="M462.163 257.823H468.256C462.506 256.159 457.117 253.84 452.387 250.866C442.134 244.406 436.82 236.015 436.412 227.524C436.197 232.179 437.458 236.852 440.207 241.238C440.207 241.244 440.212 241.25 440.218 241.256C440.223 241.268 440.228 241.273 440.234 241.285C442.896 245.519 446.949 249.489 452.387 252.915C455.216 254.695 458.314 256.247 461.562 257.582C461.76 257.664 461.964 257.741 462.163 257.823Z" fill="#5C5C5C"/>
<path d="M491.152 258.016C503.992 258.016 516.86 254.918 526.689 248.728C527.462 248.236 528.203 247.739 528.917 247.229V242.591L518.138 249.372V235.002L512.367 231.289L528.917 220.865V219.308V201.939L538.43 195.948L534.119 145.528L516.452 145.294C508.824 142.541 500.278 141.159 491.721 141.159C483.862 141.159 475.997 142.325 468.82 144.655L449.065 144.386L445.108 190.028L443.224 211.724V211.73L442.462 220.555H442.467C439.321 230.504 443.831 241.186 456.017 248.863C464.3 254.081 474.8 257.067 485.628 257.823C487.464 257.951 489.305 258.016 491.152 258.016Z" fill="url(#paint28_linear)"/>
<path d="M461.091 167.072C477.76 177.572 504.869 177.519 521.64 166.955C538.41 156.391 538.496 139.314 521.828 128.821C505.159 118.327 478.055 118.379 461.285 128.938C444.509 139.502 444.423 156.578 461.091 167.072Z" fill="#666666"/>
<path d="M491.194 170.72C502.017 170.72 512.146 168.091 519.721 163.324C526.63 158.973 530.431 153.451 530.431 147.776C530.436 142.172 526.7 136.726 519.914 132.451C512.458 127.761 502.457 125.178 491.736 125.178C480.909 125.178 470.779 127.802 463.21 132.574C456.295 136.919 452.495 142.442 452.495 148.116C452.489 153.72 456.231 159.166 463.016 163.441C470.468 168.132 480.474 170.72 491.194 170.72Z" fill="#595959"/>
<path d="M519.914 138.612C512.458 133.921 502.457 131.339 491.736 131.339C480.909 131.339 470.779 133.962 463.21 138.729C457.557 142.284 454.03 146.629 452.913 151.191C452.661 150.172 452.495 149.153 452.495 148.116C452.495 142.442 456.295 136.919 463.21 132.574C470.779 127.802 480.909 125.178 491.736 125.178C502.457 125.178 512.458 127.761 519.914 132.451C526.7 136.726 530.436 142.172 530.431 147.776C530.431 148.813 530.264 149.838 530.012 150.857C528.911 146.365 525.444 142.096 519.914 138.612Z" fill="url(#paint29_linear)"/>
<path d="M541.892 364.888L544.243 364.425L523.876 279.835L521.525 280.298L541.892 364.888Z" fill="#B3B3B3"/>
<path d="M544.242 364.425L594 333.084L573.633 248.5L523.875 279.835L544.242 364.425Z" fill="#D9D9D9"/>
<path d="M567.551 258.683C567.932 260.61 569.505 261.699 571.057 261.125C572.613 260.546 573.564 258.514 573.183 256.587C572.801 254.666 571.228 253.571 569.677 254.145C568.12 254.725 567.17 256.757 567.551 258.683Z" fill="#B3B3B3"/>
<path d="M568.757 257.94C569.036 259.351 570.185 260.147 571.323 259.726C572.461 259.304 573.154 257.817 572.875 256.411C572.596 255 571.447 254.204 570.309 254.625C569.176 255.047 568.478 256.534 568.757 257.94Z" fill="#E6E6E6"/>
<path d="M584.443 326.396L569.664 265.025C569.203 263.128 567.216 262.22 565.654 263.204L534.959 282.535C533.681 283.343 533.058 284.977 533.434 286.529L548.207 347.9C548.664 349.797 550.655 350.705 552.217 349.721L582.913 330.384C584.191 329.582 584.813 327.948 584.443 326.396Z" fill="#4D4D4D"/>
<path d="M541.035 318.022L541.379 319.533L577.319 296.894L576.97 295.383L541.035 318.022Z" fill="#D9D9D9"/>
<path d="M559.059 267.374L575.362 335.128L576.511 334.46L560.175 266.659L559.059 267.374Z" fill="#D9D9D9"/>
<path d="M550.067 273.031L566.365 340.791L567.52 340.123L551.184 272.316L550.067 273.031Z" fill="#D9D9D9"/>
<path d="M541.068 278.693L557.372 346.494L558.521 345.78L542.185 277.979L541.068 278.693Z" fill="#D9D9D9"/>
<path d="M543.745 357.48C544.126 359.407 545.699 360.502 547.25 359.922C548.807 359.342 549.757 357.316 549.376 355.39C548.995 353.463 547.422 352.368 545.87 352.948C544.308 353.527 543.363 355.554 543.745 357.48Z" fill="#B3B3B3"/>
<path d="M544.951 356.736C545.23 358.148 546.379 358.944 547.517 358.523C548.655 358.101 549.347 356.614 549.068 355.208C548.789 353.803 547.64 353 546.502 353.422C545.369 353.844 544.672 355.331 544.951 356.736Z" fill="#E6E6E6"/>
<path d="M526.097 283.946C526.478 285.867 528.051 286.962 529.608 286.388C531.16 285.808 532.115 283.776 531.729 281.85C531.347 279.929 529.775 278.834 528.218 279.408C526.666 279.988 525.716 282.02 526.097 283.946Z" fill="#B3B3B3"/>
<path d="M527.311 283.203C527.59 284.608 528.738 285.41 529.871 284.983C531.009 284.567 531.702 283.08 531.423 281.674C531.143 280.263 529.995 279.466 528.862 279.888C527.724 280.31 527.026 281.797 527.311 283.203Z" fill="#E6E6E6"/>
<path d="M545.36 285.756H533.33V336.047H545.36V285.756Z" fill="#E9E9E9"/>
<path d="M550.85 350.113C551.311 350.113 551.778 349.979 552.213 349.698L557.361 346.459L549.636 314.333L541.38 319.533L545.358 336.047L548.214 347.9C548.547 349.252 549.674 350.113 550.85 350.113ZM541.375 319.516L541.037 318.022L549.277 312.828L544.682 293.702L533.569 284.368C533.398 284.807 533.317 285.281 533.328 285.756C533.339 286.013 533.371 286.271 533.435 286.529L541.375 319.516Z" fill="#989898"/>
<path d="M541.382 319.533L549.639 314.333L549.279 312.828L541.039 318.022L541.377 319.516L541.382 319.533Z" fill="#E9E9E9"/>
<path d="M558.509 345.733L566.362 340.79L558.632 308.664L550.773 313.613L558.509 345.733ZM550.408 312.114L558.272 307.159L557.66 304.606L546.301 295.067L550.408 312.114Z" fill="#989898"/>
<path d="M550.776 313.613L558.635 308.664L558.275 307.159L550.411 312.114L550.776 313.613Z" fill="#E9E9E9"/>
<path d="M567.509 340.076L575.368 335.128H575.362L570.638 315.51L560.841 307.277L559.768 307.95L567.509 340.076ZM576.5 334.413L582.926 330.367C582.996 330.326 583.066 330.285 583.136 330.232C583.323 330.092 583.495 329.934 583.651 329.752C583.871 329.488 584.053 329.184 584.193 328.862L584.542 327.222V327.181L572.276 316.886L576.5 334.413ZM559.408 306.451L559.666 306.287L559.29 305.977L559.408 306.451Z" fill="#989898"/>
<path d="M559.768 307.95L560.842 307.277L559.666 306.287L559.408 306.451L559.768 307.95Z" fill="#E9E9E9"/>
<path d="M575.363 335.128H575.368L576.501 334.413L572.276 316.886L570.639 315.51L575.363 335.128Z" fill="#E9E9E9"/>
<path d="M566.366 340.791L567.51 340.076L559.769 307.95L559.409 306.451L559.291 305.977L557.664 304.606L558.276 307.159L558.636 308.664L566.366 340.791Z" fill="#E9E9E9"/>
<path d="M557.36 346.459L558.509 345.733L550.773 313.613L550.408 312.114L546.301 295.067L544.68 293.702L549.275 312.828L549.635 314.333L557.36 346.459Z" fill="#E9E9E9"/>
<path d="M518.134 249.372L566.818 218.716V204.34L518.134 235.002V249.372Z" fill="#D9D9D9"/>
<path d="M512.366 245.666L518.137 249.372V235.002L512.366 231.289V245.666Z" fill="#B3B3B3"/>
<path d="M561.048 200.627L566.818 204.34L518.134 235.002L512.363 231.289L561.048 200.627Z" fill="#F2F2F2"/>
<path d="M528.916 284.866L577.601 254.209V171.277L528.916 201.939V284.866Z" fill="#D9D9D9"/>
<path d="M528.915 284.866L537.246 279.56L532.436 276.544V205.587L528.915 219.308V220.865V228.215V242.591V247.229V251.551V253.612V265.547V284.866Z" fill="#989898"/>
<path d="M518.103 278.143L528.915 284.866V201.939L518.103 195.216V278.143Z" fill="#B3B3B3"/>
<path d="M566.784 164.554L577.601 171.277L528.916 201.939L518.105 195.216L566.784 164.554Z" fill="#F2F2F2"/>
<path d="M537.455 279.695L579.112 253.46V182.497L537.455 208.738V279.695Z" fill="#D9D9D9"/>
<path d="M575.27 213.516V189.764L541.299 211.156V234.908L575.27 213.516Z" fill="#4D4D4D"/>
<path d="M541.294 222.499V223.378L575.274 201.95V201.072L541.294 222.499Z" fill="#D9D9D9"/>
<path d="M566.665 195.163V218.933L567.357 218.517V194.742L566.665 195.163Z" fill="#D9D9D9"/>
<path d="M557.978 200.65V224.426L558.671 223.969V200.194L557.978 200.65Z" fill="#D9D9D9"/>
<path d="M549.292 206.102V229.878L550.022 229.415V205.646L549.292 206.102Z" fill="#D9D9D9"/>
<path d="M574.335 213.059V190.35L575.27 189.764V213.516L541.299 234.908V233.86L574.335 213.059Z" fill="#F2F2F2"/>
<path d="M532.437 276.544L537.456 279.695V208.737L532.437 205.587V276.544Z" fill="#B3B3B3"/>
<path d="M574.088 179.352L579.112 182.497L537.455 208.738L532.436 205.587L574.088 179.352Z" fill="#F2F2F2"/>
<path d="M541.3 233.86L549.293 228.829V218.341L541.3 223.377V233.86ZM550.023 228.367L557.979 223.36V212.86L550.023 217.879V228.367ZM558.671 222.921L566.665 217.89V212.614L559.058 212.181L558.671 212.427V222.921ZM541.3 222.499L549.293 217.457V211.619L541.3 211.156V222.499ZM567.357 217.451L574.336 213.059L567.357 212.655V217.451ZM550.023 217L557.78 212.105L550.023 211.66V217Z" fill="#989898"/>
<path d="M541.301 223.378L549.295 218.341V217.457L541.301 222.499V223.378ZM550.025 217.879L557.981 212.86V212.116L557.782 212.105L550.025 217V217.879ZM558.673 212.427L559.06 212.181L558.673 212.157V212.427Z" fill="#E9E9E9"/>
<path d="M566.665 217.89L567.357 217.451V212.655L566.665 212.614V217.89Z" fill="#E9E9E9"/>
<path d="M557.978 223.36L558.671 222.921V212.427V212.157L557.978 212.116V212.86V223.36Z" fill="#E9E9E9"/>
<path d="M549.292 228.829L550.022 228.367V217.879V217V211.66L549.292 211.619V217.457V218.341V228.829Z" fill="#E9E9E9"/>
<path d="M541.3 233.86L574.336 213.059L567.357 217.451L566.665 217.89L558.671 222.921L557.979 223.36L550.023 228.367L549.293 228.829L541.3 233.86Z" fill="#F7F7F7"/>
<path fill-rule="evenodd" clip-rule="evenodd" d="M344.674 116.945C348.856 116.945 353.049 115.937 356.254 113.923C359.383 111.949 360.983 109.384 361.047 106.808H361.053V106.433V103.113C361.053 105.496 359.738 107.885 357.112 109.812C356.849 110.005 356.576 110.193 356.291 110.374C356.275 110.38 356.264 110.392 356.254 110.398C353.054 112.412 348.872 113.419 344.69 113.419C344.685 113.419 344.68 113.419 344.674 113.419C344.669 113.419 344.658 113.419 344.653 113.419C340.68 113.419 336.719 112.506 333.621 110.679C333.61 110.673 333.605 110.667 333.594 110.661C333.53 110.626 333.471 110.591 333.406 110.55C333.347 110.515 333.288 110.48 333.235 110.444C330.422 108.67 328.865 106.41 328.559 104.091C328.559 104.085 328.559 104.079 328.559 104.073C328.559 104.067 328.554 104.061 328.554 104.05C328.527 103.827 328.511 103.605 328.505 103.382V104.987V106.808C328.521 109.402 330.094 111.99 333.235 113.97C336.391 115.955 340.53 116.945 344.674 116.945ZM361.053 103.107V102.89C361.053 102.96 361.053 103.031 361.053 103.107ZM328.505 103.083C328.505 103.019 328.511 102.955 328.511 102.89H328.505V103.083Z" fill="url(#paint30_linear)"/>
<path d="M333.234 110.444C339.568 114.432 349.875 114.415 356.253 110.397C362.625 106.38 362.657 99.8918 356.323 95.898C349.988 91.9101 339.681 91.9335 333.304 95.9449C326.932 99.9621 326.899 106.451 333.234 110.444Z" fill="#666666"/>
<path d="M329.545 102.82C330.291 103.288 331.504 103.288 332.256 102.814C333.007 102.34 333.013 101.578 332.261 101.104C331.515 100.641 330.307 100.641 329.556 101.116C328.804 101.584 328.799 102.351 329.545 102.82Z" fill="#333333"/>
<path d="M343.187 112.189C343.933 112.658 345.146 112.652 345.897 112.184C346.649 111.709 346.654 110.942 345.903 110.474C345.162 110.005 343.949 110.005 343.197 110.479C342.446 110.954 342.44 111.721 343.187 112.189Z" fill="#333333"/>
<path d="M357.26 102.82C358.006 103.288 359.219 103.288 359.971 102.814C360.722 102.34 360.722 101.578 359.976 101.104C359.23 100.636 358.017 100.641 357.265 101.116C356.519 101.584 356.514 102.351 357.26 102.82Z" fill="#333333"/>
<path d="M333.233 109.835C339.567 113.823 349.874 113.8 356.252 109.789C359.328 107.844 360.927 105.332 361.04 102.796C361.174 105.531 359.575 108.301 356.252 110.398C349.874 114.415 339.567 114.432 333.233 110.444C329.958 108.377 328.391 105.648 328.514 102.937C328.632 105.443 330.205 107.926 333.233 109.835Z" fill="#999999"/>
<path d="M328.502 103.382V103.353C328.502 103.277 328.502 103.195 328.502 103.119V103.083C328.497 103.183 328.497 103.282 328.502 103.382ZM328.507 102.89C328.593 101.286 329.275 99.6927 330.542 98.2522C329.27 99.6927 328.593 101.286 328.507 102.89ZM330.569 98.217C330.574 98.217 330.574 98.217 330.574 98.217C330.574 98.217 330.574 98.217 330.569 98.217Z" fill="#999999"/>
<path fill-rule="evenodd" clip-rule="evenodd" d="M328.557 104.091C328.557 104.085 328.557 104.079 328.557 104.073C328.557 104.079 328.557 104.085 328.557 104.091ZM328.551 104.05C328.524 103.821 328.508 103.587 328.503 103.353V103.382C328.508 103.605 328.524 103.827 328.551 104.05ZM328.503 103.119C328.503 103.042 328.508 102.966 328.508 102.89C328.508 102.955 328.503 103.019 328.503 103.083V103.119Z" fill="url(#paint31_linear)"/>
<path d="M332.617 109.425H344.33C341.49 109.367 338.683 108.658 336.525 107.3C334.281 105.883 333.153 104.032 333.143 102.176V96.0562C332.117 96.7179 331.258 97.4441 330.577 98.2171C330.577 98.2171 330.577 98.2171 330.571 98.2171C330.566 98.2288 330.555 98.2405 330.544 98.2522C329.278 99.6928 328.596 101.286 328.51 102.89C328.51 102.966 328.505 103.042 328.505 103.119C328.505 103.195 328.505 103.277 328.505 103.353C328.51 103.587 328.526 103.821 328.553 104.05C328.553 104.061 328.558 104.067 328.558 104.073C328.558 104.079 328.558 104.085 328.558 104.091C328.682 105.016 329.004 105.929 329.524 106.808C328.789 105.566 328.456 104.249 328.515 102.937C328.628 105.268 329.991 107.575 332.617 109.425ZM330.92 100.759C331.409 100.759 331.892 100.876 332.262 101.104C333.014 101.578 333.008 102.34 332.257 102.814C331.881 103.054 331.387 103.171 330.893 103.171C330.405 103.171 329.922 103.054 329.546 102.82C328.8 102.351 328.805 101.584 329.557 101.116C329.932 100.876 330.426 100.759 330.92 100.759Z" fill="#3D3D3D"/>
<path d="M330.892 103.171C331.386 103.171 331.88 103.054 332.256 102.814C333.007 102.34 333.013 101.578 332.261 101.104C331.891 100.876 331.408 100.758 330.919 100.758C330.425 100.758 329.931 100.876 329.556 101.116C328.804 101.584 328.799 102.351 329.545 102.82C329.921 103.054 330.404 103.171 330.892 103.171Z" fill="#1F1F1F"/>
<path d="M331.814 109.425H332.614C329.989 107.575 328.626 105.268 328.513 102.937C328.454 104.249 328.787 105.566 329.522 106.808C330.07 107.733 330.832 108.611 331.814 109.425Z" fill="#5C5C5C"/>
<path d="M344.706 109.425C347.696 109.425 350.692 108.705 352.978 107.265C355.217 105.853 356.36 104.02 356.414 102.176V95.9566V79.9463C355.824 80.6373 355.056 81.2932 354.127 81.8788C351.513 83.5243 348.099 84.3442 344.684 84.3442C341.308 84.3442 337.937 83.536 335.376 81.9198C334.469 81.3459 333.723 80.7076 333.143 80.0283V96.0503V96.0562V102.176C333.154 104.032 334.281 105.883 336.525 107.3C338.683 108.658 341.49 109.367 344.33 109.425C344.454 109.425 344.577 109.425 344.706 109.425Z" fill="url(#paint32_linear)"/>
<path d="M333.143 80.0282V78.33C333.137 78.33 333.137 78.33 333.137 78.3241V80.0282C333.137 80.0282 333.137 80.0282 333.143 80.0282ZM356.414 79.9462V78.2363V79.9462Z" fill="#999999"/>
<path d="M344.684 84.3441C348.099 84.3441 351.513 83.5242 354.127 81.8787C355.056 81.2931 355.824 80.6372 356.414 79.9462V78.2363C355.818 78.9273 355.051 79.5773 354.122 80.1629C351.518 81.8084 348.099 82.6283 344.695 82.6283C341.313 82.6283 337.942 81.8201 335.376 80.2039C334.469 79.6359 333.728 79.0034 333.143 78.33V80.0282C333.723 80.7075 334.469 81.3458 335.376 81.9197C337.937 83.536 341.308 84.3441 344.684 84.3441Z" fill="url(#paint33_linear)"/>
<path d="M336.524 74.793C341.055 77.6449 348.42 77.6332 352.978 74.7637C357.536 71.8884 357.563 67.2505 353.032 64.3927C348.501 61.5409 341.136 61.5584 336.578 64.4279C332.015 67.2973 331.994 71.9411 336.524 74.793Z" fill="#666666"/>
<path d="M336.525 74.3597C341.056 77.2116 348.421 77.194 352.979 74.3245C355.185 72.9425 356.323 71.1389 356.409 69.3235C356.5 71.2794 355.362 73.2646 352.979 74.7637C348.421 77.6332 341.056 77.6449 336.525 74.793C334.184 73.3173 333.062 71.3673 333.148 69.4289C333.234 71.2209 334.356 72.9952 336.525 74.3597Z" fill="#999999"/>
<path fill-rule="evenodd" clip-rule="evenodd" d="M344.694 82.6284C348.098 82.6284 351.517 81.8085 354.121 80.163C355.049 79.5774 355.817 78.9274 356.413 78.2364C357.454 77.03 357.997 75.7007 358.029 74.3656H358.034V63.1981C358.013 65.3063 356.73 67.4203 354.185 69.0424C354.164 69.0541 354.142 69.0659 354.121 69.0834C354.083 69.1069 354.04 69.1303 354.003 69.1596C351.415 70.7465 348.06 71.543 344.71 71.543C344.705 71.543 344.699 71.543 344.694 71.543C344.689 71.543 344.683 71.543 344.678 71.543C341.307 71.543 337.941 70.7348 335.375 69.1186C334.629 68.6501 333.99 68.1348 333.458 67.596C333.104 67.2271 332.798 66.8523 332.54 66.4599C332.53 66.4482 332.524 66.4424 332.519 66.4307C332.514 66.4248 332.514 66.4248 332.514 66.4248C332.127 65.8333 331.853 65.2243 331.692 64.6036C331.692 64.5977 331.692 64.5977 331.692 64.5977C331.687 64.586 331.687 64.5743 331.682 64.5626C331.682 64.5509 331.676 64.545 331.676 64.5333C331.676 64.5275 331.676 64.5216 331.671 64.5216C331.58 64.1351 331.526 63.7486 331.52 63.3563V74.3656C331.531 75.73 332.068 77.0945 333.136 78.3242C333.136 78.3301 333.136 78.3301 333.142 78.3301C333.727 79.0035 334.468 79.636 335.375 80.204C337.941 81.8203 341.312 82.6284 344.694 82.6284ZM331.52 63.1337C331.52 63.0752 331.52 63.0225 331.526 62.9639H331.52V63.1337ZM358.034 63.0869V62.9639C358.034 63.0049 358.034 63.0459 358.034 63.0869Z" fill="url(#paint34_linear)"/>
<path d="M335.373 69.1186C340.532 72.3686 348.928 72.3511 354.119 69.0834C359.316 65.8099 359.343 60.5219 354.178 57.2718C349.02 54.0218 340.624 54.0393 335.433 57.3128C330.236 60.5805 330.209 65.8685 335.373 69.1186Z" fill="#F2F2F2"/>
<path d="M335.375 68.6208C340.533 71.8709 348.929 71.8533 354.12 68.5857C356.633 67.0045 357.932 64.9549 358.023 62.8878C358.131 65.1189 356.831 67.3735 354.12 69.0834C348.929 72.3511 340.533 72.3686 335.375 69.1186C332.701 67.4379 331.429 65.2126 331.526 63.0049C331.628 65.0486 332.905 67.0689 335.375 68.6208Z" fill="#999999"/>
<path d="M331.522 63.3561V63.3034C331.522 63.2683 331.522 63.2332 331.522 63.1922V63.1336C331.517 63.2097 331.517 63.2859 331.522 63.3561ZM331.527 62.9638C331.64 60.9142 332.939 58.8821 335.435 57.3127C335.553 57.2366 335.671 57.1605 335.795 57.0902C335.671 57.1605 335.548 57.2366 335.43 57.3127C332.939 58.8821 331.635 60.9142 331.527 62.9638Z" fill="#999999"/>
<path fill-rule="evenodd" clip-rule="evenodd" d="M333.458 67.596C333.104 67.2271 332.798 66.8523 332.54 66.4599C332.798 66.8523 333.104 67.2271 333.458 67.596ZM332.519 66.4307C332.513 66.4248 332.513 66.4248 332.513 66.4248C332.513 66.4248 332.513 66.4248 332.519 66.4307ZM331.692 64.6036C331.692 64.5977 331.692 64.5977 331.692 64.5977C331.692 64.5977 331.692 64.5977 331.692 64.6036ZM331.681 64.5626C331.681 64.5509 331.676 64.545 331.676 64.5333C331.676 64.545 331.681 64.5509 331.681 64.5626ZM331.67 64.5216C331.574 64.1175 331.525 63.7135 331.52 63.3035V63.3563C331.525 63.7486 331.579 64.1351 331.67 64.5216ZM331.52 63.1923C331.52 63.1162 331.52 63.04 331.525 62.9639C331.52 63.0225 331.52 63.0752 331.52 63.1337V63.1923Z" fill="url(#paint35_linear)"/>
<path d="M333.459 67.5959H333.464C332.101 66.1963 331.457 64.5976 331.526 63.0048C331.607 64.621 332.423 66.2256 333.985 67.5959H344.335V67.5842C342.177 67.5315 340.051 66.981 338.408 65.9504C336.674 64.8553 335.805 63.4264 335.794 61.9917V57.0902C335.671 57.1605 335.553 57.2366 335.435 57.3127C332.938 58.8822 331.639 60.9142 331.526 62.9638C331.521 63.0399 331.521 63.1161 331.521 63.1922C331.521 63.2332 331.521 63.2683 331.521 63.3034C331.526 63.7134 331.575 64.1174 331.671 64.5215C331.677 64.5215 331.677 64.5274 331.677 64.5332C331.677 64.5449 331.682 64.5508 331.682 64.5625C331.687 64.5742 331.687 64.5859 331.693 64.5976C331.693 64.5976 331.693 64.5976 331.693 64.6035C331.854 65.2242 332.128 65.8332 332.514 66.4247C332.514 66.4247 332.514 66.4247 332.519 66.4306C332.525 66.4364 332.53 66.4481 332.541 66.4598C332.799 66.8522 333.105 67.227 333.459 67.5959Z" fill="#919191"/>
<path d="M333.466 67.5959H333.986C332.424 66.2256 331.608 64.6211 331.528 63.0048C331.458 64.5977 332.102 66.1963 333.466 67.5959Z" fill="#5C5C5C"/>
<path fill-rule="evenodd" clip-rule="evenodd" d="M344.721 67.5901C347.029 67.5901 349.343 67.0337 351.109 65.9211C352.837 64.8319 353.723 63.4147 353.755 61.9917H353.761V57.02V54.2676H353.755V61.9859L353.557 63.0692C351.028 64.4981 347.845 65.2125 344.672 65.2125C341.57 65.2125 338.472 64.5274 336.003 63.1629L335.799 61.9859V54.2676H335.793V57.0902V61.9917C335.804 63.4264 336.674 64.8553 338.408 65.9504C340.05 66.981 342.176 67.5315 344.334 67.5842C344.463 67.5901 344.592 67.5901 344.721 67.5901ZM336.287 54.2618C336.722 53.4712 337.436 52.7334 338.445 52.0951C337.441 52.7275 336.717 53.4712 336.287 54.2618ZM352.832 53.5415C352.483 53.1023 352.043 52.6807 351.501 52.3C352.043 52.6865 352.483 53.1023 352.832 53.5415Z" fill="url(#paint36_linear)"/>
<path d="M335.799 54.2676H336.282C336.288 54.2676 336.288 54.2676 336.288 54.2617H335.799V54.2676ZM353.305 54.2676H353.756V54.2617H353.305C353.176 54.0158 353.015 53.7757 352.833 53.5415C353.015 53.7757 353.176 54.0217 353.305 54.2676ZM351.501 52.3C351.388 52.2239 351.265 52.1419 351.142 52.0599C349.402 50.9648 347.121 50.4202 344.834 50.4202C342.525 50.4202 340.212 50.9765 338.446 52.095C340.212 50.9824 342.525 50.4202 344.834 50.4202C347.126 50.4202 349.408 50.9707 351.152 52.0716C351.27 52.1477 351.388 52.2239 351.501 52.3Z" fill="#999999"/>
<path d="M344.673 65.2125C347.845 65.2125 351.029 64.4981 353.557 63.0692L353.756 61.9858V54.2676H353.305C353.176 54.0216 353.015 53.7757 352.833 53.5415C352.484 53.1022 352.043 52.6865 351.501 52.3C351.388 52.2238 351.27 52.1477 351.152 52.0716C349.408 50.9707 347.126 50.4202 344.834 50.4202C342.525 50.4202 340.212 50.9824 338.446 52.095C337.436 52.7333 336.722 53.4712 336.288 54.2617C336.288 54.2676 336.288 54.2676 336.282 54.2676H335.799V61.9858L336.003 63.1629C338.472 64.5273 341.57 65.2125 344.673 65.2125Z" fill="url(#paint37_linear)"/>
<path d="M338.401 58.4371C341.902 60.6389 347.587 60.6272 351.108 58.4137C354.63 56.1942 354.646 52.6104 351.151 50.4085C347.651 48.2066 341.966 48.2184 338.444 50.4319C334.923 52.6514 334.907 56.2352 338.401 58.4371Z" fill="#666666"/>
<path d="M338.403 58.0975C341.903 60.3052 347.588 60.2935 351.11 58.074C352.812 57.0024 353.692 55.6145 353.756 54.2149C353.831 55.7258 352.946 57.2542 351.11 58.4137C347.588 60.6273 341.903 60.639 338.403 58.4371C336.599 57.301 335.73 55.7902 335.8 54.2969C335.864 55.6789 336.734 57.0492 338.403 58.0975Z" fill="#999999"/>
<path d="M331.52 44.6521H332.245C332.884 43.4809 333.947 42.38 335.434 41.443C340.625 38.1695 349.021 38.1578 354.18 41.4079C355.678 42.3507 356.74 43.4633 357.363 44.6521H358.034V56.0538H358.029C357.975 58.1502 356.671 60.2467 354.121 61.8512C348.93 65.1247 340.534 65.1364 335.375 61.8863C332.814 60.2759 331.537 58.1678 331.52 56.0538V44.6521Z" fill="url(#paint38_linear)"/>
<path d="M335.373 50.8068C340.532 54.0569 348.928 54.0393 354.119 50.7658C359.316 47.4981 359.343 42.2101 354.178 38.9601C349.02 35.71 340.624 35.7217 335.433 38.9952C330.236 42.2687 330.209 47.5567 335.373 50.8068Z" fill="#666666"/>
<path d="M335.375 50.309C340.533 53.5591 348.929 53.5415 354.12 50.2739C356.633 48.6927 357.932 46.6373 358.023 44.576C358.131 46.8071 356.831 49.0617 354.12 50.7658C348.929 54.0393 340.533 54.0568 335.375 50.8067C332.701 49.1261 331.429 46.9008 331.526 44.6931C331.628 46.7368 332.905 48.7571 335.375 50.309Z" fill="#999999"/>
<path d="M381.913 53.3541H342.972L321.617 66.331L315.304 62.7003L331.243 41.0506L322.82 31.3707L327.297 26.2525L357.708 42.6903L385.226 45.3958L381.913 53.3541Z" fill="#373737"/>
<path d="M381.913 51.322H342.972L321.617 64.299L315.304 60.6741L331.243 39.0186L322.82 29.3444L327.297 24.2263L357.708 40.6583L385.226 43.3696L381.913 51.322Z" fill="#666666"/>
<path d="M299.832 13.8846C300.17 21.8663 302.36 29.5319 307.992 34.9487C309.049 35.9618 310.23 36.8987 311.599 37.2208C312.501 37.4375 313.601 37.455 314.675 37.2501L314.895 37.2032C315.416 37.0568 315.931 36.887 316.425 36.6821C323.184 34.0703 328.01 27.0958 328.01 18.8973C328.01 8.46194 320.177 0 310.525 0C309.699 0 308.877 0.0585601 308.083 0.187392C307.224 0.316225 306.397 0.509473 305.592 0.767137C304.878 1.06579 304.191 1.48743 303.568 2.00861C301.963 3.33793 301.297 4.88977 300.659 6.89838C299.934 9.12952 299.735 11.5363 299.832 13.8846Z" fill="#666666"/>
<path d="M299.832 13.8847C300.17 21.8664 302.361 29.5319 307.992 34.9487C309.049 35.9618 310.23 36.8988 311.599 37.2209C312.501 37.4375 313.602 37.4551 314.675 37.2501L314.895 37.2033C315.427 37.092 315.937 36.9164 316.425 36.6821C317.365 36.2371 318.165 35.5695 318.648 34.6501C320.623 30.9022 321.182 26.5336 320.919 22.2646C320.731 19.0731 320.28 15.8757 319.389 12.8247C318.428 9.60977 316.968 7.01556 314.911 4.52676C313.934 3.34384 312.866 2.06723 311.621 1.21811C310.51 0.456828 309.291 0.134748 308.083 0.187452C307.235 0.20502 306.398 0.415836 305.592 0.767197C304.878 1.06585 304.191 1.48749 303.568 2.00867C301.963 3.33799 301.298 4.88983 300.659 6.89844C299.934 9.12958 299.736 11.5364 299.832 13.8847Z" fill="url(#paint39_linear)"/>
<path d="M323.849 58.7885C323.468 67.7658 321.004 76.3917 314.669 82.4819C313.483 83.6238 312.151 84.6721 310.611 85.041C309.596 85.2811 308.356 85.3045 307.148 85.0761L306.901 85.0176C306.316 84.8536 305.736 84.6604 305.178 84.432C297.577 81.4981 292.144 73.6452 292.144 64.422C292.144 52.6865 300.953 43.1647 311.819 43.1647C312.753 43.1647 313.676 43.2291 314.567 43.3755C315.533 43.516 316.467 43.7386 317.369 44.0255C318.169 44.3593 318.942 44.8336 319.64 45.4192C321.449 46.9184 322.201 48.6635 322.92 50.9239C323.736 53.4361 323.956 56.1416 323.849 58.7885Z" fill="#1A1A1A"/>
<path d="M323.849 58.7885C323.468 67.7658 321.004 76.3917 314.669 82.4819C313.483 83.6239 312.151 84.6721 310.611 85.041C309.596 85.2811 308.356 85.3045 307.148 85.0761L306.901 85.0176C306.305 84.8946 305.726 84.6955 305.178 84.432C304.12 83.9342 303.219 83.1788 302.682 82.1481C300.459 77.9318 299.826 73.0128 300.126 68.2108C300.336 64.6211 300.846 61.0197 301.85 57.588C302.923 53.969 304.571 51.0586 306.885 48.2536C307.98 46.9301 309.188 45.4837 310.589 44.535C311.835 43.6683 313.209 43.3169 314.567 43.3755C315.523 43.3931 316.467 43.6273 317.369 44.0255C318.169 44.3593 318.942 44.8336 319.64 45.4192C321.449 46.9184 322.201 48.6635 322.92 50.9239C323.736 53.4361 323.956 56.1416 323.849 58.7885Z" fill="url(#paint40_linear)"/>
<path d="M379.505 47.3868C379.505 57.8515 387.284 66.331 396.877 66.331C406.465 66.331 414.243 57.8515 414.243 47.3868C414.243 36.9221 406.465 28.4426 396.877 28.4426C387.284 28.4426 379.505 36.9221 379.505 47.3868Z" fill="#333333"/>
<path d="M381.973 45.7882C381.973 55.1168 388.908 62.6828 397.46 62.6828C406.017 62.6828 412.947 55.1168 412.947 45.7882C412.947 36.4537 406.017 28.8878 397.46 28.8878C388.908 28.8878 381.973 36.4537 381.973 45.7882Z" fill="#4D4D4D"/>
<path d="M389.357 43.0183C389.357 49.7644 394.371 55.2398 400.56 55.2398C406.744 55.2398 411.764 49.7644 411.764 43.0183C411.764 36.2663 406.744 30.7968 400.56 30.7968C394.371 30.7968 389.357 36.2663 389.357 43.0183Z" fill="#666666"/>
<path d="M405.235 36.7874C405.235 37.9528 406.105 38.8956 407.173 38.8956C408.247 38.8956 409.111 37.9528 409.111 36.7874C409.111 35.6162 408.247 34.6734 407.173 34.6734C406.105 34.6734 405.235 35.6162 405.235 36.7874Z" fill="#CCCCCC"/>
<path d="M408.513 39.124C408.513 39.651 408.91 40.0844 409.399 40.0844C409.882 40.0844 410.279 39.651 410.279 39.124C410.279 38.5911 409.882 38.1636 409.399 38.1636C408.91 38.1636 408.513 38.5911 408.513 39.124Z" fill="#CCCCCC"/>
<path d="M347.436 41.4606C348.349 42.0403 349.83 42.0345 350.743 41.4547C351.661 40.8809 351.666 39.9497 350.753 39.3759C349.846 38.802 348.359 38.802 347.447 39.3817C346.529 39.9556 346.523 40.8926 347.436 41.4606Z" fill="#373737"/>
<path d="M333.076 42.9363C333.988 43.5161 335.47 43.5102 336.388 42.9305C337.301 42.3566 337.306 41.4196 336.393 40.8457C335.486 40.2718 334.005 40.2777 333.087 40.8516C332.169 41.4313 332.163 42.3624 333.076 42.9363Z" fill="#373737"/>
<path d="M340.913 49.905C341.826 50.4789 343.308 50.4789 344.22 49.8991C345.138 49.3194 345.144 48.3883 344.231 47.8144C343.324 47.2405 341.842 47.2463 340.924 47.8202C340.006 48.4 340.001 49.3311 340.913 49.905Z" fill="#373737"/>
<defs>
<linearGradient id="paint0_linear" x1="455.123" y1="516.635" x2="398.102" y2="516.635" gradientUnits="userSpaceOnUse">
<stop stop-color="#CCCCCC"/>
<stop offset="0.121032" stop-color="#F2F2F2"/>
<stop offset="0.172619" stop-color="#F2F2F2"/>
<stop offset="0.188492" stop-color="#A6A6A6"/>
<stop offset="0.28373" stop-color="#A4A4A4"/>
<stop offset="0.295635" stop-color="#666666"/>
<stop offset="0.402778" stop-color="#666666"/>
<stop offset="0.418651" stop-color="#A1A1A1"/>
<stop offset="0.589286" stop-color="#898989"/>
<stop offset="0.680556" stop-color="#999999"/>
<stop offset="0.759921" stop-color="#999999"/>
<stop offset="0.843254" stop-color="#787878"/>
<stop offset="1" stop-color="#666666"/>
</linearGradient>
<linearGradient id="paint1_linear" x1="455.192" y1="516.635" x2="398.104" y2="516.635" gradientUnits="userSpaceOnUse">
<stop stop-color="#A3A3A3"/>
<stop offset="0.119111" stop-color="#8A8A8A"/>
<stop offset="0.121032" stop-color="#C2C2C2"/>
<stop offset="0.1718" stop-color="#C2C2C2"/>
<stop offset="0.172619" stop-color="#C2C2C2"/>
<stop offset="0.18824" stop-color="#868686"/>
<stop offset="0.188492" stop-color="#858585"/>
<stop offset="0.282218" stop-color="#838383"/>
<stop offset="0.28373" stop-color="#838383"/>
<stop offset="0.295446" stop-color="#525252"/>
<stop offset="0.295635" stop-color="#525252"/>
<stop offset="0.401077" stop-color="#525252"/>
<stop offset="0.402778" stop-color="#525252"/>
<stop offset="0.418399" stop-color="#808080"/>
<stop offset="0.418651" stop-color="#818181"/>
<stop offset="0.586578" stop-color="#6E6E6E"/>
<stop offset="0.589286" stop-color="#6E6E6E"/>
<stop offset="0.679107" stop-color="#7A7A7A"/>
<stop offset="0.680556" stop-color="#7A7A7A"/>
<stop offset="0.758661" stop-color="#7A7A7A"/>
<stop offset="0.759921" stop-color="#7A7A7A"/>
<stop offset="0.841931" stop-color="#616161"/>
<stop offset="0.843254" stop-color="#606060"/>
<stop offset="1" stop-color="#525252"/>
</linearGradient>
<linearGradient id="paint2_linear" x1="435.364" y1="362.399" x2="417.858" y2="362.399" gradientUnits="userSpaceOnUse">
<stop stop-color="#CCCCCC"/>
<stop offset="0.121032" stop-color="#F2F2F2"/>
<stop offset="0.172619" stop-color="#F2F2F2"/>
<stop offset="0.188492" stop-color="#A6A6A6"/>
<stop offset="0.28373" stop-color="#A4A4A4"/>
<stop offset="0.295635" stop-color="#666666"/>
<stop offset="0.402778" stop-color="#666666"/>
<stop offset="0.418651" stop-color="#A1A1A1"/>
<stop offset="0.589286" stop-color="#898989"/>
<stop offset="0.680556" stop-color="#999999"/>
<stop offset="0.759921" stop-color="#999999"/>
<stop offset="0.843254" stop-color="#787878"/>
<stop offset="1" stop-color="#666666"/>
</linearGradient>
<linearGradient id="paint3_linear" x1="530.694" y1="429.831" x2="452.237" y2="429.831" gradientUnits="userSpaceOnUse">
<stop stop-color="#D9D9D9"/>
<stop offset="0.0257937" stop-color="#D9D9D9"/>
<stop offset="0.501984" stop-color="#BFBFBF"/>
<stop offset="1" stop-color="#B3B3B3"/>
</linearGradient>
<linearGradient id="paint4_linear" x1="530.694" y1="429.825" x2="452.238" y2="429.825" gradientUnits="userSpaceOnUse">
<stop stop-color="#BFBFBF"/>
<stop offset="0.0253843" stop-color="#BFBFBF"/>
<stop offset="0.0257937" stop-color="#BFBFBF"/>
<stop offset="0.494425" stop-color="#A8A8A8"/>
<stop offset="0.501984" stop-color="#A8A8A8"/>
<stop offset="1" stop-color="#9D9D9D"/>
</linearGradient>
<linearGradient id="paint5_linear" x1="540.988" y1="417.024" x2="441.934" y2="417.024" gradientUnits="userSpaceOnUse">
<stop stop-color="#D9D9D9"/>
<stop offset="0.0257937" stop-color="#D9D9D9"/>
<stop offset="0.501984" stop-color="#BFBFBF"/>
<stop offset="1" stop-color="#B3B3B3"/>
</linearGradient>
<linearGradient id="paint6_linear" x1="540.989" y1="417.024" x2="441.934" y2="417.024" gradientUnits="userSpaceOnUse">
<stop stop-color="#6D6D6D"/>
<stop offset="0.0253843" stop-color="#6D6D6D"/>
<stop offset="0.0257937" stop-color="#6D6D6D"/>
<stop offset="0.494425" stop-color="#606060"/>
<stop offset="0.501984" stop-color="#606060"/>
<stop offset="1" stop-color="#5A5A5A"/>
</linearGradient>
<linearGradient id="paint7_linear" x1="535.49" y1="399.239" x2="447.43" y2="399.239" gradientUnits="userSpaceOnUse">
<stop stop-color="#D9D9D9"/>
<stop offset="0.0257937" stop-color="#D9D9D9"/>
<stop offset="0.501984" stop-color="#BFBFBF"/>
<stop offset="1" stop-color="#B3B3B3"/>
</linearGradient>
<linearGradient id="paint8_linear" x1="535.493" y1="399.239" x2="447.433" y2="399.239" gradientUnits="userSpaceOnUse">
<stop stop-color="#BFBFBF"/>
<stop offset="0.0253843" stop-color="#BFBFBF"/>
<stop offset="0.0257937" stop-color="#BFBFBF"/>
<stop offset="0.494425" stop-color="#A8A8A8"/>
<stop offset="0.501984" stop-color="#A8A8A8"/>
<stop offset="1" stop-color="#9D9D9D"/>
</linearGradient>
<linearGradient id="paint9_linear" x1="540.988" y1="391.193" x2="441.934" y2="391.193" gradientUnits="userSpaceOnUse">
<stop stop-color="#D9D9D9"/>
<stop offset="0.0257937" stop-color="#D9D9D9"/>
<stop offset="0.501984" stop-color="#BFBFBF"/>
<stop offset="1" stop-color="#B3B3B3"/>
</linearGradient>
<linearGradient id="paint10_linear" x1="540.989" y1="391.193" x2="441.934" y2="391.193" gradientUnits="userSpaceOnUse">
<stop stop-color="#6D6D6D"/>
<stop offset="0.0253843" stop-color="#6D6D6D"/>
<stop offset="0.0257937" stop-color="#6D6D6D"/>
<stop offset="0.494425" stop-color="#606060"/>
<stop offset="0.501984" stop-color="#606060"/>
<stop offset="1" stop-color="#5A5A5A"/>
</linearGradient>
<linearGradient id="paint11_linear" x1="535.49" y1="373.684" x2="447.43" y2="373.684" gradientUnits="userSpaceOnUse">
<stop stop-color="#D9D9D9"/>
<stop offset="0.0257937" stop-color="#D9D9D9"/>
<stop offset="0.501984" stop-color="#BFBFBF"/>
<stop offset="1" stop-color="#B3B3B3"/>
</linearGradient>
<linearGradient id="paint12_linear" x1="535.492" y1="373.684" x2="447.432" y2="373.684" gradientUnits="userSpaceOnUse">
<stop stop-color="#BFBFBF"/>
<stop offset="0.0253843" stop-color="#BFBFBF"/>
<stop offset="0.0257937" stop-color="#BFBFBF"/>
<stop offset="0.494425" stop-color="#A8A8A8"/>
<stop offset="0.501984" stop-color="#A8A8A8"/>
<stop offset="1" stop-color="#9D9D9D"/>
</linearGradient>
<linearGradient id="paint13_linear" x1="540.988" y1="365.556" x2="441.934" y2="365.556" gradientUnits="userSpaceOnUse">
<stop stop-color="#D9D9D9"/>
<stop offset="0.0257937" stop-color="#D9D9D9"/>
<stop offset="0.501984" stop-color="#BFBFBF"/>
<stop offset="1" stop-color="#B3B3B3"/>
</linearGradient>
<linearGradient id="paint14_linear" x1="535.49" y1="347.771" x2="447.43" y2="347.771" gradientUnits="userSpaceOnUse">
<stop stop-color="#D9D9D9"/>
<stop offset="0.0257937" stop-color="#D9D9D9"/>
<stop offset="0.501984" stop-color="#BFBFBF"/>
<stop offset="1" stop-color="#B3B3B3"/>
</linearGradient>
<linearGradient id="paint15_linear" x1="535.493" y1="347.765" x2="447.433" y2="347.765" gradientUnits="userSpaceOnUse">
<stop stop-color="#BFBFBF"/>
<stop offset="0.0253843" stop-color="#BFBFBF"/>
<stop offset="0.0257937" stop-color="#BFBFBF"/>
<stop offset="0.494425" stop-color="#A8A8A8"/>
<stop offset="0.501984" stop-color="#A8A8A8"/>
<stop offset="1" stop-color="#9D9D9D"/>
</linearGradient>
<linearGradient id="paint16_linear" x1="540.987" y1="339.725" x2="441.933" y2="339.725" gradientUnits="userSpaceOnUse">
<stop stop-color="#D9D9D9"/>
<stop offset="0.0257937" stop-color="#D9D9D9"/>
<stop offset="0.501984" stop-color="#BFBFBF"/>
<stop offset="1" stop-color="#B3B3B3"/>
</linearGradient>
<linearGradient id="paint17_linear" x1="541.098" y1="339.725" x2="441.928" y2="339.725" gradientUnits="userSpaceOnUse">
<stop stop-color="#6D6D6D"/>
<stop offset="0.0253843" stop-color="#6D6D6D"/>
<stop offset="0.0257937" stop-color="#6D6D6D"/>
<stop offset="0.494425" stop-color="#606060"/>
<stop offset="0.501984" stop-color="#606060"/>
<stop offset="1" stop-color="#5A5A5A"/>
</linearGradient>
<linearGradient id="paint18_linear" x1="535.492" y1="315.674" x2="447.432" y2="315.674" gradientUnits="userSpaceOnUse">
<stop stop-color="#D9D9D9"/>
<stop offset="0.0257937" stop-color="#D9D9D9"/>
<stop offset="0.501984" stop-color="#BFBFBF"/>
<stop offset="1" stop-color="#B3B3B3"/>
</linearGradient>
<linearGradient id="paint19_linear" x1="535.491" y1="315.674" x2="447.431" y2="315.674" gradientUnits="userSpaceOnUse">
<stop stop-color="#BFBFBF"/>
<stop offset="0.0253843" stop-color="#BFBFBF"/>
<stop offset="0.0257937" stop-color="#BFBFBF"/>
<stop offset="0.494425" stop-color="#A8A8A8"/>
<stop offset="0.501984" stop-color="#A8A8A8"/>
<stop offset="1" stop-color="#9D9D9D"/>
</linearGradient>
<linearGradient id="paint20_linear" x1="540.984" y1="301.59" x2="441.94" y2="301.59" gradientUnits="userSpaceOnUse">
<stop stop-color="#D9D9D9"/>
<stop offset="0.0257937" stop-color="#D9D9D9"/>
<stop offset="0.501984" stop-color="#BFBFBF"/>
<stop offset="1" stop-color="#B3B3B3"/>
</linearGradient>
<linearGradient id="paint21_linear" x1="540.982" y1="301.59" x2="441.939" y2="301.59" gradientUnits="userSpaceOnUse">
<stop stop-color="#6D6D6D"/>
<stop offset="0.0253843" stop-color="#6D6D6D"/>
<stop offset="0.0257937" stop-color="#6D6D6D"/>
<stop offset="0.494425" stop-color="#606060"/>
<stop offset="0.501984" stop-color="#606060"/>
<stop offset="1" stop-color="#5A5A5A"/>
</linearGradient>
<linearGradient id="paint22_linear" x1="541.106" y1="301.59" x2="441.932" y2="301.59" gradientUnits="userSpaceOnUse">
<stop stop-color="#6D6D6D"/>
<stop offset="0.0253843" stop-color="#6D6D6D"/>
<stop offset="0.0257937" stop-color="#6D6D6D"/>
<stop offset="0.494425" stop-color="#606060"/>
<stop offset="0.501984" stop-color="#606060"/>
<stop offset="1" stop-color="#5A5A5A"/>
</linearGradient>
<linearGradient id="paint23_linear" x1="496.732" y1="279.396" x2="486.189" y2="279.396" gradientUnits="userSpaceOnUse">
<stop stop-color="#CCCCCC"/>
<stop offset="0.121032" stop-color="#F2F2F2"/>
<stop offset="0.172619" stop-color="#F2F2F2"/>
<stop offset="0.188492" stop-color="#A6A6A6"/>
<stop offset="0.28373" stop-color="#A4A4A4"/>
<stop offset="0.295635" stop-color="#666666"/>
<stop offset="0.402778" stop-color="#666666"/>
<stop offset="0.418651" stop-color="#A1A1A1"/>
<stop offset="0.589286" stop-color="#898989"/>
<stop offset="0.680556" stop-color="#999999"/>
<stop offset="0.759921" stop-color="#999999"/>
<stop offset="0.843254" stop-color="#787878"/>
<stop offset="1" stop-color="#666666"/>
</linearGradient>
<linearGradient id="paint24_linear" x1="462.861" y1="259.275" x2="452.318" y2="259.275" gradientUnits="userSpaceOnUse">
<stop stop-color="#CCCCCC"/>
<stop offset="0.121032" stop-color="#F2F2F2"/>
<stop offset="0.172619" stop-color="#F2F2F2"/>
<stop offset="0.188492" stop-color="#A6A6A6"/>
<stop offset="0.28373" stop-color="#A4A4A4"/>
<stop offset="0.295635" stop-color="#666666"/>
<stop offset="0.402778" stop-color="#666666"/>
<stop offset="0.418651" stop-color="#A1A1A1"/>
<stop offset="0.589286" stop-color="#898989"/>
<stop offset="0.680556" stop-color="#999999"/>
<stop offset="0.759921" stop-color="#999999"/>
<stop offset="0.843254" stop-color="#787878"/>
<stop offset="1" stop-color="#666666"/>
</linearGradient>
<linearGradient id="paint25_linear" x1="530.606" y1="259.275" x2="520.063" y2="259.275" gradientUnits="userSpaceOnUse">
<stop stop-color="#CCCCCC"/>
<stop offset="0.121032" stop-color="#F2F2F2"/>
<stop offset="0.172619" stop-color="#F2F2F2"/>
<stop offset="0.188492" stop-color="#A6A6A6"/>
<stop offset="0.28373" stop-color="#A4A4A4"/>
<stop offset="0.295635" stop-color="#666666"/>
<stop offset="0.402778" stop-color="#666666"/>
<stop offset="0.418651" stop-color="#A1A1A1"/>
<stop offset="0.589286" stop-color="#898989"/>
<stop offset="0.680556" stop-color="#999999"/>
<stop offset="0.759921" stop-color="#999999"/>
<stop offset="0.843254" stop-color="#787878"/>
<stop offset="1" stop-color="#666666"/>
</linearGradient>
<linearGradient id="paint26_linear" x1="546.555" y1="239.364" x2="436.372" y2="239.364" gradientUnits="userSpaceOnUse">
<stop stop-color="#4D4D4D"/>
<stop offset="0.273597" stop-color="#4D4D4D"/>
<stop offset="0.277778" stop-color="#333333"/>
<stop offset="0.786579" stop-color="#333333"/>
<stop offset="0.794198" stop-color="#1A1A1A"/>
<stop offset="1" stop-color="#1A1A1A"/>
</linearGradient>
<linearGradient id="paint27_linear" x1="546.555" y1="239.373" x2="436.375" y2="239.373" gradientUnits="userSpaceOnUse">
<stop stop-color="#2E2E2E"/>
<stop offset="0.269254" stop-color="#2E2E2E"/>
<stop offset="0.273597" stop-color="#2E2E2E"/>
<stop offset="0.277712" stop-color="#1F1F1F"/>
<stop offset="0.277778" stop-color="#1F1F1F"/>
<stop offset="0.778503" stop-color="#1F1F1F"/>
<stop offset="0.786579" stop-color="#1F1F1F"/>
<stop offset="0.794077" stop-color="#101010"/>
<stop offset="0.794198" stop-color="#101010"/>
<stop offset="1" stop-color="#101010"/>
</linearGradient>
<linearGradient id="paint28_linear" x1="541.425" y1="199.585" x2="441.496" y2="199.585" gradientUnits="userSpaceOnUse">
<stop stop-color="#4D4D4D"/>
<stop offset="0.273597" stop-color="#4D4D4D"/>
<stop offset="0.277778" stop-color="#333333"/>
<stop offset="0.786579" stop-color="#333333"/>
<stop offset="0.794198" stop-color="#1A1A1A"/>
<stop offset="1" stop-color="#1A1A1A"/>
</linearGradient>
<linearGradient id="paint29_linear" x1="530.431" y1="138.184" x2="452.495" y2="138.184" gradientUnits="userSpaceOnUse">
<stop stop-color="#1A1A1A"/>
<stop offset="0.205802" stop-color="#1A1A1A"/>
<stop offset="0.213421" stop-color="#333333"/>
<stop offset="0.722222" stop-color="#333333"/>
<stop offset="0.726403" stop-color="#4D4D4D"/>
<stop offset="1" stop-color="#4D4D4D"/>
</linearGradient>
<linearGradient id="paint30_linear" x1="361.053" y1="106.439" x2="328.5" y2="106.439" gradientUnits="userSpaceOnUse">
<stop stop-color="#4D4D4D"/>
<stop offset="0.273597" stop-color="#4D4D4D"/>
<stop offset="0.277778" stop-color="#333333"/>
<stop offset="0.786579" stop-color="#333333"/>
<stop offset="0.794198" stop-color="#1A1A1A"/>
<stop offset="1" stop-color="#1A1A1A"/>
</linearGradient>
<linearGradient id="paint31_linear" x1="361.07" y1="106.439" x2="328.503" y2="106.439" gradientUnits="userSpaceOnUse">
<stop stop-color="#2E2E2E"/>
<stop offset="0.269254" stop-color="#2E2E2E"/>
<stop offset="0.273597" stop-color="#2E2E2E"/>
<stop offset="0.277712" stop-color="#1F1F1F"/>
<stop offset="0.277778" stop-color="#1F1F1F"/>
<stop offset="0.778503" stop-color="#1F1F1F"/>
<stop offset="0.786579" stop-color="#1F1F1F"/>
<stop offset="0.794077" stop-color="#101010"/>
<stop offset="0.794198" stop-color="#101010"/>
<stop offset="1" stop-color="#101010"/>
</linearGradient>
<linearGradient id="paint32_linear" x1="356.414" y1="86.9208" x2="333.143" y2="86.9208" gradientUnits="userSpaceOnUse">
<stop stop-color="#CCCCCC"/>
<stop offset="0.121032" stop-color="#F2F2F2"/>
<stop offset="0.172619" stop-color="#F2F2F2"/>
<stop offset="0.188492" stop-color="#A6A6A6"/>
<stop offset="0.28373" stop-color="#A4A4A4"/>
<stop offset="0.295635" stop-color="#666666"/>
<stop offset="0.402778" stop-color="#666666"/>
<stop offset="0.418651" stop-color="#A1A1A1"/>
<stop offset="0.589286" stop-color="#898989"/>
<stop offset="0.680556" stop-color="#999999"/>
<stop offset="0.759921" stop-color="#999999"/>
<stop offset="0.843254" stop-color="#787878"/>
<stop offset="1" stop-color="#666666"/>
</linearGradient>
<linearGradient id="paint33_linear" x1="356.414" y1="86.9207" x2="333.143" y2="86.9207" gradientUnits="userSpaceOnUse">
<stop stop-color="#7A7A7A"/>
<stop offset="0.119111" stop-color="#686868"/>
<stop offset="0.121032" stop-color="#919191"/>
<stop offset="0.1718" stop-color="#919191"/>
<stop offset="0.172619" stop-color="#919191"/>
<stop offset="0.18824" stop-color="#646464"/>
<stop offset="0.188492" stop-color="#646464"/>
<stop offset="0.282218" stop-color="#626262"/>
<stop offset="0.28373" stop-color="#626262"/>
<stop offset="0.295446" stop-color="#3E3E3E"/>
<stop offset="0.295635" stop-color="#3D3D3D"/>
<stop offset="0.401077" stop-color="#3D3D3D"/>
<stop offset="0.402778" stop-color="#3D3D3D"/>
<stop offset="0.418399" stop-color="#606060"/>
<stop offset="0.418651" stop-color="#616161"/>
<stop offset="0.586578" stop-color="#525252"/>
<stop offset="0.589286" stop-color="#525252"/>
<stop offset="0.679107" stop-color="#5C5C5C"/>
<stop offset="0.680556" stop-color="#5C5C5C"/>
<stop offset="0.758661" stop-color="#5C5C5C"/>
<stop offset="0.759921" stop-color="#5C5C5C"/>
<stop offset="0.841931" stop-color="#494949"/>
<stop offset="0.843254" stop-color="#484848"/>
<stop offset="1" stop-color="#3D3D3D"/>
</linearGradient>
<linearGradient id="paint34_linear" x1="358.034" y1="69.9618" x2="331.515" y2="69.9618" gradientUnits="userSpaceOnUse">
<stop stop-color="#CCCCCC"/>
<stop offset="0.121032" stop-color="#F2F2F2"/>
<stop offset="0.172619" stop-color="#F2F2F2"/>
<stop offset="0.188492" stop-color="#A6A6A6"/>
<stop offset="0.28373" stop-color="#A4A4A4"/>
<stop offset="0.295635" stop-color="#666666"/>
<stop offset="0.402778" stop-color="#666666"/>
<stop offset="0.418651" stop-color="#A1A1A1"/>
<stop offset="0.589286" stop-color="#898989"/>
<stop offset="0.680556" stop-color="#999999"/>
<stop offset="0.759921" stop-color="#999999"/>
<stop offset="0.843254" stop-color="#787878"/>
<stop offset="1" stop-color="#666666"/>
</linearGradient>
<linearGradient id="paint35_linear" x1="358.033" y1="69.9618" x2="331.52" y2="69.9618" gradientUnits="userSpaceOnUse">
<stop stop-color="#7A7A7A"/>
<stop offset="0.119111" stop-color="#686868"/>
<stop offset="0.121032" stop-color="#919191"/>
<stop offset="0.1718" stop-color="#919191"/>
<stop offset="0.172619" stop-color="#919191"/>
<stop offset="0.18824" stop-color="#646464"/>
<stop offset="0.188492" stop-color="#646464"/>
<stop offset="0.282218" stop-color="#626262"/>
<stop offset="0.28373" stop-color="#626262"/>
<stop offset="0.295446" stop-color="#3E3E3E"/>
<stop offset="0.295635" stop-color="#3D3D3D"/>
<stop offset="0.401077" stop-color="#3D3D3D"/>
<stop offset="0.402778" stop-color="#3D3D3D"/>
<stop offset="0.418399" stop-color="#606060"/>
<stop offset="0.418651" stop-color="#616161"/>
<stop offset="0.586578" stop-color="#525252"/>
<stop offset="0.589286" stop-color="#525252"/>
<stop offset="0.679107" stop-color="#5C5C5C"/>
<stop offset="0.680556" stop-color="#5C5C5C"/>
<stop offset="0.758661" stop-color="#5C5C5C"/>
<stop offset="0.759921" stop-color="#5C5C5C"/>
<stop offset="0.841931" stop-color="#494949"/>
<stop offset="0.843254" stop-color="#484848"/>
<stop offset="1" stop-color="#3D3D3D"/>
</linearGradient>
<linearGradient id="paint36_linear" x1="353.761" y1="59.0052" x2="335.793" y2="59.0052" gradientUnits="userSpaceOnUse">
<stop stop-color="#4D4D4D"/>
<stop offset="0.273597" stop-color="#4D4D4D"/>
<stop offset="0.277778" stop-color="#333333"/>
<stop offset="0.786579" stop-color="#333333"/>
<stop offset="0.794198" stop-color="#1A1A1A"/>
<stop offset="1" stop-color="#1A1A1A"/>
</linearGradient>
<linearGradient id="paint37_linear" x1="353.761" y1="59.0051" x2="335.794" y2="59.0051" gradientUnits="userSpaceOnUse">
<stop stop-color="#2E2E2E"/>
<stop offset="0.269254" stop-color="#2E2E2E"/>
<stop offset="0.273597" stop-color="#2E2E2E"/>
<stop offset="0.277712" stop-color="#1F1F1F"/>
<stop offset="0.277778" stop-color="#1F1F1F"/>
<stop offset="0.778503" stop-color="#1F1F1F"/>
<stop offset="0.786579" stop-color="#1F1F1F"/>
<stop offset="0.794077" stop-color="#101010"/>
<stop offset="0.794198" stop-color="#101010"/>
<stop offset="1" stop-color="#101010"/>
</linearGradient>
<linearGradient id="paint38_linear" x1="358.034" y1="51.65" x2="331.515" y2="51.65" gradientUnits="userSpaceOnUse">
<stop stop-color="#CCCCCC"/>
<stop offset="0.121032" stop-color="#F2F2F2"/>
<stop offset="0.172619" stop-color="#F2F2F2"/>
<stop offset="0.188492" stop-color="#A6A6A6"/>
<stop offset="0.28373" stop-color="#A4A4A4"/>
<stop offset="0.295635" stop-color="#666666"/>
<stop offset="0.402778" stop-color="#666666"/>
<stop offset="0.418651" stop-color="#A1A1A1"/>
<stop offset="0.589286" stop-color="#898989"/>
<stop offset="0.680556" stop-color="#999999"/>
<stop offset="0.759921" stop-color="#999999"/>
<stop offset="0.843254" stop-color="#787878"/>
<stop offset="1" stop-color="#666666"/>
</linearGradient>
<linearGradient id="paint39_linear" x1="319.067" y1="13.1234" x2="301.464" y2="23.3054" gradientUnits="userSpaceOnUse">
<stop stop-color="#1A1A1A"/>
<stop offset="1" stop-color="#666666"/>
</linearGradient>
<linearGradient id="paint40_linear" x1="315.904" y1="45.3138" x2="305.977" y2="84.4666" gradientUnits="userSpaceOnUse">
<stop stop-color="#333333"/>
<stop offset="1" stop-color="#666666"/>
</linearGradient>
</defs>
</svg>
