<svg width="483" height="358" viewBox="0 0 483 358" fill="none" xmlns="http://www.w3.org/2000/svg">
<path opacity="0.1" d="M93.2904 41.7355C97.3276 17.6466 118.178 9.91821e-05 142.603 9.91821e-05H432.285C459.899 9.91821e-05 482.285 22.3859 482.285 50.0001V308C482.285 335.614 459.899 358 432.285 358H99.3624C68.4471 358 44.9401 330.226 50.0502 299.736L93.2904 41.7355Z" fill="#68C9BA"/>
<path d="M450.014 94.03C475.738 123.207 445.363 151.381 391.903 152.141C285.616 145.137 261.631 51.0074 269.664 29.9028C277.697 8.7982 301.615 8.2221 337.054 51.2151C372.493 94.208 417.858 57.5572 450.014 94.03Z" stroke="white" stroke-width="1.5"/>
<path d="M342.112 68.4621C350.815 71.7539 359.447 70.2534 361.393 65.1106C363.338 59.9678 357.859 53.1302 349.156 49.8383C340.453 46.5465 331.821 48.047 329.875 53.1898C327.93 58.3326 333.409 65.1702 342.112 68.4621Z" stroke="white" stroke-width="1.5"/>
<path d="M146 103.444C146 141.796 113.317 172.888 73.0002 172.888C32.6834 172.888 0 141.796 0 103.444C0 65.0909 32.6834 34 73.0002 34C113.317 34 146 65.0909 146 103.444Z" fill="#EDF7F7"/>
<path d="M73.668 124.56V70.608C73.668 69.856 73.0275 69.247 72.2372 69.247H72.2082C71.4178 69.247 70.7773 69.856 70.7773 70.608V124.615C66.5051 125.345 63.2627 128.897 63.2627 133.171C63.2627 137.973 67.3548 141.866 72.4032 141.866C77.4516 141.866 81.544 137.973 81.544 133.171C81.544 128.777 78.1173 125.147 73.668 124.56Z" fill="#A44040"/>
<path d="M66.1137 120.539C66.1137 118.414 66.1137 116.289 66.1137 114.164C66.1137 104.148 66.1137 94.132 66.1137 84.116C66.1137 79.829 66.1137 75.542 66.1137 71.254C66.1137 68.841 65.685 66.0124 67.1497 63.9119C68.8201 61.5173 73.5013 61.2704 76.0158 62.4884C77.9471 63.4244 78.6939 65.3525 78.6939 67.2886C78.6939 70.129 78.6939 72.971 78.6939 75.811C78.6939 86.081 78.6939 96.351 78.6939 106.621C78.6939 111.268 78.6939 115.915 78.6939 120.563C78.6939 120.941 78.8485 121.224 79.0794 121.412C79.1443 121.47 79.2189 121.524 79.3034 121.573C87.0016 126.044 88.2178 136.133 81.8097 142.146C75.6879 147.891 65.4569 146.324 60.8872 139.67C58.5435 136.257 58.2419 132.002 59.6299 128.205C60.3102 126.343 61.5726 124.704 63.0383 123.336C63.8466 122.582 66.1137 121.755 66.1137 120.539ZM63.6533 82.295C63.6533 94.838 63.6533 107.381 63.6533 119.924C57.7981 123.657 55.0568 130.445 56.9384 136.985C58.8006 143.458 65.2592 147.862 72.1829 148.066C79.2275 148.272 85.4527 143.693 87.7115 137.492C90.1004 130.934 87.0461 123.696 81.1543 119.925C81.1543 103.858 81.1543 87.791 81.1543 71.724C81.1543 69.57 81.3724 67.2761 80.9565 65.145C79.6917 58.6623 69.5159 57.7818 65.4821 62.1653C63.3696 64.4609 63.6533 67.3795 63.6533 70.186C63.6533 74.222 63.6533 78.259 63.6533 82.295Z" fill="#272425"/>
<path d="M48.5176 78.199C48.5176 84.994 54.3083 90.502 61.4516 90.502V65.8949C54.3083 65.8949 48.5176 71.404 48.5176 78.199Z" fill="#272425"/>
<path d="M40.3801 59.8798C43.1183 61.9714 45.8568 64.0634 48.5953 66.155C49.7494 67.0369 51.4018 65.4859 50.2353 64.5949C47.4971 62.503 44.7586 60.4113 42.0201 58.3194C40.866 57.4375 39.2136 58.9884 40.3801 59.8798Z" fill="#272425"/>
<path d="M55.8756 60.2018C56.5535 61.4707 58.5545 60.3538 57.8784 59.0882C56.3005 56.1338 54.7223 53.179 53.1444 50.2246C52.4666 48.9557 50.4656 50.0729 51.1413 51.3385C52.7195 54.293 54.2974 57.2474 55.8756 60.2018Z" fill="#272425"/>
<path d="M35.4282 85.489C38.8984 84.736 42.3686 83.982 45.8388 83.229C47.2965 82.912 46.6781 80.785 45.222 81.101C41.7519 81.855 38.2817 82.608 34.8115 83.361C33.3537 83.678 33.9722 85.805 35.4282 85.489Z" fill="#272425"/>
<path d="M34.8115 72.165C38.2675 72.915 41.7236 73.666 45.1796 74.416C46.636 74.732 47.2544 72.605 45.796 72.289C42.3403 71.538 38.8843 70.788 35.4282 70.038C33.9722 69.721 33.3537 71.849 34.8115 72.165Z" fill="#272425"/>
<path d="M48.5949 89.415C45.8564 91.492 43.1179 93.57 40.3797 95.647C39.2101 96.534 40.8633 98.085 42.0197 97.207C44.7583 95.13 47.4968 93.052 50.2349 90.975C51.4046 90.088 49.7518 88.537 48.5949 89.415Z" fill="#272425"/>
<path d="M53.1452 105.302C54.7231 102.331 56.3013 99.36 57.8792 96.389C58.5522 95.122 56.5512 94.005 55.8765 95.275C54.2982 98.246 52.7204 101.217 51.1421 104.188C50.4695 105.455 52.4705 106.572 53.1452 105.302Z" fill="#272425"/>
<path d="M86.479 76.629C88.353 76.629 90.227 76.629 92.1009 76.629C93.4531 76.629 93.4531 74.635 92.1009 74.635C90.227 74.635 88.353 74.635 86.479 74.635C85.1268 74.635 85.1268 76.629 86.479 76.629Z" fill="#272425"/>
<path d="M86.479 88.507C88.353 88.507 90.227 88.507 92.1009 88.507C93.4531 88.507 93.4531 86.513 92.1009 86.513C90.227 86.513 88.353 86.513 86.479 86.513C85.1268 86.513 85.1268 88.507 86.479 88.507Z" fill="#272425"/>
<path d="M86.479 101.449C88.353 101.449 90.227 101.449 92.1009 101.449C93.4531 101.449 93.4531 99.454 92.1009 99.454C90.227 99.454 88.353 99.454 86.479 99.454C85.1268 99.454 85.1268 101.449 86.479 101.449Z" fill="#272425"/>
<path d="M145.998 247.297C146.149 285.649 113.589 316.857 73.2726 317C32.9562 317.142 0.150989 286.167 0.000517052 247.815C-0.14961 209.463 32.4116 178.256 72.7281 178.113C113.044 177.97 145.848 208.945 145.998 247.297Z" fill="#EDF7F7"/>
<path d="M145.998 247.297C146.149 285.649 113.589 316.857 73.2726 317C32.9562 317.142 0.150989 286.167 0.000517052 247.815C-0.14961 209.463 32.4116 178.256 72.7281 178.113C113.044 177.97 145.848 208.945 145.998 247.297Z" fill="#EDF7F7"/>
<path d="M79.1239 265.11L78.9123 211.158C78.9092 210.406 78.2662 209.799 77.4759 209.802H77.4469C76.6566 209.805 76.0185 210.416 76.0216 211.168L76.2332 265.175C71.964 265.92 68.7351 269.483 68.752 273.757C68.7707 278.559 72.8783 282.438 77.9266 282.42C82.9747 282.402 87.0519 278.495 87.0329 273.692C87.0157 269.299 83.5752 265.68 79.1239 265.11Z" fill="#65A7DD"/>
<path d="M71.5517 261.116C71.5434 258.991 71.5351 256.866 71.5269 254.741C71.4875 244.725 71.4482 234.709 71.4088 224.693C71.3919 220.406 71.3754 216.118 71.3585 211.831C71.3491 209.418 70.9095 206.591 72.3662 204.485C74.0269 202.084 78.7067 201.821 81.2261 203.03C83.1612 203.959 83.9159 205.884 83.9235 207.82C83.9346 210.662 83.9456 213.503 83.957 216.344C83.997 226.613 84.0374 236.883 84.0778 247.152C84.0957 251.8 84.114 256.447 84.1323 261.095C84.1337 261.472 84.2894 261.755 84.5213 261.943C84.5862 262 84.661 262.054 84.7456 262.103C92.4611 266.546 93.7173 276.631 87.3326 282.667C81.2337 288.433 70.9964 286.903 66.4005 280.264C64.0437 276.86 63.7255 272.607 65.098 268.804C65.7713 266.94 67.0276 265.296 68.4878 263.923C69.2926 263.166 71.5565 262.331 71.5517 261.116ZM68.9419 222.88C68.9909 235.423 69.0403 247.966 69.0893 260.509C63.2488 264.263 60.5338 271.061 62.4409 277.594C64.3291 284.06 70.8049 288.442 77.7293 288.62C84.7746 288.802 90.9816 284.201 93.2162 277.992C95.5796 271.425 92.497 264.199 86.5899 260.448C86.5268 244.381 86.464 228.314 86.4008 212.247C86.3925 210.093 86.602 207.798 86.1775 205.669C84.8874 199.191 74.7078 198.346 70.6917 202.744C68.5882 205.048 68.8833 207.965 68.8943 210.771C68.9102 214.808 68.9261 218.844 68.9419 222.88Z" fill="#272425"/>
<path d="M88.98 220.954C90.7971 220.948 92.6138 220.941 94.4309 220.935C95.7416 220.93 95.734 218.997 94.4233 219.001C92.6062 219.007 90.7895 219.014 88.9724 219.021C87.6617 219.025 87.6693 220.959 88.98 220.954Z" fill="#272425"/>
<path d="M89.0259 232.47C90.843 232.463 92.6597 232.457 94.4767 232.451C95.7875 232.446 95.7799 230.512 94.4692 230.517C92.6521 230.523 90.8354 230.53 89.0184 230.536C87.7076 230.541 87.7152 232.474 89.0259 232.47Z" fill="#272425"/>
<path d="M89.0748 245.017C90.8915 245.01 92.7082 245.004 94.5252 244.997C95.836 244.993 95.8284 243.059 94.5176 243.063C92.7006 243.07 90.8842 243.077 89.0672 243.083C87.7564 243.087 87.764 245.021 89.0748 245.017Z" fill="#272425"/>
<path d="M36.9156 210.99C38.8048 210.57 40.694 210.149 42.5835 209.73C42.6746 209.709 42.7533 209.678 42.8261 209.643C45.2734 211.089 47.7209 212.534 50.1685 213.98C47.7455 215.503 45.3231 217.026 42.9 218.548C42.862 218.537 42.8265 218.523 42.7844 218.514C40.8835 218.145 38.9829 217.775 37.082 217.406C35.8475 217.166 35.3298 218.964 36.5677 219.205C37.9137 219.467 39.2593 219.729 40.6053 219.99C39.5772 220.636 38.5494 221.282 37.5217 221.928C36.4721 222.588 37.4592 224.2 38.517 223.534C39.591 222.86 40.665 222.185 41.739 221.51C41.4726 222.751 41.2058 223.993 40.939 225.234C40.6867 226.409 42.578 226.901 42.8306 225.723C43.213 223.944 43.5954 222.164 43.9778 220.384C43.9999 220.282 44.0002 220.186 43.9919 220.094C46.2994 218.644 48.6069 217.194 50.9136 215.744C50.9236 218.312 50.9337 220.88 50.944 223.449C50.8974 223.48 50.8512 223.514 50.8067 223.556C49.44 224.866 48.0733 226.176 46.7063 227.486C45.8152 228.34 47.2064 229.654 48.0971 228.8C49.0497 227.887 50.0022 226.974 50.954 226.062C50.9589 227.249 50.9633 228.435 50.9682 229.622C50.9727 230.824 52.9326 230.817 52.9281 229.615C52.9233 228.408 52.9184 227.2 52.9139 225.993C53.8734 226.899 54.8328 227.804 55.7922 228.711C56.6899 229.558 58.0707 228.235 57.1731 227.387C55.8178 226.107 54.4625 224.828 53.1072 223.549C53.0416 223.486 52.9737 223.439 52.9036 223.4C52.8932 220.792 52.8832 218.185 52.8729 215.578C55.2456 216.98 57.6183 218.382 59.991 219.783C59.9934 219.849 60.0023 219.917 60.0193 219.987C60.4613 221.785 60.9028 223.582 61.3445 225.379C61.6323 226.55 63.5198 226.046 63.2323 224.877C62.9279 223.637 62.6232 222.398 62.3188 221.158C63.3873 221.79 64.4557 222.421 65.5242 223.052C66.6017 223.688 67.578 222.071 66.5075 221.439C65.4373 220.807 64.3671 220.174 63.2968 219.542C64.6269 219.246 65.9577 218.95 67.2881 218.655C68.5181 218.381 67.9891 216.585 66.7598 216.858C64.9006 217.272 63.0411 217.686 61.182 218.099C61.1047 218.116 61.0346 218.14 60.9707 218.168C58.5801 216.756 56.1895 215.343 53.7988 213.931C56.1681 212.442 58.5373 210.953 60.9069 209.464L60.9818 209.486C62.8523 209.85 64.7236 210.213 66.5941 210.577C67.8279 210.817 68.3459 209.018 67.108 208.778C65.8072 208.525 64.5065 208.271 63.2061 208.019C64.1341 207.436 65.0621 206.853 65.9901 206.269C67.0397 205.61 66.0526 203.998 64.9945 204.663C64.0026 205.287 63.0104 205.91 62.0182 206.533C62.2939 205.249 62.5697 203.964 62.8461 202.68C63.0984 201.505 61.2071 201.013 60.9538 202.191C60.5656 203.999 60.177 205.808 59.7887 207.616C59.7635 207.732 59.7646 207.839 59.7784 207.941C57.4723 209.391 55.1662 210.84 52.8601 212.289C52.8494 209.569 52.8387 206.849 52.828 204.129C52.8632 204.103 52.8991 204.08 52.9329 204.047C54.2782 202.758 55.6231 201.469 56.9681 200.18C57.8595 199.326 56.4683 198.013 55.5772 198.866C54.6571 199.748 53.7374 200.629 52.8177 201.511C52.8135 200.438 52.8094 199.365 52.8052 198.292C52.8004 197.09 50.8405 197.097 50.8453 198.299C50.8494 199.413 50.8539 200.528 50.8584 201.642C49.8662 200.705 48.8743 199.768 47.8818 198.832C46.9841 197.984 45.6033 199.307 46.5013 200.155C47.8783 201.455 49.255 202.755 50.6324 204.055C50.7079 204.127 50.788 204.178 50.8684 204.22C50.8788 206.886 50.8895 209.552 50.8998 212.218C48.523 210.814 46.1458 209.41 43.7686 208.005C43.7642 207.952 43.76 207.898 43.7459 207.841C43.311 206.072 42.8765 204.304 42.4417 202.535C42.1542 201.364 40.2664 201.868 40.5539 203.037C40.8479 204.234 41.1419 205.431 41.436 206.628C40.4693 206.056 39.5023 205.485 38.5356 204.914C37.4585 204.277 36.4818 205.895 37.5527 206.527C38.5398 207.111 39.5264 207.693 40.5135 208.276C39.1378 208.582 37.7629 208.888 36.3872 209.194C35.1566 209.468 35.6863 211.264 36.9156 210.99Z" fill="#272425"/>
</svg>
