<svg width="510" height="358" viewBox="0 0 510 358" fill="none" xmlns="http://www.w3.org/2000/svg">
<path opacity="0.1" d="M120.29 41.7356C124.328 17.6468 145.178 0.000198364 169.603 0.000198364H459.285C486.899 0.000198364 509.285 22.386 509.285 50.0002V308C509.285 335.614 486.899 358 459.285 358H126.362C95.4471 358 71.9401 330.226 77.0502 299.736L120.29 41.7356Z" fill="#68C9BA"/>
<path d="M477.014 94.03C502.738 123.208 472.363 151.381 418.903 152.142C312.616 145.137 288.631 51.0076 296.664 29.903C304.697 8.7984 328.615 8.2223 364.054 51.2153C399.493 94.208 444.858 57.5575 477.014 94.03Z" stroke="white" stroke-width="1.5"/>
<path d="M369.112 68.4624C377.815 71.7542 386.447 70.2537 388.393 65.1109C390.338 59.9681 384.859 53.1305 376.156 49.8386C367.453 46.5468 358.821 48.0473 356.875 53.1901C354.93 58.3329 360.409 65.1705 369.112 68.4624Z" stroke="white" stroke-width="1.5"/>
<path d="M146 173.444C146 211.796 113.317 242.888 73.0002 242.888C32.6834 242.888 0 211.796 0 173.444C0 135.091 32.6834 104 73.0002 104C113.317 104 146 135.091 146 173.444Z" fill="#EDF7F7"/>
<path d="M39.7333 185.19C40.412 185.872 41.4129 186.522 42.457 187.109C49.3033 188.945 49.0967 191.029 48.9558 192.247C48.8037 193.559 46.2226 193.559 46.2226 193.559L25.864 191.497C25.3531 191.889 25.0006 192.49 24.9383 193.189C24.8945 193.671 24.9961 194.132 25.2044 194.529L41.2658 196.256C41.2658 196.256 42.5569 196.718 41.913 197.162L41.9276 197.164C41.9389 197.256 41.9439 197.348 41.9406 197.44L25.4008 197.096C24.1019 197.069 23.0274 198.117 23.0005 199.438C22.9881 200.06 23.211 200.632 23.5865 201.065L41.7856 201.628C41.7856 201.628 43.038 201.589 42.6299 202.307C42.6664 202.399 42.6995 202.491 42.7281 202.583L28.8868 203.485C27.7091 203.562 26.816 204.594 26.8912 205.791C26.9244 206.317 27.1393 206.787 27.47 207.142L43.3456 206.339C43.3456 206.339 45.4013 206.034 44.7636 207.112L32.3358 209.458C31.3815 209.638 30.7517 210.57 30.929 211.54C30.9992 211.925 31.1867 212.258 31.4466 212.508C34.4167 211.968 44.9853 210.025 45.3367 209.668C45.3367 209.668 52.9055 209.46 54.5418 208.143C56.1782 206.827 57.3374 200.936 61.9056 200.867C66.4745 200.798 64.8533 204.539 64.8533 204.539L123 207.925V193.294C107.032 193.287 66.8832 193.833 64.9723 193.526C64.4413 193.441 64.0085 193.082 63.6571 192.583C63.5375 192.567 63.4656 192.547 63.4437 192.526C62.2133 191.275 56.8804 187.21 47.9796 184.816C40.5984 182.83 40.183 181.564 40.183 181.564C40.183 181.564 37.7927 183.24 39.7333 185.19Z" fill="#FAC590"/>
<path d="M64.9725 193.526C66.8833 193.833 107.032 193.287 123 193.294V189.423C123 189.423 67.9757 193.17 63.6572 192.583C64.0086 193.082 64.4414 193.441 64.9725 193.526Z" fill="#F8CEA7"/>
<path d="M43.3454 206.339L27.4697 207.142C27.8907 207.595 28.4998 207.861 29.1594 207.818L44.6881 206.807C44.7207 206.908 44.7459 207.01 44.7633 207.112C45.401 206.034 43.3454 206.339 43.3454 206.339Z" fill="#E4B487"/>
<path d="M41.785 201.628L23.5859 201.065C24.0064 201.551 24.6177 201.862 25.3042 201.876L42.6012 202.237C42.6113 202.26 42.6203 202.283 42.6293 202.307C43.0374 201.589 41.785 201.628 41.785 201.628Z" fill="#E4B487"/>
<path d="M41.2655 196.256L25.2041 194.529C25.5651 195.216 26.2471 195.711 27.0667 195.787L41.9128 197.162C42.5567 196.718 41.2655 196.256 41.2655 196.256Z" fill="#E4B487"/>
<path d="M48.9561 192.247C49.097 191.029 49.3036 188.945 42.4573 187.109C44.3996 188.2 46.4918 189.073 46.9363 189.525C47.5078 190.106 48.3055 192.03 46.0786 192.789C45.9394 192.749 45.7951 192.72 45.6464 192.706L27.495 191.025C26.8882 190.968 26.3145 191.151 25.8643 191.497L46.2229 193.559C46.2229 193.559 48.804 193.559 48.9561 192.247Z" fill="#F8CEA7"/>
<path d="M61.3996 200.424C56.8307 200.424 56.1778 206.826 54.5415 208.143C52.9051 209.46 45.3364 209.667 45.3364 209.667C44.985 210.025 34.4164 211.968 31.4463 212.508C31.8404 212.888 32.4023 213.078 32.9777 212.969L45.497 210.606C48.6316 211.04 56.779 211.69 62.8282 207.946C67.8478 204.839 123 211.114 123 211.114V207.925L66.3378 203.569C66.3378 203.569 65.2106 200.424 61.3996 200.424Z" fill="#EFB57F"/>
<path d="M113.021 154.034L109.591 154.785L111.264 156.649L88.5602 178.076L76.019 164.476L74.3574 166.001L88.38 181.267L112.773 158.33L114.351 160.087L115.406 156.68L116.461 153.273L113.021 154.034Z" fill="#F69736"/>
<path d="M113.021 162.533L109.591 163.285L111.264 165.149L88.5609 186.575L72.8677 170.187L71.2061 171.712L88.3807 189.767L112.774 166.83L114.352 168.587L115.406 165.18L116.461 161.773L113.021 162.533Z" fill="#F69736"/>
<path d="M113.021 171.033L109.591 171.784L111.264 173.648L88.5603 195.075L69.0151 174.119L67.3535 175.644L88.3801 198.266L112.773 175.329L114.351 177.086L115.406 173.679L116.461 170.272L113.021 171.033Z" fill="#F69736"/>
<path d="M68.7187 162.072C70.0233 159.927 70.7766 157.4 70.7766 154.694C70.7766 146.932 64.5854 140.641 56.9488 140.641C56.823 140.641 56.6979 140.643 56.5732 140.646C63.8023 144.971 68.6665 152.942 68.7187 162.072Z" fill="#F39641"/>
<path d="M64.1181 141.893C65.338 142.647 66.9283 142.252 67.6698 141.012C68.4114 139.771 67.8405 135.668 67.8405 135.668C67.8405 135.668 63.9924 137.042 63.2514 138.283C62.5099 139.523 62.8977 141.14 64.1181 141.893Z" fill="#F39641"/>
<path d="M59.3845 140.172C60.7845 140.456 62.1469 139.532 62.4259 138.109C62.7055 136.686 60.7873 133.029 60.7873 133.029C60.7873 133.029 57.6348 135.658 57.3552 137.081C57.0757 138.504 57.9845 139.888 59.3845 140.172Z" fill="#F39641"/>
<path d="M56.521 137.205C56.3043 135.771 53.2708 133 53.2708 133C53.2708 133 51.1932 136.566 51.4093 138.001C51.4273 138.12 51.4531 138.235 51.4857 138.347C52.7824 138.761 54.0325 139.281 55.2265 139.897C56.1415 139.377 56.6894 138.319 56.521 137.205Z" fill="#F39641"/>
<path d="M71.4235 154.592C71.3926 156.044 72.5254 157.246 73.9529 157.28C75.3804 157.312 78.5903 154.757 78.5903 154.757C78.5903 154.757 75.4955 152.058 74.0691 152.026C72.6405 151.993 71.4583 153.143 71.4235 154.592Z" fill="#F39641"/>
<path d="M72.1453 146.235C70.7919 146.7 70.0672 148.192 70.523 149.566C70.9827 150.941 72.4518 151.677 73.8041 151.212C75.1564 150.746 77.3131 147.23 77.3131 147.23C77.3131 147.23 73.4965 145.769 72.1453 146.235Z" fill="#F39641"/>
<path d="M67.9866 145.155C68.8802 146.288 70.5087 146.469 71.6236 145.562C72.7367 144.655 73.5799 140.599 73.5799 140.599C73.5799 140.599 69.5016 140.555 68.389 141.462C67.2742 142.37 67.0957 144.023 67.9866 145.155Z" fill="#F39641"/>
<path d="M46.1973 135.586C46.1973 135.586 46.0609 136.325 45.957 137.273C47.4732 137.387 48.9513 137.642 50.3788 138.023C49.2685 136.843 46.1973 135.586 46.1973 135.586Z" fill="#F39641"/>
<path d="M67.8411 173.719C67.8411 173.719 68.3042 170.387 67.8535 168.821C67.456 170.302 66.9278 171.729 66.2822 173.087C67.1417 173.469 67.8411 173.719 67.8411 173.719Z" fill="#F39641"/>
<path d="M73.8041 158.175C72.4518 157.71 70.9827 158.446 70.523 159.821C70.0672 161.195 70.7919 162.687 72.1453 163.152C73.4965 163.618 77.3131 162.158 77.3131 162.158C77.3131 162.158 75.1564 158.641 73.8041 158.175Z" fill="#F39641"/>
<path d="M71.6236 163.825C70.7574 163.121 69.5825 163.073 68.6816 163.617C68.6063 165.006 68.42 166.364 68.1309 167.683C68.2106 167.768 68.2965 167.849 68.3891 167.925C69.5017 168.832 73.5799 168.787 73.5799 168.787C73.5799 168.787 72.7368 164.732 71.6236 163.825Z" fill="#F39641"/>
<path d="M43.1201 154.693C43.1201 162.455 49.3113 168.746 56.9485 168.746C61.9221 168.746 66.2816 166.077 68.7184 162.072C68.6662 152.942 63.8021 144.971 56.573 140.646C49.1098 140.848 43.1201 147.06 43.1201 154.693Z" fill="#ECA844"/>
<path d="M54.3561 140.2C54.671 140.151 54.9635 140.046 55.2262 139.897C54.0322 139.281 52.7821 138.761 51.4854 138.347C51.8452 139.589 53.0622 140.402 54.3561 140.2Z" fill="#ECA844"/>
<path d="M46.0114 140.637C46.0456 140.747 46.0849 140.846 46.1315 140.932C46.8175 142.205 48.3887 142.671 49.6416 141.975C50.2165 141.655 50.6234 141.145 50.83 140.564C51.0731 139.879 51.0377 139.096 50.6667 138.408C50.5987 138.282 50.5005 138.153 50.3787 138.023C48.9512 137.642 47.4731 137.387 45.9569 137.273C45.834 138.398 45.7576 139.817 46.0114 140.637Z" fill="#ECA844"/>
<path d="M42.1593 145.52C43.232 146.478 44.865 146.37 45.8081 145.281C46.75 144.19 46.6434 142.529 45.5712 141.572C45.2849 141.316 44.7847 141.119 44.2048 140.967C42.6128 140.55 40.4219 140.474 40.4219 140.474C40.4219 140.474 40.5398 141.202 40.757 142.115C41.0551 143.366 41.5384 144.967 42.1593 145.52Z" fill="#ECA844"/>
<path d="M39.9692 151.213C41.3002 151.74 42.7984 151.071 43.3177 149.72C43.8364 148.367 43.1768 146.844 41.8469 146.317C40.5171 145.79 36.6387 147.075 36.6387 147.075C36.6387 147.075 38.6388 150.687 39.9692 151.213Z" fill="#ECA844"/>
<path d="M42.4735 154.757C42.5049 153.305 41.3715 152.103 39.9457 152.07C38.5181 152.037 35.3066 154.592 35.3066 154.592C35.3066 154.592 38.402 157.291 39.8295 157.324C41.257 157.356 42.4392 156.207 42.4735 154.757Z" fill="#ECA844"/>
<path d="M64.1181 167.494C62.8977 168.248 62.5099 169.864 63.2514 171.104C63.6763 171.816 65.1241 172.572 66.2816 173.087C66.9271 171.728 67.4554 170.302 67.8528 168.82C67.8034 168.649 67.7434 168.498 67.6698 168.375C66.9283 167.135 65.338 166.74 64.1181 167.494Z" fill="#ECA844"/>
<path d="M59.3845 169.216C57.9845 169.499 57.0757 170.883 57.3552 172.306C57.6348 173.73 60.7873 176.359 60.7873 176.359C60.7873 176.359 62.7055 172.701 62.4259 171.278C62.1469 169.855 60.7845 168.932 59.3845 169.216Z" fill="#ECA844"/>
<path d="M54.3564 169.187C52.9457 168.967 51.6254 169.952 51.4093 171.386C51.1932 172.821 53.2708 176.387 53.2708 176.387C53.2708 176.387 56.3043 173.616 56.521 172.182C56.7377 170.748 55.7682 169.407 54.3564 169.187Z" fill="#ECA844"/>
<path d="M67.9862 164.232C67.1694 165.27 67.2525 166.745 68.1304 167.683C68.4195 166.364 68.6059 165.006 68.6811 163.617C68.4223 163.774 68.1855 163.979 67.9862 164.232Z" fill="#F39641"/>
<path d="M49.6416 167.412C48.3887 166.716 46.8175 167.182 46.1315 168.455C46.0849 168.541 46.0456 168.641 46.0114 168.75C45.5438 170.261 46.1972 173.801 46.1972 173.801C46.1972 173.801 49.9813 172.252 50.6667 170.979C51.0377 170.291 51.0731 169.508 50.83 168.823C50.6235 168.243 50.2165 167.732 49.6416 167.412Z" fill="#ECA844"/>
<path d="M45.8081 164.106C44.865 163.017 43.232 162.909 42.1593 163.867C41.5384 164.42 41.0551 166.021 40.757 167.273C40.5398 168.185 40.4219 168.913 40.4219 168.913C40.4219 168.913 42.6128 168.837 44.2048 168.42C44.7847 168.268 45.2849 168.071 45.5712 167.815C46.6434 166.858 46.75 165.197 45.8081 164.106Z" fill="#ECA844"/>
<path d="M41.8469 163.07C43.1768 162.543 43.8364 161.02 43.3177 159.667C42.7984 158.316 41.3002 157.647 39.9692 158.174C38.6388 158.7 36.6387 162.312 36.6387 162.312C36.6387 162.312 40.5171 163.597 41.8469 163.07Z" fill="#ECA844"/>
<path d="M49.8801 150.677V157.323C49.8801 159.309 50.6216 160.32 51.9363 160.32C53.2847 160.32 54.0262 159.361 54.0262 157.323V150.677H56.5882V157.151C56.5882 160.714 54.8183 162.41 51.8521 162.41C48.9869 162.41 47.3018 160.799 47.3018 157.117V150.677H49.8801Z" fill="#FEFEFE"/>
<path d="M61.4919 162.221L57.8516 150.677H60.6662L62.0482 155.558C62.4356 156.929 62.7898 158.247 63.0592 159.686H63.1098C63.396 158.299 63.7503 156.929 64.1382 155.61L65.5876 150.677H68.3174L64.4918 162.221H61.4919Z" fill="#FEFEFE"/>
</svg>
