<svg width="506" height="358" viewBox="0 0 506 358" fill="none" xmlns="http://www.w3.org/2000/svg">
<path opacity="0.1" d="M116.289 41.7354C120.327 17.6465 141.177 0 165.602 0H455.284C482.898 0 505.284 22.3858 505.284 50V308C505.284 335.614 482.898 358 455.284 358H122.361C91.4461 358 67.9391 330.225 73.0492 299.735L116.289 41.7354Z" fill="#CDDDC3"/>
<ellipse cx="442.807" cy="56.4271" rx="34.0274" ry="20.1071" transform="rotate(150 442.807 56.4271)" stroke="white" stroke-width="1.5"/>
<path d="M146 180.444C146 218.796 113.317 249.888 73.0002 249.888C32.6834 249.888 0 218.796 0 180.444C0 142.091 32.6834 111 73.0002 111C113.317 111 146 142.091 146 180.444Z" fill="#EDF7F7"/>
<g clip-path="url(#clip0)">
<path d="M74.6063 232H71.0754C67.1753 232 64.0137 228.838 64.0137 224.938L65.7791 223.173H78.1372L81.6681 224.938C81.6681 228.838 78.5065 232 74.6063 232Z" fill="#EA9D2D"/>
<path d="M72.8406 184.333C71.8656 184.333 71.0752 183.543 71.0752 182.568V149.024C71.0752 148.049 71.8656 147.259 72.8406 147.259C73.8157 147.259 74.6061 148.049 74.6061 149.024V182.568C74.6061 183.543 73.8157 184.333 72.8406 184.333Z" fill="#6FBBC6"/>
<path d="M101.455 166.966L74.0909 153.684L45.8438 139.935C44.9657 139.509 43.9083 139.874 43.481 140.752C43.0545 141.629 43.4192 142.687 44.2974 143.114L72.5444 156.863L96.3604 168.444H96.3703L99.921 170.142C100.813 170.535 101.855 170.131 102.248 169.238C102.622 168.39 102.275 167.397 101.455 166.965V166.966Z" fill="#69B0BB"/>
<path d="M102.274 140.755C101.852 139.877 100.799 139.508 99.9211 139.928L96.3704 141.629H96.3597L72.5652 153.208H72.5461L44.299 166.959C43.4216 167.384 43.0547 168.44 43.4796 169.318C43.7757 169.929 44.3952 170.316 45.0742 170.314C45.3412 170.315 45.6052 170.255 45.8455 170.137L74.0926 156.388L101.457 143.105C102.329 142.679 102.694 141.63 102.274 140.755Z" fill="#A8D6DA"/>
<path d="M50.4195 143.481L48.104 148.248L35.4033 142.068L37.7196 137.302C39.4255 133.794 43.6515 132.334 47.1587 134.041H47.1595C50.6659 135.747 52.1262 139.973 50.4203 143.48C50.4203 143.481 50.4203 143.481 50.4195 143.481Z" fill="#8ACED8"/>
<path d="M96.6174 166.982L98.9337 162.215L111.634 168.394L109.318 173.161C107.612 176.668 103.386 178.128 99.879 176.422H99.8782C96.371 174.716 94.9115 170.489 96.6174 166.983C96.6174 166.982 96.6174 166.982 96.6174 166.982Z" fill="#8ACED8"/>
<path d="M35.2369 173.052L37.5532 177.818L50.2538 171.639L47.9376 166.872C46.2316 163.366 42.0049 161.906 38.4977 163.612C34.9905 165.318 33.5302 169.544 35.2369 173.052Z" fill="#B8EAEE"/>
<path d="M110.887 136.767L108.571 132L95.8711 138.179L98.1874 142.946C99.8956 146.446 104.116 147.902 107.62 146.2C111.125 144.496 112.589 140.274 110.887 136.767Z" fill="#B8EAEE"/>
<path d="M79.9019 182.69L78.1364 186.099H67.5438L65.7783 182.69V182.568C65.7783 178.667 68.9407 175.506 72.8401 175.506C76.7402 175.506 79.9019 178.667 79.9019 182.568V182.69Z" fill="#69B0BB"/>
<path d="M83.4333 187.864V224.938H62.248V187.864" fill="#B9B9B9"/>
<path d="M69.3094 201.988H76.3712C77.3462 201.988 78.1366 202.778 78.1366 203.753V210.815C78.1366 211.79 77.3462 212.58 76.3712 212.58H69.3094C68.3344 212.58 67.5439 211.79 67.5439 210.815V203.753C67.5439 202.778 68.3344 201.988 69.3094 201.988Z" fill="#B8EAEE"/>
<path d="M70.4875 203.753H75.1941C75.8441 203.753 76.3713 204.28 76.3713 204.93V209.637C76.3713 210.288 75.8441 210.815 75.1941 210.815H70.4875C69.8368 210.815 69.3096 210.288 69.3096 209.637V204.93C69.3096 204.28 69.8368 203.753 70.4875 203.753Z" fill="#C0F5F9"/>
<path d="M80.6885 228.469C81.324 227.4 81.662 226.182 81.6681 224.938H64.0137C64.0205 226.181 64.3585 227.4 64.994 228.469H80.6885Z" fill="#DA922A"/>
<path d="M67.5444 182.69H78.137C81.0621 182.69 83.4333 185.061 83.4333 187.986V193.16H62.248V187.986C62.248 185.061 64.6193 182.69 67.5444 182.69Z" fill="#FBB540"/>
</g>
<defs>
<clipPath id="clip0">
<rect width="100" height="100" fill="white" transform="translate(23 132)"/>
</clipPath>
</defs>
</svg>
